  0
SECTION
  2
HEADER
  9
$ANGBASE
  50
0.0
  9
$ANGDIR
  70
1
  9
$MEASUREMENT
  70
1
  0
ENDSEC
  0
SECTION
  2
TABLES
  0
TABLE
  2
LTYPE
  70
4
  0
LTYPE
  5
40F
  2
CONTINUOUS
  70
0
  3
Solid line
  72
65
  73
0
  40
0.0
  0
LTYPE
  5
410
  2
DASHDOT
 70
0
  3
Dash Dot ____ _ ____ _
 72
65
 73
4
 40
2.0
 49
1.25
 49
-0.25
 49
0.25
 49
-0.25
  0
LTYPE
  5
411
  2
DASHED
 70
0
  3
Dashed __ __ __ __ __
 72
65
 73
2
 40
0.75
 49
0.5
 49
-0.25
  0
LTYPE
  5
43B
  2
DOTTED
 70
0
  3
Dotted .  .  .  .
 72
65
 73
2
 40
0.2
 49
0.0
 49
-0.2
  0
ENDTAB
  0
TABLE
  2
STYLE
  70
4
  0
STYLE
  2
KICAD
  70
0
  40
0
  41
1
  42
1
  50
0
  71
0
  3
isocp.shx
  0
STYLE
  2
KICADB
  70
0
  40
0
  41
1
  42
1
  50
0
  71
0
  3
isocp.shx
  0
STYLE
  2
KICADI
  70
0
  40
0
  41
1
  42
1
  50
15
  71
0
  3
isocp.shx
  0
STYLE
  2
KICADBI
  70
0
  40
0
  41
1
  42
1
  50
15
  71
0
  3
isocp.shx
  0
ENDTAB
  0
TABLE
  2
LAYER
  70
1
  0
LAYER
  2
BLACK
  70
0
  62
7
  6
CONTINUOUS
  0
ENDTAB
  0
ENDSEC
  0
SECTION
  2
ENTITIES
0
LINE
8
BLACK
6
CONTINUOUS
10
185.5
20
-118
11
102.9
21
-118
0
ARC
8
BLACK
10
102.9
20
-115
40
3
50
-180
51
-90
0
ARC
8
BLACK
10
102.9
20
-70.4
40
3
50
90
51
180
0
LINE
8
BLACK
6
CONTINUOUS
10
102.9
20
-67.4
11
185.5
21
-67.4
0
LINE
8
BLACK
6
CONTINUOUS
10
188.5
20
-70.4
11
188.5
21
-115
0
ARC
8
BLACK
10
185.5
20
-115
40
3
50
-90
51
-0
0
ARC
8
BLACK
10
185.5
20
-70.4
40
3
50
-0
51
90
0
LINE
8
BLACK
6
CONTINUOUS
10
99.9
20
-115
11
99.9
21
-70.4
0
LINE
8
BLACK
6
CONTINUOUS
10
108.7
20
-96.8
11
109.1
21
-97.2
0
LINE
8
BLACK
6
CONTINUOUS
10
109.1
20
-96.8
11
108.7
21
-97.2
0
LINE
8
BLACK
6
CONTINUOUS
10
110.4
20
-88.7
11
110.8
21
-89.1
0
LINE
8
BLACK
6
CONTINUOUS
10
110.8
20
-88.7
11
110.4
21
-89.1
0
LINE
8
BLACK
6
CONTINUOUS
10
114.6
20
-98.5
11
115
21
-98.9
0
LINE
8
BLACK
6
CONTINUOUS
10
115
20
-98.5
11
114.6
21
-98.9
0
LINE
8
BLACK
6
CONTINUOUS
10
119
20
-90.8
11
119.4
21
-91.2
0
LINE
8
BLACK
6
CONTINUOUS
10
119.4
20
-90.8
11
119
21
-91.2
0
LINE
8
BLACK
6
CONTINUOUS
10
121.2
20
-93.3
11
121.6
21
-93.7
0
LINE
8
BLACK
6
CONTINUOUS
10
121.6
20
-93.3
11
121.2
21
-93.7
0
LINE
8
BLACK
6
CONTINUOUS
10
126.1
20
-108
11
126.5
21
-108.4
0
LINE
8
BLACK
6
CONTINUOUS
10
126.5
20
-108
11
126.1
21
-108.4
0
LINE
8
BLACK
6
CONTINUOUS
10
126.2
20
-99.6
11
126.6
21
-100
0
LINE
8
BLACK
6
CONTINUOUS
10
126.6
20
-99.6
11
126.2
21
-100
0
LINE
8
BLACK
6
CONTINUOUS
10
126.7
20
-111.7
11
127.1
21
-112.1
0
LINE
8
BLACK
6
CONTINUOUS
10
127.1
20
-111.7
11
126.7
21
-112.1
0
LINE
8
BLACK
6
CONTINUOUS
10
130.1
20
-90.8
11
130.5
21
-91.2
0
LINE
8
BLACK
6
CONTINUOUS
10
130.5
20
-90.8
11
130.1
21
-91.2
0
LINE
8
BLACK
6
CONTINUOUS
10
131.6
20
-109.1
11
132
21
-109.5
0
LINE
8
BLACK
6
CONTINUOUS
10
132
20
-109.1
11
131.6
21
-109.5
0
LINE
8
BLACK
6
CONTINUOUS
10
131.7
20
-98.6
11
132.1
21
-99
0
LINE
8
BLACK
6
CONTINUOUS
10
132.1
20
-98.6
11
131.7
21
-99
0
LINE
8
BLACK
6
CONTINUOUS
10
133
20
-85.5
11
133.4
21
-85.9
0
LINE
8
BLACK
6
CONTINUOUS
10
133.4
20
-85.5
11
133
21
-85.9
0
LINE
8
BLACK
6
CONTINUOUS
10
136.4
20
-91
11
136.8
21
-91.4
0
LINE
8
BLACK
6
CONTINUOUS
10
136.8
20
-91
11
136.4
21
-91.4
0
LINE
8
BLACK
6
CONTINUOUS
10
136.9
20
-95.8
11
137.3
21
-96.2
0
LINE
8
BLACK
6
CONTINUOUS
10
137.3
20
-95.8
11
136.9
21
-96.2
0
LINE
8
BLACK
6
CONTINUOUS
10
138.1
20
-84
11
138.5
21
-84.4
0
LINE
8
BLACK
6
CONTINUOUS
10
138.5
20
-84
11
138.1
21
-84.4
0
LINE
8
BLACK
6
CONTINUOUS
10
138.4
20
-87
11
138.8
21
-87.4
0
LINE
8
BLACK
6
CONTINUOUS
10
138.8
20
-87
11
138.4
21
-87.4
0
LINE
8
BLACK
6
CONTINUOUS
10
139.5
20
-70
11
139.9
21
-70.4
0
LINE
8
BLACK
6
CONTINUOUS
10
139.9
20
-70
11
139.5
21
-70.4
0
LINE
8
BLACK
6
CONTINUOUS
10
145.5
20
-101.2
11
145.9
21
-101.6
0
LINE
8
BLACK
6
CONTINUOUS
10
145.9
20
-101.2
11
145.5
21
-101.6
0
LINE
8
BLACK
6
CONTINUOUS
10
145.5
20
-107.6
11
145.9
21
-108
0
LINE
8
BLACK
6
CONTINUOUS
10
145.9
20
-107.6
11
145.5
21
-108
0
LINE
8
BLACK
6
CONTINUOUS
10
145.7
20
-95.5
11
146.1
21
-95.9
0
LINE
8
BLACK
6
CONTINUOUS
10
146.1
20
-95.5
11
145.7
21
-95.9
0
LINE
8
BLACK
6
CONTINUOUS
10
150.1
20
-81.9
11
150.5
21
-82.3
0
LINE
8
BLACK
6
CONTINUOUS
10
150.5
20
-81.9
11
150.1
21
-82.3
0
LINE
8
BLACK
6
CONTINUOUS
10
150.3
20
-107.3
11
150.7
21
-107.7
0
LINE
8
BLACK
6
CONTINUOUS
10
150.7
20
-107.3
11
150.3
21
-107.7
0
LINE
8
BLACK
6
CONTINUOUS
10
150.4
20
-98
11
150.8
21
-98.4
0
LINE
8
BLACK
6
CONTINUOUS
10
150.8
20
-98
11
150.4
21
-98.4
0
LINE
8
BLACK
6
CONTINUOUS
10
160
20
-95.2
11
160.4
21
-95.6
0
LINE
8
BLACK
6
CONTINUOUS
10
160.4
20
-95.2
11
160
21
-95.6
0
LINE
8
BLACK
6
CONTINUOUS
10
160.2
20
-103.8
11
160.6
21
-104.2
0
LINE
8
BLACK
6
CONTINUOUS
10
160.6
20
-103.8
11
160.2
21
-104.2
0
LINE
8
BLACK
6
CONTINUOUS
10
163.5
20
-92
11
163.9
21
-92.4
0
LINE
8
BLACK
6
CONTINUOUS
10
163.9
20
-92
11
163.5
21
-92.4
0
LINE
8
BLACK
6
CONTINUOUS
10
165.1
20
-86.5
11
165.5
21
-86.9
0
LINE
8
BLACK
6
CONTINUOUS
10
165.5
20
-86.5
11
165.1
21
-86.9
0
LINE
8
BLACK
6
CONTINUOUS
10
167.3
20
-109.7
11
167.7
21
-110.1
0
LINE
8
BLACK
6
CONTINUOUS
10
167.7
20
-109.7
11
167.3
21
-110.1
0
LINE
8
BLACK
6
CONTINUOUS
10
168.4
20
-85
11
168.8
21
-85.4
0
LINE
8
BLACK
6
CONTINUOUS
10
168.8
20
-85
11
168.4
21
-85.4
0
LINE
8
BLACK
6
CONTINUOUS
10
169.1
20
-95.2
11
169.5
21
-95.6
0
LINE
8
BLACK
6
CONTINUOUS
10
169.5
20
-95.2
11
169.1
21
-95.6
0
LINE
8
BLACK
6
CONTINUOUS
10
169.8
20
-98.4
11
170.2
21
-98.8
0
LINE
8
BLACK
6
CONTINUOUS
10
170.2
20
-98.4
11
169.8
21
-98.8
0
LINE
8
BLACK
6
CONTINUOUS
10
171.3
20
-112.2
11
171.7
21
-112.6
0
LINE
8
BLACK
6
CONTINUOUS
10
171.7
20
-112.2
11
171.3
21
-112.6
0
LINE
8
BLACK
6
CONTINUOUS
10
173.2
20
-91.1
11
173.6
21
-91.5
0
LINE
8
BLACK
6
CONTINUOUS
10
173.6
20
-91.1
11
173.2
21
-91.5
0
LINE
8
BLACK
6
CONTINUOUS
10
175.3
20
-95.6
11
175.7
21
-96
0
LINE
8
BLACK
6
CONTINUOUS
10
175.7
20
-95.6
11
175.3
21
-96
0
LINE
8
BLACK
6
CONTINUOUS
10
180.4
20
-87.5
11
180.8
21
-87.9
0
LINE
8
BLACK
6
CONTINUOUS
10
180.8
20
-87.5
11
180.4
21
-87.9
0
CIRCLE
8
BLACK
10
105.96
20
-90.9
40
0.35
0
CIRCLE
8
BLACK
10
111.04
20
-90.9
40
0.35
0
CIRCLE
8
BLACK
10
116.685
20
-90.9
40
0.35
0
CIRCLE
8
BLACK
10
121.765
20
-90.9
40
0.35
0
CIRCLE
8
BLACK
10
127.585
20
-90.9
40
0.35
0
CIRCLE
8
BLACK
10
132.665
20
-90.9
40
0.35
0
LINE
8
BLACK
6
CONTINUOUS
10
103.9
20
-73.52
11
103.9
21
-74.32
0
LINE
8
BLACK
6
CONTINUOUS
10
103.5
20
-73.92
11
104.3
21
-73.92
0
LINE
8
BLACK
6
CONTINUOUS
10
103.9
20
-83.68
11
103.9
21
-84.48
0
LINE
8
BLACK
6
CONTINUOUS
10
103.5
20
-84.08
11
104.3
21
-84.08
0
LINE
8
BLACK
6
CONTINUOUS
10
104.9
20
-93.92
11
104.9
21
-94.72
0
LINE
8
BLACK
6
CONTINUOUS
10
104.5
20
-94.32
11
105.3
21
-94.32
0
LINE
8
BLACK
6
CONTINUOUS
10
104.9
20
-104.08
11
104.9
21
-104.88
0
LINE
8
BLACK
6
CONTINUOUS
10
104.5
20
-104.48
11
105.3
21
-104.48
0
LINE
8
BLACK
6
CONTINUOUS
10
108.9
20
-93.92
11
108.9
21
-94.72
0
LINE
8
BLACK
6
CONTINUOUS
10
108.5
20
-94.32
11
109.3
21
-94.32
0
LINE
8
BLACK
6
CONTINUOUS
10
108.9
20
-104.08
11
108.9
21
-104.88
0
LINE
8
BLACK
6
CONTINUOUS
10
108.5
20
-104.48
11
109.3
21
-104.48
0
LINE
8
BLACK
6
CONTINUOUS
10
112.4
20
-111.3
11
112.4
21
-112.1
0
LINE
8
BLACK
6
CONTINUOUS
10
112
20
-111.7
11
112.8
21
-111.7
0
LINE
8
BLACK
6
CONTINUOUS
10
113
20
-93.92
11
113
21
-94.72
0
LINE
8
BLACK
6
CONTINUOUS
10
112.6
20
-94.32
11
113.4
21
-94.32
0
LINE
8
BLACK
6
CONTINUOUS
10
113
20
-104.08
11
113
21
-104.88
0
LINE
8
BLACK
6
CONTINUOUS
10
112.6
20
-104.48
11
113.4
21
-104.48
0
LINE
8
BLACK
6
CONTINUOUS
10
113.805
20
-107.2
11
113.805
21
-108
0
LINE
8
BLACK
6
CONTINUOUS
10
113.405
20
-107.6
11
114.205
21
-107.6
0
LINE
8
BLACK
6
CONTINUOUS
10
114.625
20
-73.52
11
114.625
21
-74.32
0
LINE
8
BLACK
6
CONTINUOUS
10
114.225
20
-73.92
11
115.025
21
-73.92
0
LINE
8
BLACK
6
CONTINUOUS
10
114.625
20
-83.68
11
114.625
21
-84.48
0
LINE
8
BLACK
6
CONTINUOUS
10
114.225
20
-84.08
11
115.025
21
-84.08
0
LINE
8
BLACK
6
CONTINUOUS
10
116.305
20
-107.2
11
116.305
21
-108
0
LINE
8
BLACK
6
CONTINUOUS
10
115.905
20
-107.6
11
116.705
21
-107.6
0
LINE
8
BLACK
6
CONTINUOUS
10
117.1
20
-93.92
11
117.1
21
-94.72
0
LINE
8
BLACK
6
CONTINUOUS
10
116.7
20
-94.32
11
117.5
21
-94.32
0
LINE
8
BLACK
6
CONTINUOUS
10
117.1
20
-104.08
11
117.1
21
-104.88
0
LINE
8
BLACK
6
CONTINUOUS
10
116.7
20
-104.48
11
117.5
21
-104.48
0
LINE
8
BLACK
6
CONTINUOUS
10
117.4
20
-111.3
11
117.4
21
-112.1
0
LINE
8
BLACK
6
CONTINUOUS
10
117
20
-111.7
11
117.8
21
-111.7
0
LINE
8
BLACK
6
CONTINUOUS
10
121.4
20
-95.575
11
121.4
21
-96.375
0
LINE
8
BLACK
6
CONTINUOUS
10
121
20
-95.975
11
121.8
21
-95.975
0
LINE
8
BLACK
6
CONTINUOUS
10
121.4
20
-98.115
11
121.4
21
-98.915
0
LINE
8
BLACK
6
CONTINUOUS
10
121
20
-98.515
11
121.8
21
-98.515
0
LINE
8
BLACK
6
CONTINUOUS
10
121.4
20
-100.655
11
121.4
21
-101.455
0
LINE
8
BLACK
6
CONTINUOUS
10
121
20
-101.055
11
121.8
21
-101.055
0
LINE
8
BLACK
6
CONTINUOUS
10
121.4
20
-103.195
11
121.4
21
-103.995
0
LINE
8
BLACK
6
CONTINUOUS
10
121
20
-103.595
11
121.8
21
-103.595
0
LINE
8
BLACK
6
CONTINUOUS
10
121.4
20
-105.735
11
121.4
21
-106.535
0
LINE
8
BLACK
6
CONTINUOUS
10
121
20
-106.135
11
121.8
21
-106.135
0
LINE
8
BLACK
6
CONTINUOUS
10
121.4
20
-108.275
11
121.4
21
-109.075
0
LINE
8
BLACK
6
CONTINUOUS
10
121
20
-108.675
11
121.8
21
-108.675
0
LINE
8
BLACK
6
CONTINUOUS
10
121.4
20
-110.815
11
121.4
21
-111.615
0
LINE
8
BLACK
6
CONTINUOUS
10
121
20
-111.215
11
121.8
21
-111.215
0
LINE
8
BLACK
6
CONTINUOUS
10
125.475
20
-73.52
11
125.475
21
-74.32
0
LINE
8
BLACK
6
CONTINUOUS
10
125.075
20
-73.92
11
125.875
21
-73.92
0
LINE
8
BLACK
6
CONTINUOUS
10
125.475
20
-83.68
11
125.475
21
-84.48
0
LINE
8
BLACK
6
CONTINUOUS
10
125.075
20
-84.08
11
125.875
21
-84.08
0
LINE
8
BLACK
6
CONTINUOUS
10
129.02
20
-95.575
11
129.02
21
-96.375
0
LINE
8
BLACK
6
CONTINUOUS
10
128.62
20
-95.975
11
129.42
21
-95.975
0
LINE
8
BLACK
6
CONTINUOUS
10
129.02
20
-98.115
11
129.02
21
-98.915
0
LINE
8
BLACK
6
CONTINUOUS
10
128.62
20
-98.515
11
129.42
21
-98.515
0
LINE
8
BLACK
6
CONTINUOUS
10
129.02
20
-100.655
11
129.02
21
-101.455
0
LINE
8
BLACK
6
CONTINUOUS
10
128.62
20
-101.055
11
129.42
21
-101.055
0
LINE
8
BLACK
6
CONTINUOUS
10
129.02
20
-103.195
11
129.02
21
-103.995
0
LINE
8
BLACK
6
CONTINUOUS
10
128.62
20
-103.595
11
129.42
21
-103.595
0
LINE
8
BLACK
6
CONTINUOUS
10
129.02
20
-105.735
11
129.02
21
-106.535
0
LINE
8
BLACK
6
CONTINUOUS
10
128.62
20
-106.135
11
129.42
21
-106.135
0
LINE
8
BLACK
6
CONTINUOUS
10
129.02
20
-108.275
11
129.02
21
-109.075
0
LINE
8
BLACK
6
CONTINUOUS
10
128.62
20
-108.675
11
129.42
21
-108.675
0
LINE
8
BLACK
6
CONTINUOUS
10
129.02
20
-110.815
11
129.02
21
-111.615
0
LINE
8
BLACK
6
CONTINUOUS
10
128.62
20
-111.215
11
129.42
21
-111.215
0
LINE
8
BLACK
6
CONTINUOUS
10
131.62
20
-110.9
11
131.62
21
-111.7
0
LINE
8
BLACK
6
CONTINUOUS
10
131.22
20
-111.3
11
132.02
21
-111.3
0
LINE
8
BLACK
6
CONTINUOUS
10
134.2
20
-97.12
11
134.2
21
-97.92
0
LINE
8
BLACK
6
CONTINUOUS
10
133.8
20
-97.52
11
134.6
21
-97.52
0
LINE
8
BLACK
6
CONTINUOUS
10
134.2
20
-107.28
11
134.2
21
-108.08
0
LINE
8
BLACK
6
CONTINUOUS
10
133.8
20
-107.68
11
134.6
21
-107.68
0
LINE
8
BLACK
6
CONTINUOUS
10
136.6
20
-71.32
11
136.6
21
-72.12
0
LINE
8
BLACK
6
CONTINUOUS
10
136.2
20
-71.72
11
137
21
-71.72
0
LINE
8
BLACK
6
CONTINUOUS
10
136.6
20
-81.48
11
136.6
21
-82.28
0
LINE
8
BLACK
6
CONTINUOUS
10
136.2
20
-81.88
11
137
21
-81.88
0
LINE
8
BLACK
6
CONTINUOUS
10
138.8
20
-97.12
11
138.8
21
-97.92
0
LINE
8
BLACK
6
CONTINUOUS
10
138.4
20
-97.52
11
139.2
21
-97.52
0
LINE
8
BLACK
6
CONTINUOUS
10
138.8
20
-107.28
11
138.8
21
-108.08
0
LINE
8
BLACK
6
CONTINUOUS
10
138.4
20
-107.68
11
139.2
21
-107.68
0
LINE
8
BLACK
6
CONTINUOUS
10
139.7
20
-93.4
11
139.7
21
-94.2
0
LINE
8
BLACK
6
CONTINUOUS
10
139.3
20
-93.8
11
140.1
21
-93.8
0
LINE
8
BLACK
6
CONTINUOUS
10
141.78
20
-110.9
11
141.78
21
-111.7
0
LINE
8
BLACK
6
CONTINUOUS
10
141.38
20
-111.3
11
142.18
21
-111.3
0
LINE
8
BLACK
6
CONTINUOUS
10
142.2
20
-93.4
11
142.2
21
-94.2
0
LINE
8
BLACK
6
CONTINUOUS
10
141.8
20
-93.8
11
142.6
21
-93.8
0
LINE
8
BLACK
6
CONTINUOUS
10
143.4
20
-97.12
11
143.4
21
-97.92
0
LINE
8
BLACK
6
CONTINUOUS
10
143
20
-97.52
11
143.8
21
-97.52
0
LINE
8
BLACK
6
CONTINUOUS
10
143.4
20
-107.28
11
143.4
21
-108.08
0
LINE
8
BLACK
6
CONTINUOUS
10
143
20
-107.68
11
143.8
21
-107.68
0
LINE
8
BLACK
6
CONTINUOUS
10
145.6
20
-111.205
11
145.6
21
-112.005
0
LINE
8
BLACK
6
CONTINUOUS
10
145.2
20
-111.605
11
146
21
-111.605
0
LINE
8
BLACK
6
CONTINUOUS
10
145.6
20
-113.705
11
145.6
21
-114.505
0
LINE
8
BLACK
6
CONTINUOUS
10
145.2
20
-114.105
11
146
21
-114.105
0
LINE
8
BLACK
6
CONTINUOUS
10
148.1
20
-97.22
11
148.1
21
-98.02
0
LINE
8
BLACK
6
CONTINUOUS
10
147.7
20
-97.62
11
148.5
21
-97.62
0
LINE
8
BLACK
6
CONTINUOUS
10
148.1
20
-107.38
11
148.1
21
-108.18
0
LINE
8
BLACK
6
CONTINUOUS
10
147.7
20
-107.78
11
148.5
21
-107.78
0
LINE
8
BLACK
6
CONTINUOUS
10
149.1
20
-93.4
11
149.1
21
-94.2
0
LINE
8
BLACK
6
CONTINUOUS
10
148.7
20
-93.8
11
149.5
21
-93.8
0
LINE
8
BLACK
6
CONTINUOUS
10
149.5
20
-110.9
11
149.5
21
-111.7
0
LINE
8
BLACK
6
CONTINUOUS
10
149.1
20
-111.3
11
149.9
21
-111.3
0
LINE
8
BLACK
6
CONTINUOUS
10
151.6
20
-93.4
11
151.6
21
-94.2
0
LINE
8
BLACK
6
CONTINUOUS
10
151.2
20
-93.8
11
152
21
-93.8
0
LINE
8
BLACK
6
CONTINUOUS
10
152.8
20
-97.12
11
152.8
21
-97.92
0
LINE
8
BLACK
6
CONTINUOUS
10
152.4
20
-97.52
11
153.2
21
-97.52
0
LINE
8
BLACK
6
CONTINUOUS
10
152.8
20
-107.28
11
152.8
21
-108.08
0
LINE
8
BLACK
6
CONTINUOUS
10
152.4
20
-107.68
11
153.2
21
-107.68
0
LINE
8
BLACK
6
CONTINUOUS
10
153
20
-71.32
11
153
21
-72.12
0
LINE
8
BLACK
6
CONTINUOUS
10
152.6
20
-71.72
11
153.4
21
-71.72
0
LINE
8
BLACK
6
CONTINUOUS
10
153
20
-81.48
11
153
21
-82.28
0
LINE
8
BLACK
6
CONTINUOUS
10
152.6
20
-81.88
11
153.4
21
-81.88
0
LINE
8
BLACK
6
CONTINUOUS
10
154.5
20
-110.9
11
154.5
21
-111.7
0
LINE
8
BLACK
6
CONTINUOUS
10
154.1
20
-111.3
11
154.9
21
-111.3
0
LINE
8
BLACK
6
CONTINUOUS
10
156.42
20
-88
11
156.42
21
-88.8
0
LINE
8
BLACK
6
CONTINUOUS
10
156.02
20
-88.4
11
156.82
21
-88.4
0
LINE
8
BLACK
6
CONTINUOUS
10
156.42
20
-91.8
11
156.42
21
-92.6
0
LINE
8
BLACK
6
CONTINUOUS
10
156.02
20
-92.2
11
156.82
21
-92.2
0
LINE
8
BLACK
6
CONTINUOUS
10
156.52
20
-84.5
11
156.52
21
-85.3
0
LINE
8
BLACK
6
CONTINUOUS
10
156.12
20
-84.9
11
156.92
21
-84.9
0
LINE
8
BLACK
6
CONTINUOUS
10
158
20
-95.575
11
158
21
-96.375
0
LINE
8
BLACK
6
CONTINUOUS
10
157.6
20
-95.975
11
158.4
21
-95.975
0
LINE
8
BLACK
6
CONTINUOUS
10
158
20
-98.115
11
158
21
-98.915
0
LINE
8
BLACK
6
CONTINUOUS
10
157.6
20
-98.515
11
158.4
21
-98.515
0
LINE
8
BLACK
6
CONTINUOUS
10
158
20
-100.655
11
158
21
-101.455
0
LINE
8
BLACK
6
CONTINUOUS
10
157.6
20
-101.055
11
158.4
21
-101.055
0
LINE
8
BLACK
6
CONTINUOUS
10
158
20
-103.195
11
158
21
-103.995
0
LINE
8
BLACK
6
CONTINUOUS
10
157.6
20
-103.595
11
158.4
21
-103.595
0
LINE
8
BLACK
6
CONTINUOUS
10
158
20
-105.735
11
158
21
-106.535
0
LINE
8
BLACK
6
CONTINUOUS
10
157.6
20
-106.135
11
158.4
21
-106.135
0
LINE
8
BLACK
6
CONTINUOUS
10
158
20
-108.275
11
158
21
-109.075
0
LINE
8
BLACK
6
CONTINUOUS
10
157.6
20
-108.675
11
158.4
21
-108.675
0
LINE
8
BLACK
6
CONTINUOUS
10
158
20
-110.815
11
158
21
-111.615
0
LINE
8
BLACK
6
CONTINUOUS
10
157.6
20
-111.215
11
158.4
21
-111.215
0
LINE
8
BLACK
6
CONTINUOUS
10
165.62
20
-95.575
11
165.62
21
-96.375
0
LINE
8
BLACK
6
CONTINUOUS
10
165.22
20
-95.975
11
166.02
21
-95.975
0
LINE
8
BLACK
6
CONTINUOUS
10
165.62
20
-98.115
11
165.62
21
-98.915
0
LINE
8
BLACK
6
CONTINUOUS
10
165.22
20
-98.515
11
166.02
21
-98.515
0
LINE
8
BLACK
6
CONTINUOUS
10
165.62
20
-100.655
11
165.62
21
-101.455
0
LINE
8
BLACK
6
CONTINUOUS
10
165.22
20
-101.055
11
166.02
21
-101.055
0
LINE
8
BLACK
6
CONTINUOUS
10
165.62
20
-103.195
11
165.62
21
-103.995
0
LINE
8
BLACK
6
CONTINUOUS
10
165.22
20
-103.595
11
166.02
21
-103.595
0
LINE
8
BLACK
6
CONTINUOUS
10
165.62
20
-105.735
11
165.62
21
-106.535
0
LINE
8
BLACK
6
CONTINUOUS
10
165.22
20
-106.135
11
166.02
21
-106.135
0
LINE
8
BLACK
6
CONTINUOUS
10
165.62
20
-108.275
11
165.62
21
-109.075
0
LINE
8
BLACK
6
CONTINUOUS
10
165.22
20
-108.675
11
166.02
21
-108.675
0
LINE
8
BLACK
6
CONTINUOUS
10
165.62
20
-110.815
11
165.62
21
-111.615
0
LINE
8
BLACK
6
CONTINUOUS
10
165.22
20
-111.215
11
166.02
21
-111.215
0
LINE
8
BLACK
6
CONTINUOUS
10
166.58
20
-88
11
166.58
21
-88.8
0
LINE
8
BLACK
6
CONTINUOUS
10
166.18
20
-88.4
11
166.98
21
-88.4
0
LINE
8
BLACK
6
CONTINUOUS
10
166.58
20
-91.8
11
166.58
21
-92.6
0
LINE
8
BLACK
6
CONTINUOUS
10
166.18
20
-92.2
11
166.98
21
-92.2
0
LINE
8
BLACK
6
CONTINUOUS
10
166.68
20
-84.5
11
166.68
21
-85.3
0
LINE
8
BLACK
6
CONTINUOUS
10
166.28
20
-84.9
11
167.08
21
-84.9
0
LINE
8
BLACK
6
CONTINUOUS
10
168.42
20
-112
11
168.42
21
-112.8
0
LINE
8
BLACK
6
CONTINUOUS
10
168.02
20
-112.4
11
168.82
21
-112.4
0
LINE
8
BLACK
6
CONTINUOUS
10
169.2
20
-71.32
11
169.2
21
-72.12
0
LINE
8
BLACK
6
CONTINUOUS
10
168.8
20
-71.72
11
169.6
21
-71.72
0
LINE
8
BLACK
6
CONTINUOUS
10
169.2
20
-81.48
11
169.2
21
-82.28
0
LINE
8
BLACK
6
CONTINUOUS
10
168.8
20
-81.88
11
169.6
21
-81.88
0
LINE
8
BLACK
6
CONTINUOUS
10
170.52
20
-85.2
11
170.52
21
-86
0
LINE
8
BLACK
6
CONTINUOUS
10
170.12
20
-85.6
11
170.92
21
-85.6
0
LINE
8
BLACK
6
CONTINUOUS
10
170.52
20
-89.4
11
170.52
21
-90.2
0
LINE
8
BLACK
6
CONTINUOUS
10
170.12
20
-89.8
11
170.92
21
-89.8
0
LINE
8
BLACK
6
CONTINUOUS
10
170.52
20
-93.4
11
170.52
21
-94.2
0
LINE
8
BLACK
6
CONTINUOUS
10
170.12
20
-93.8
11
170.92
21
-93.8
0
LINE
8
BLACK
6
CONTINUOUS
10
178.58
20
-112
11
178.58
21
-112.8
0
LINE
8
BLACK
6
CONTINUOUS
10
178.18
20
-112.4
11
178.98
21
-112.4
0
LINE
8
BLACK
6
CONTINUOUS
10
180.68
20
-85.2
11
180.68
21
-86
0
LINE
8
BLACK
6
CONTINUOUS
10
180.28
20
-85.6
11
181.08
21
-85.6
0
LINE
8
BLACK
6
CONTINUOUS
10
180.68
20
-89.4
11
180.68
21
-90.2
0
LINE
8
BLACK
6
CONTINUOUS
10
180.28
20
-89.8
11
181.08
21
-89.8
0
LINE
8
BLACK
6
CONTINUOUS
10
180.68
20
-93.4
11
180.68
21
-94.2
0
LINE
8
BLACK
6
CONTINUOUS
10
180.28
20
-93.8
11
181.08
21
-93.8
0
LINE
8
BLACK
6
CONTINUOUS
10
107.543
20
-73.5682
11
107.543
21
-72.9318
0
LINE
8
BLACK
6
CONTINUOUS
10
107.543
20
-72.9318
11
106.907
21
-72.9318
0
LINE
8
BLACK
6
CONTINUOUS
10
106.907
20
-72.9318
11
106.907
21
-73.5682
0
LINE
8
BLACK
6
CONTINUOUS
10
106.907
20
-73.5682
11
107.543
21
-73.5682
0
LINE
8
BLACK
6
CONTINUOUS
10
110.083
20
-73.5682
11
110.083
21
-72.9318
0
LINE
8
BLACK
6
CONTINUOUS
10
110.083
20
-72.9318
11
109.447
21
-72.9318
0
LINE
8
BLACK
6
CONTINUOUS
10
109.447
20
-72.9318
11
109.447
21
-73.5682
0
LINE
8
BLACK
6
CONTINUOUS
10
109.447
20
-73.5682
11
110.083
21
-73.5682
0
LINE
8
BLACK
6
CONTINUOUS
10
118.268
20
-73.6682
11
118.268
21
-73.0318
0
LINE
8
BLACK
6
CONTINUOUS
10
118.268
20
-73.0318
11
117.632
21
-73.0318
0
LINE
8
BLACK
6
CONTINUOUS
10
117.632
20
-73.0318
11
117.632
21
-73.6682
0
LINE
8
BLACK
6
CONTINUOUS
10
117.632
20
-73.6682
11
118.268
21
-73.6682
0
LINE
8
BLACK
6
CONTINUOUS
10
120.808
20
-73.6682
11
120.808
21
-73.0318
0
LINE
8
BLACK
6
CONTINUOUS
10
120.808
20
-73.0318
11
120.172
21
-73.0318
0
LINE
8
BLACK
6
CONTINUOUS
10
120.172
20
-73.0318
11
120.172
21
-73.6682
0
LINE
8
BLACK
6
CONTINUOUS
10
120.172
20
-73.6682
11
120.808
21
-73.6682
0
LINE
8
BLACK
6
CONTINUOUS
10
129.168
20
-73.5682
11
129.168
21
-72.9318
0
LINE
8
BLACK
6
CONTINUOUS
10
129.168
20
-72.9318
11
128.532
21
-72.9318
0
LINE
8
BLACK
6
CONTINUOUS
10
128.532
20
-72.9318
11
128.532
21
-73.5682
0
LINE
8
BLACK
6
CONTINUOUS
10
128.532
20
-73.5682
11
129.168
21
-73.5682
0
LINE
8
BLACK
6
CONTINUOUS
10
131.708
20
-73.5682
11
131.708
21
-72.9318
0
LINE
8
BLACK
6
CONTINUOUS
10
131.708
20
-72.9318
11
131.072
21
-72.9318
0
LINE
8
BLACK
6
CONTINUOUS
10
131.072
20
-72.9318
11
131.072
21
-73.5682
0
LINE
8
BLACK
6
CONTINUOUS
10
131.072
20
-73.5682
11
131.708
21
-73.5682
0
LINE
8
BLACK
6
CONTINUOUS
10
103.9
20
-107.96
11
104.4
21
-107.46
0
LINE
8
BLACK
6
CONTINUOUS
10
104.4
20
-107.46
11
103.9
21
-106.96
0
LINE
8
BLACK
6
CONTINUOUS
10
103.9
20
-106.96
11
103.4
21
-107.46
0
LINE
8
BLACK
6
CONTINUOUS
10
103.4
20
-107.46
11
103.9
21
-107.96
0
LINE
8
BLACK
6
CONTINUOUS
10
103.9
20
-110.5
11
104.4
21
-110
0
LINE
8
BLACK
6
CONTINUOUS
10
104.4
20
-110
11
103.9
21
-109.5
0
LINE
8
BLACK
6
CONTINUOUS
10
103.9
20
-109.5
11
103.4
21
-110
0
LINE
8
BLACK
6
CONTINUOUS
10
103.4
20
-110
11
103.9
21
-110.5
0
LINE
8
BLACK
6
CONTINUOUS
10
107.635
20
-69.8
11
108.135
21
-69.3
0
LINE
8
BLACK
6
CONTINUOUS
10
108.135
20
-69.3
11
107.635
21
-68.8
0
LINE
8
BLACK
6
CONTINUOUS
10
107.635
20
-68.8
11
107.135
21
-69.3
0
LINE
8
BLACK
6
CONTINUOUS
10
107.135
20
-69.3
11
107.635
21
-69.8
0
LINE
8
BLACK
6
CONTINUOUS
10
110.175
20
-69.8
11
110.675
21
-69.3
0
LINE
8
BLACK
6
CONTINUOUS
10
110.675
20
-69.3
11
110.175
21
-68.8
0
LINE
8
BLACK
6
CONTINUOUS
10
110.175
20
-68.8
11
109.675
21
-69.3
0
LINE
8
BLACK
6
CONTINUOUS
10
109.675
20
-69.3
11
110.175
21
-69.8
0
LINE
8
BLACK
6
CONTINUOUS
10
117.86
20
-69.8
11
118.36
21
-69.3
0
LINE
8
BLACK
6
CONTINUOUS
10
118.36
20
-69.3
11
117.86
21
-68.8
0
LINE
8
BLACK
6
CONTINUOUS
10
117.86
20
-68.8
11
117.36
21
-69.3
0
LINE
8
BLACK
6
CONTINUOUS
10
117.36
20
-69.3
11
117.86
21
-69.8
0
LINE
8
BLACK
6
CONTINUOUS
10
120.4
20
-69.8
11
120.9
21
-69.3
0
LINE
8
BLACK
6
CONTINUOUS
10
120.9
20
-69.3
11
120.4
21
-68.8
0
LINE
8
BLACK
6
CONTINUOUS
10
120.4
20
-68.8
11
119.9
21
-69.3
0
LINE
8
BLACK
6
CONTINUOUS
10
119.9
20
-69.3
11
120.4
21
-69.8
0
LINE
8
BLACK
6
CONTINUOUS
10
128.86
20
-69.8
11
129.36
21
-69.3
0
LINE
8
BLACK
6
CONTINUOUS
10
129.36
20
-69.3
11
128.86
21
-68.8
0
LINE
8
BLACK
6
CONTINUOUS
10
128.86
20
-68.8
11
128.36
21
-69.3
0
LINE
8
BLACK
6
CONTINUOUS
10
128.36
20
-69.3
11
128.86
21
-69.8
0
LINE
8
BLACK
6
CONTINUOUS
10
131.4
20
-69.8
11
131.9
21
-69.3
0
LINE
8
BLACK
6
CONTINUOUS
10
131.9
20
-69.3
11
131.4
21
-68.8
0
LINE
8
BLACK
6
CONTINUOUS
10
131.4
20
-68.8
11
130.9
21
-69.3
0
LINE
8
BLACK
6
CONTINUOUS
10
130.9
20
-69.3
11
131.4
21
-69.8
0
LINE
8
BLACK
6
CONTINUOUS
10
142.2
20
-70.575
11
142.7
21
-70.075
0
LINE
8
BLACK
6
CONTINUOUS
10
142.7
20
-70.075
11
142.2
21
-69.575
0
LINE
8
BLACK
6
CONTINUOUS
10
142.2
20
-69.575
11
141.7
21
-70.075
0
LINE
8
BLACK
6
CONTINUOUS
10
141.7
20
-70.075
11
142.2
21
-70.575
0
LINE
8
BLACK
6
CONTINUOUS
10
144.7
20
-70.575
11
145.2
21
-70.075
0
LINE
8
BLACK
6
CONTINUOUS
10
145.2
20
-70.075
11
144.7
21
-69.575
0
LINE
8
BLACK
6
CONTINUOUS
10
144.7
20
-69.575
11
144.2
21
-70.075
0
LINE
8
BLACK
6
CONTINUOUS
10
144.2
20
-70.075
11
144.7
21
-70.575
0
LINE
8
BLACK
6
CONTINUOUS
10
144.7
20
-75.575
11
145.2
21
-75.075
0
LINE
8
BLACK
6
CONTINUOUS
10
145.2
20
-75.075
11
144.7
21
-74.575
0
LINE
8
BLACK
6
CONTINUOUS
10
144.7
20
-74.575
11
144.2
21
-75.075
0
LINE
8
BLACK
6
CONTINUOUS
10
144.2
20
-75.075
11
144.7
21
-75.575
0
LINE
8
BLACK
6
CONTINUOUS
10
147.2
20
-70.575
11
147.7
21
-70.075
0
LINE
8
BLACK
6
CONTINUOUS
10
147.7
20
-70.075
11
147.2
21
-69.575
0
LINE
8
BLACK
6
CONTINUOUS
10
147.2
20
-69.575
11
146.7
21
-70.075
0
LINE
8
BLACK
6
CONTINUOUS
10
146.7
20
-70.075
11
147.2
21
-70.575
0
LINE
8
BLACK
6
CONTINUOUS
10
158.525
20
-70.575
11
159.025
21
-70.075
0
LINE
8
BLACK
6
CONTINUOUS
10
159.025
20
-70.075
11
158.525
21
-69.575
0
LINE
8
BLACK
6
CONTINUOUS
10
158.525
20
-69.575
11
158.025
21
-70.075
0
LINE
8
BLACK
6
CONTINUOUS
10
158.025
20
-70.075
11
158.525
21
-70.575
0
LINE
8
BLACK
6
CONTINUOUS
10
161.025
20
-70.575
11
161.525
21
-70.075
0
LINE
8
BLACK
6
CONTINUOUS
10
161.525
20
-70.075
11
161.025
21
-69.575
0
LINE
8
BLACK
6
CONTINUOUS
10
161.025
20
-69.575
11
160.525
21
-70.075
0
LINE
8
BLACK
6
CONTINUOUS
10
160.525
20
-70.075
11
161.025
21
-70.575
0
LINE
8
BLACK
6
CONTINUOUS
10
161.025
20
-75.575
11
161.525
21
-75.075
0
LINE
8
BLACK
6
CONTINUOUS
10
161.525
20
-75.075
11
161.025
21
-74.575
0
LINE
8
BLACK
6
CONTINUOUS
10
161.025
20
-74.575
11
160.525
21
-75.075
0
LINE
8
BLACK
6
CONTINUOUS
10
160.525
20
-75.075
11
161.025
21
-75.575
0
LINE
8
BLACK
6
CONTINUOUS
10
163.525
20
-70.575
11
164.025
21
-70.075
0
LINE
8
BLACK
6
CONTINUOUS
10
164.025
20
-70.075
11
163.525
21
-69.575
0
LINE
8
BLACK
6
CONTINUOUS
10
163.525
20
-69.575
11
163.025
21
-70.075
0
LINE
8
BLACK
6
CONTINUOUS
10
163.025
20
-70.075
11
163.525
21
-70.575
0
LINE
8
BLACK
6
CONTINUOUS
10
173
20
-98.575
11
173.5
21
-98.075
0
LINE
8
BLACK
6
CONTINUOUS
10
173.5
20
-98.075
11
173
21
-97.575
0
LINE
8
BLACK
6
CONTINUOUS
10
173
20
-97.575
11
172.5
21
-98.075
0
LINE
8
BLACK
6
CONTINUOUS
10
172.5
20
-98.075
11
173
21
-98.575
0
LINE
8
BLACK
6
CONTINUOUS
10
174.8
20
-70.575
11
175.3
21
-70.075
0
LINE
8
BLACK
6
CONTINUOUS
10
175.3
20
-70.075
11
174.8
21
-69.575
0
LINE
8
BLACK
6
CONTINUOUS
10
174.8
20
-69.575
11
174.3
21
-70.075
0
LINE
8
BLACK
6
CONTINUOUS
10
174.3
20
-70.075
11
174.8
21
-70.575
0
LINE
8
BLACK
6
CONTINUOUS
10
175.5
20
-98.575
11
176
21
-98.075
0
LINE
8
BLACK
6
CONTINUOUS
10
176
20
-98.075
11
175.5
21
-97.575
0
LINE
8
BLACK
6
CONTINUOUS
10
175.5
20
-97.575
11
175
21
-98.075
0
LINE
8
BLACK
6
CONTINUOUS
10
175
20
-98.075
11
175.5
21
-98.575
0
LINE
8
BLACK
6
CONTINUOUS
10
175.5
20
-103.575
11
176
21
-103.075
0
LINE
8
BLACK
6
CONTINUOUS
10
176
20
-103.075
11
175.5
21
-102.575
0
LINE
8
BLACK
6
CONTINUOUS
10
175.5
20
-102.575
11
175
21
-103.075
0
LINE
8
BLACK
6
CONTINUOUS
10
175
20
-103.075
11
175.5
21
-103.575
0
LINE
8
BLACK
6
CONTINUOUS
10
177.3
20
-70.575
11
177.8
21
-70.075
0
LINE
8
BLACK
6
CONTINUOUS
10
177.8
20
-70.075
11
177.3
21
-69.575
0
LINE
8
BLACK
6
CONTINUOUS
10
177.3
20
-69.575
11
176.8
21
-70.075
0
LINE
8
BLACK
6
CONTINUOUS
10
176.8
20
-70.075
11
177.3
21
-70.575
0
LINE
8
BLACK
6
CONTINUOUS
10
177.3
20
-75.575
11
177.8
21
-75.075
0
LINE
8
BLACK
6
CONTINUOUS
10
177.8
20
-75.075
11
177.3
21
-74.575
0
LINE
8
BLACK
6
CONTINUOUS
10
177.3
20
-74.575
11
176.8
21
-75.075
0
LINE
8
BLACK
6
CONTINUOUS
10
176.8
20
-75.075
11
177.3
21
-75.575
0
LINE
8
BLACK
6
CONTINUOUS
10
178
20
-98.575
11
178.5
21
-98.075
0
LINE
8
BLACK
6
CONTINUOUS
10
178.5
20
-98.075
11
178
21
-97.575
0
LINE
8
BLACK
6
CONTINUOUS
10
178
20
-97.575
11
177.5
21
-98.075
0
LINE
8
BLACK
6
CONTINUOUS
10
177.5
20
-98.075
11
178
21
-98.575
0
LINE
8
BLACK
6
CONTINUOUS
10
179.8
20
-70.575
11
180.3
21
-70.075
0
LINE
8
BLACK
6
CONTINUOUS
10
180.3
20
-70.075
11
179.8
21
-69.575
0
LINE
8
BLACK
6
CONTINUOUS
10
179.8
20
-69.575
11
179.3
21
-70.075
0
LINE
8
BLACK
6
CONTINUOUS
10
179.3
20
-70.075
11
179.8
21
-70.575
0
LINE
8
BLACK
6
CONTINUOUS
10
184.5
20
-107.96
11
185
21
-107.46
0
LINE
8
BLACK
6
CONTINUOUS
10
185
20
-107.46
11
184.5
21
-106.96
0
LINE
8
BLACK
6
CONTINUOUS
10
184.5
20
-106.96
11
184
21
-107.46
0
LINE
8
BLACK
6
CONTINUOUS
10
184
20
-107.46
11
184.5
21
-107.96
0
LINE
8
BLACK
6
CONTINUOUS
10
184.5
20
-110.5
11
185
21
-110
0
LINE
8
BLACK
6
CONTINUOUS
10
185
20
-110
11
184.5
21
-109.5
0
LINE
8
BLACK
6
CONTINUOUS
10
184.5
20
-109.5
11
184
21
-110
0
LINE
8
BLACK
6
CONTINUOUS
10
184
20
-110
11
184.5
21
-110.5
0
LINE
8
BLACK
6
CONTINUOUS
10
185.5
20
-76.9
11
186
21
-76.4
0
LINE
8
BLACK
6
CONTINUOUS
10
186
20
-76.4
11
185.5
21
-75.9
0
LINE
8
BLACK
6
CONTINUOUS
10
185.5
20
-75.9
11
185
21
-76.4
0
LINE
8
BLACK
6
CONTINUOUS
10
185
20
-76.4
11
185.5
21
-76.9
0
LINE
8
BLACK
6
CONTINUOUS
10
185.5
20
-79.44
11
186
21
-78.94
0
LINE
8
BLACK
6
CONTINUOUS
10
186
20
-78.94
11
185.5
21
-78.44
0
LINE
8
BLACK
6
CONTINUOUS
10
185.5
20
-78.44
11
185
21
-78.94
0
LINE
8
BLACK
6
CONTINUOUS
10
185
20
-78.94
11
185.5
21
-79.44
0
LINE
8
BLACK
6
CONTINUOUS
10
185.5
20
-84.46
11
186
21
-83.96
0
LINE
8
BLACK
6
CONTINUOUS
10
186
20
-83.96
11
185.5
21
-83.46
0
LINE
8
BLACK
6
CONTINUOUS
10
185.5
20
-83.46
11
185
21
-83.96
0
LINE
8
BLACK
6
CONTINUOUS
10
185
20
-83.96
11
185.5
21
-84.46
0
LINE
8
BLACK
6
CONTINUOUS
10
185.5
20
-87
11
186
21
-86.5
0
LINE
8
BLACK
6
CONTINUOUS
10
186
20
-86.5
11
185.5
21
-86
0
LINE
8
BLACK
6
CONTINUOUS
10
185.5
20
-86
11
185
21
-86.5
0
LINE
8
BLACK
6
CONTINUOUS
10
185
20
-86.5
11
185.5
21
-87
0
LINE
8
BLACK
6
CONTINUOUS
10
185.5
20
-92.1
11
186
21
-91.6
0
LINE
8
BLACK
6
CONTINUOUS
10
186
20
-91.6
11
185.5
21
-91.1
0
LINE
8
BLACK
6
CONTINUOUS
10
185.5
20
-91.1
11
185
21
-91.6
0
LINE
8
BLACK
6
CONTINUOUS
10
185
20
-91.6
11
185.5
21
-92.1
0
LINE
8
BLACK
6
CONTINUOUS
10
185.5
20
-94.64
11
186
21
-94.14
0
LINE
8
BLACK
6
CONTINUOUS
10
186
20
-94.14
11
185.5
21
-93.64
0
LINE
8
BLACK
6
CONTINUOUS
10
185.5
20
-93.64
11
185
21
-94.14
0
LINE
8
BLACK
6
CONTINUOUS
10
185
20
-94.14
11
185.5
21
-94.64
0
LINE
8
BLACK
6
CONTINUOUS
10
185.5
20
-99.76
11
186
21
-99.26
0
LINE
8
BLACK
6
CONTINUOUS
10
186
20
-99.26
11
185.5
21
-98.76
0
LINE
8
BLACK
6
CONTINUOUS
10
185.5
20
-98.76
11
185
21
-99.26
0
LINE
8
BLACK
6
CONTINUOUS
10
185
20
-99.26
11
185.5
21
-99.76
0
LINE
8
BLACK
6
CONTINUOUS
10
185.5
20
-102.3
11
186
21
-101.8
0
LINE
8
BLACK
6
CONTINUOUS
10
186
20
-101.8
11
185.5
21
-101.3
0
LINE
8
BLACK
6
CONTINUOUS
10
185.5
20
-101.3
11
185
21
-101.8
0
LINE
8
BLACK
6
CONTINUOUS
10
185
20
-101.8
11
185.5
21
-102.3
0
LINE
8
BLACK
6
CONTINUOUS
10
139.25
20
-76.925
11
140.55
21
-78.225
0
LINE
8
BLACK
6
CONTINUOUS
10
140.55
20
-76.925
11
139.25
21
-78.225
0
CIRCLE
8
BLACK
10
139.9
20
-77.575
40
0.65
0
LINE
8
BLACK
6
CONTINUOUS
10
139.25
20
-77.325
11
139.25
21
-77.825
0
LINE
8
BLACK
6
CONTINUOUS
10
140.55
20
-77.325
11
140.55
21
-77.825
0
ARC
8
BLACK
10
139.9
20
-77.825
40
0.65
50
180
51
360
0
ARC
8
BLACK
10
139.9
20
-77.325
40
0.65
50
0
51
180
0
LINE
8
BLACK
6
CONTINUOUS
10
148.85
20
-76.925
11
150.15
21
-78.225
0
LINE
8
BLACK
6
CONTINUOUS
10
150.15
20
-76.925
11
148.85
21
-78.225
0
CIRCLE
8
BLACK
10
149.5
20
-77.575
40
0.65
0
LINE
8
BLACK
6
CONTINUOUS
10
148.85
20
-77.325
11
148.85
21
-77.825
0
LINE
8
BLACK
6
CONTINUOUS
10
150.15
20
-77.325
11
150.15
21
-77.825
0
ARC
8
BLACK
10
149.5
20
-77.825
40
0.65
50
180
51
360
0
ARC
8
BLACK
10
149.5
20
-77.325
40
0.65
50
0
51
180
0
LINE
8
BLACK
6
CONTINUOUS
10
155.575
20
-76.925
11
156.875
21
-78.225
0
LINE
8
BLACK
6
CONTINUOUS
10
156.875
20
-76.925
11
155.575
21
-78.225
0
CIRCLE
8
BLACK
10
156.225
20
-77.575
40
0.65
0
LINE
8
BLACK
6
CONTINUOUS
10
155.575
20
-77.325
11
155.575
21
-77.825
0
LINE
8
BLACK
6
CONTINUOUS
10
156.875
20
-77.325
11
156.875
21
-77.825
0
ARC
8
BLACK
10
156.225
20
-77.825
40
0.65
50
180
51
360
0
ARC
8
BLACK
10
156.225
20
-77.325
40
0.65
50
0
51
180
0
LINE
8
BLACK
6
CONTINUOUS
10
165.175
20
-76.925
11
166.475
21
-78.225
0
LINE
8
BLACK
6
CONTINUOUS
10
166.475
20
-76.925
11
165.175
21
-78.225
0
CIRCLE
8
BLACK
10
165.825
20
-77.575
40
0.65
0
LINE
8
BLACK
6
CONTINUOUS
10
165.175
20
-77.325
11
165.175
21
-77.825
0
LINE
8
BLACK
6
CONTINUOUS
10
166.475
20
-77.325
11
166.475
21
-77.825
0
ARC
8
BLACK
10
165.825
20
-77.825
40
0.65
50
180
51
360
0
ARC
8
BLACK
10
165.825
20
-77.325
40
0.65
50
0
51
180
0
LINE
8
BLACK
6
CONTINUOUS
10
170.05
20
-104.925
11
171.35
21
-106.225
0
LINE
8
BLACK
6
CONTINUOUS
10
171.35
20
-104.925
11
170.05
21
-106.225
0
CIRCLE
8
BLACK
10
170.7
20
-105.575
40
0.65
0
LINE
8
BLACK
6
CONTINUOUS
10
170.05
20
-105.325
11
170.05
21
-105.825
0
LINE
8
BLACK
6
CONTINUOUS
10
171.35
20
-105.325
11
171.35
21
-105.825
0
ARC
8
BLACK
10
170.7
20
-105.825
40
0.65
50
180
51
360
0
ARC
8
BLACK
10
170.7
20
-105.325
40
0.65
50
0
51
180
0
LINE
8
BLACK
6
CONTINUOUS
10
171.85
20
-76.925
11
173.15
21
-78.225
0
LINE
8
BLACK
6
CONTINUOUS
10
173.15
20
-76.925
11
171.85
21
-78.225
0
CIRCLE
8
BLACK
10
172.5
20
-77.575
40
0.65
0
LINE
8
BLACK
6
CONTINUOUS
10
171.85
20
-77.325
11
171.85
21
-77.825
0
LINE
8
BLACK
6
CONTINUOUS
10
173.15
20
-77.325
11
173.15
21
-77.825
0
ARC
8
BLACK
10
172.5
20
-77.825
40
0.65
50
180
51
360
0
ARC
8
BLACK
10
172.5
20
-77.325
40
0.65
50
0
51
180
0
LINE
8
BLACK
6
CONTINUOUS
10
179.65
20
-104.925
11
180.95
21
-106.225
0
LINE
8
BLACK
6
CONTINUOUS
10
180.95
20
-104.925
11
179.65
21
-106.225
0
CIRCLE
8
BLACK
10
180.3
20
-105.575
40
0.65
0
LINE
8
BLACK
6
CONTINUOUS
10
179.65
20
-105.325
11
179.65
21
-105.825
0
LINE
8
BLACK
6
CONTINUOUS
10
180.95
20
-105.325
11
180.95
21
-105.825
0
ARC
8
BLACK
10
180.3
20
-105.825
40
0.65
50
180
51
360
0
ARC
8
BLACK
10
180.3
20
-105.325
40
0.65
50
0
51
180
0
LINE
8
BLACK
6
CONTINUOUS
10
181.45
20
-76.925
11
182.75
21
-78.225
0
LINE
8
BLACK
6
CONTINUOUS
10
182.75
20
-76.925
11
181.45
21
-78.225
0
CIRCLE
8
BLACK
10
182.1
20
-77.575
40
0.65
0
LINE
8
BLACK
6
CONTINUOUS
10
181.45
20
-77.325
11
181.45
21
-77.825
0
LINE
8
BLACK
6
CONTINUOUS
10
182.75
20
-77.325
11
182.75
21
-77.825
0
ARC
8
BLACK
10
182.1
20
-77.825
40
0.65
50
180
51
360
0
ARC
8
BLACK
10
182.1
20
-77.325
40
0.65
50
0
51
180
0
LINE
8
BLACK
6
CONTINUOUS
10
101.3
20
-68.8
11
104.5
21
-72
0
LINE
8
BLACK
6
CONTINUOUS
10
104.5
20
-68.8
11
101.3
21
-72
0
LINE
8
BLACK
6
CONTINUOUS
10
102.9
20
-68.8
11
102.9
21
-72
0
LINE
8
BLACK
6
CONTINUOUS
10
101.3
20
-70.4
11
104.5
21
-70.4
0
LINE
8
BLACK
6
CONTINUOUS
10
101.3
20
-113.4
11
104.5
21
-116.6
0
LINE
8
BLACK
6
CONTINUOUS
10
104.5
20
-113.4
11
101.3
21
-116.6
0
LINE
8
BLACK
6
CONTINUOUS
10
102.9
20
-113.4
11
102.9
21
-116.6
0
LINE
8
BLACK
6
CONTINUOUS
10
101.3
20
-115
11
104.5
21
-115
0
LINE
8
BLACK
6
CONTINUOUS
10
183.9
20
-68.8
11
187.1
21
-72
0
LINE
8
BLACK
6
CONTINUOUS
10
187.1
20
-68.8
11
183.9
21
-72
0
LINE
8
BLACK
6
CONTINUOUS
10
185.5
20
-68.8
11
185.5
21
-72
0
LINE
8
BLACK
6
CONTINUOUS
10
183.9
20
-70.4
11
187.1
21
-70.4
0
LINE
8
BLACK
6
CONTINUOUS
10
183.9
20
-113.4
11
187.1
21
-116.6
0
LINE
8
BLACK
6
CONTINUOUS
10
187.1
20
-113.4
11
183.9
21
-116.6
0
LINE
8
BLACK
6
CONTINUOUS
10
185.5
20
-113.4
11
185.5
21
-116.6
0
LINE
8
BLACK
6
CONTINUOUS
10
183.9
20
-115
11
187.1
21
-115
0
LINE
8
BLACK
6
CONTINUOUS
10
102.426
20
-121.155
11
102.426
21
-119.155
0
LINE
8
BLACK
6
CONTINUOUS
10
102.426
20
-119.155
11
102.902
21
-119.155
0
LINE
8
BLACK
6
CONTINUOUS
10
102.902
20
-119.155
11
103.188
21
-119.25
0
LINE
8
BLACK
6
CONTINUOUS
10
103.188
20
-119.25
11
103.379
21
-119.44
0
LINE
8
BLACK
6
CONTINUOUS
10
103.379
20
-119.44
11
103.474
21
-119.631
0
LINE
8
BLACK
6
CONTINUOUS
10
103.474
20
-119.631
11
103.569
21
-120.012
0
LINE
8
BLACK
6
CONTINUOUS
10
103.569
20
-120.012
11
103.569
21
-120.298
0
LINE
8
BLACK
6
CONTINUOUS
10
103.569
20
-120.298
11
103.474
21
-120.679
0
LINE
8
BLACK
6
CONTINUOUS
10
103.474
20
-120.679
11
103.379
21
-120.869
0
LINE
8
BLACK
6
CONTINUOUS
10
103.379
20
-120.869
11
103.188
21
-121.06
0
LINE
8
BLACK
6
CONTINUOUS
10
103.188
20
-121.06
11
102.902
21
-121.155
0
LINE
8
BLACK
6
CONTINUOUS
10
102.902
20
-121.155
11
102.426
21
-121.155
0
LINE
8
BLACK
6
CONTINUOUS
10
104.426
20
-121.155
11
104.426
21
-119.821
0
LINE
8
BLACK
6
CONTINUOUS
10
104.426
20
-120.202
11
104.521
21
-120.012
0
LINE
8
BLACK
6
CONTINUOUS
10
104.521
20
-120.012
11
104.617
21
-119.917
0
LINE
8
BLACK
6
CONTINUOUS
10
104.617
20
-119.917
11
104.807
21
-119.821
0
LINE
8
BLACK
6
CONTINUOUS
10
104.807
20
-119.821
11
104.998
21
-119.821
0
LINE
8
BLACK
6
CONTINUOUS
10
105.664
20
-121.155
11
105.664
21
-119.821
0
LINE
8
BLACK
6
CONTINUOUS
10
105.664
20
-119.155
11
105.569
21
-119.25
0
LINE
8
BLACK
6
CONTINUOUS
10
105.569
20
-119.25
11
105.664
21
-119.345
0
LINE
8
BLACK
6
CONTINUOUS
10
105.664
20
-119.345
11
105.76
21
-119.25
0
LINE
8
BLACK
6
CONTINUOUS
10
105.76
20
-119.25
11
105.664
21
-119.155
0
LINE
8
BLACK
6
CONTINUOUS
10
105.664
20
-119.155
11
105.664
21
-119.345
0
LINE
8
BLACK
6
CONTINUOUS
10
106.902
20
-121.155
11
106.712
21
-121.06
0
LINE
8
BLACK
6
CONTINUOUS
10
106.712
20
-121.06
11
106.617
21
-120.869
0
LINE
8
BLACK
6
CONTINUOUS
10
106.617
20
-120.869
11
106.617
21
-119.155
0
LINE
8
BLACK
6
CONTINUOUS
10
107.95
20
-121.155
11
107.76
21
-121.06
0
LINE
8
BLACK
6
CONTINUOUS
10
107.76
20
-121.06
11
107.664
21
-120.869
0
LINE
8
BLACK
6
CONTINUOUS
10
107.664
20
-120.869
11
107.664
21
-119.155
0
LINE
8
BLACK
6
CONTINUOUS
10
110.236
20
-121.155
11
110.236
21
-119.155
0
LINE
8
BLACK
6
CONTINUOUS
10
110.236
20
-119.155
11
110.902
21
-120.583
0
LINE
8
BLACK
6
CONTINUOUS
10
110.902
20
-120.583
11
111.569
21
-119.155
0
LINE
8
BLACK
6
CONTINUOUS
10
111.569
20
-119.155
11
111.569
21
-121.155
0
LINE
8
BLACK
6
CONTINUOUS
10
113.379
20
-121.155
11
113.379
21
-120.107
0
LINE
8
BLACK
6
CONTINUOUS
10
113.379
20
-120.107
11
113.283
21
-119.917
0
LINE
8
BLACK
6
CONTINUOUS
10
113.283
20
-119.917
11
113.093
21
-119.821
0
LINE
8
BLACK
6
CONTINUOUS
10
113.093
20
-119.821
11
112.712
21
-119.821
0
LINE
8
BLACK
6
CONTINUOUS
10
112.712
20
-119.821
11
112.521
21
-119.917
0
LINE
8
BLACK
6
CONTINUOUS
10
113.379
20
-121.06
11
113.188
21
-121.155
0
LINE
8
BLACK
6
CONTINUOUS
10
113.188
20
-121.155
11
112.712
21
-121.155
0
LINE
8
BLACK
6
CONTINUOUS
10
112.712
20
-121.155
11
112.521
21
-121.06
0
LINE
8
BLACK
6
CONTINUOUS
10
112.521
20
-121.06
11
112.426
21
-120.869
0
LINE
8
BLACK
6
CONTINUOUS
10
112.426
20
-120.869
11
112.426
21
-120.679
0
LINE
8
BLACK
6
CONTINUOUS
10
112.426
20
-120.679
11
112.521
21
-120.488
0
LINE
8
BLACK
6
CONTINUOUS
10
112.521
20
-120.488
11
112.712
21
-120.393
0
LINE
8
BLACK
6
CONTINUOUS
10
112.712
20
-120.393
11
113.188
21
-120.393
0
LINE
8
BLACK
6
CONTINUOUS
10
113.188
20
-120.393
11
113.379
21
-120.298
0
LINE
8
BLACK
6
CONTINUOUS
10
114.331
20
-119.821
11
114.331
21
-121.821
0
LINE
8
BLACK
6
CONTINUOUS
10
114.331
20
-119.917
11
114.521
21
-119.821
0
LINE
8
BLACK
6
CONTINUOUS
10
114.521
20
-119.821
11
114.902
21
-119.821
0
LINE
8
BLACK
6
CONTINUOUS
10
114.902
20
-119.821
11
115.093
21
-119.917
0
LINE
8
BLACK
6
CONTINUOUS
10
115.093
20
-119.917
11
115.188
21
-120.012
0
LINE
8
BLACK
6
CONTINUOUS
10
115.188
20
-120.012
11
115.283
21
-120.202
0
LINE
8
BLACK
6
CONTINUOUS
10
115.283
20
-120.202
11
115.283
21
-120.774
0
LINE
8
BLACK
6
CONTINUOUS
10
115.283
20
-120.774
11
115.188
21
-120.964
0
LINE
8
BLACK
6
CONTINUOUS
10
115.188
20
-120.964
11
115.093
21
-121.06
0
LINE
8
BLACK
6
CONTINUOUS
10
115.093
20
-121.06
11
114.902
21
-121.155
0
LINE
8
BLACK
6
CONTINUOUS
10
114.902
20
-121.155
11
114.521
21
-121.155
0
LINE
8
BLACK
6
CONTINUOUS
10
114.521
20
-121.155
11
114.331
21
-121.06
0
LINE
8
BLACK
6
CONTINUOUS
10
116.14
20
-120.964
11
116.236
21
-121.06
0
LINE
8
BLACK
6
CONTINUOUS
10
116.236
20
-121.06
11
116.14
21
-121.155
0
LINE
8
BLACK
6
CONTINUOUS
10
116.14
20
-121.155
11
116.045
21
-121.06
0
LINE
8
BLACK
6
CONTINUOUS
10
116.045
20
-121.06
11
116.14
21
-120.964
0
LINE
8
BLACK
6
CONTINUOUS
10
116.14
20
-120.964
11
116.14
21
-121.155
0
LINE
8
BLACK
6
CONTINUOUS
10
116.14
20
-119.917
11
116.236
21
-120.012
0
LINE
8
BLACK
6
CONTINUOUS
10
116.236
20
-120.012
11
116.14
21
-120.107
0
LINE
8
BLACK
6
CONTINUOUS
10
116.14
20
-120.107
11
116.045
21
-120.012
0
LINE
8
BLACK
6
CONTINUOUS
10
116.045
20
-120.012
11
116.14
21
-119.917
0
LINE
8
BLACK
6
CONTINUOUS
10
116.14
20
-119.917
11
116.14
21
-120.107
0
LINE
8
BLACK
6
CONTINUOUS
10
99.45
20
-124.25
11
99.85
21
-124.65
0
LINE
8
BLACK
6
CONTINUOUS
10
99.85
20
-124.25
11
99.45
21
-124.65
0
LINE
8
BLACK
6
CONTINUOUS
10
102.807
20
-123.355
11
102.998
21
-123.355
0
LINE
8
BLACK
6
CONTINUOUS
10
102.998
20
-123.355
11
103.188
21
-123.45
0
LINE
8
BLACK
6
CONTINUOUS
10
103.188
20
-123.45
11
103.283
21
-123.545
0
LINE
8
BLACK
6
CONTINUOUS
10
103.283
20
-123.545
11
103.379
21
-123.736
0
LINE
8
BLACK
6
CONTINUOUS
10
103.379
20
-123.736
11
103.474
21
-124.117
0
LINE
8
BLACK
6
CONTINUOUS
10
103.474
20
-124.117
11
103.474
21
-124.593
0
LINE
8
BLACK
6
CONTINUOUS
10
103.474
20
-124.593
11
103.379
21
-124.974
0
LINE
8
BLACK
6
CONTINUOUS
10
103.379
20
-124.974
11
103.283
21
-125.164
0
LINE
8
BLACK
6
CONTINUOUS
10
103.283
20
-125.164
11
103.188
21
-125.26
0
LINE
8
BLACK
6
CONTINUOUS
10
103.188
20
-125.26
11
102.998
21
-125.355
0
LINE
8
BLACK
6
CONTINUOUS
10
102.998
20
-125.355
11
102.807
21
-125.355
0
LINE
8
BLACK
6
CONTINUOUS
10
102.807
20
-125.355
11
102.617
21
-125.26
0
LINE
8
BLACK
6
CONTINUOUS
10
102.617
20
-125.26
11
102.521
21
-125.164
0
LINE
8
BLACK
6
CONTINUOUS
10
102.521
20
-125.164
11
102.426
21
-124.974
0
LINE
8
BLACK
6
CONTINUOUS
10
102.426
20
-124.974
11
102.331
21
-124.593
0
LINE
8
BLACK
6
CONTINUOUS
10
102.331
20
-124.593
11
102.331
21
-124.117
0
LINE
8
BLACK
6
CONTINUOUS
10
102.331
20
-124.117
11
102.426
21
-123.736
0
LINE
8
BLACK
6
CONTINUOUS
10
102.426
20
-123.736
11
102.521
21
-123.545
0
LINE
8
BLACK
6
CONTINUOUS
10
102.521
20
-123.545
11
102.617
21
-123.45
0
LINE
8
BLACK
6
CONTINUOUS
10
102.617
20
-123.45
11
102.807
21
-123.355
0
LINE
8
BLACK
6
CONTINUOUS
10
104.331
20
-125.164
11
104.426
21
-125.26
0
LINE
8
BLACK
6
CONTINUOUS
10
104.426
20
-125.26
11
104.331
21
-125.355
0
LINE
8
BLACK
6
CONTINUOUS
10
104.331
20
-125.355
11
104.236
21
-125.26
0
LINE
8
BLACK
6
CONTINUOUS
10
104.236
20
-125.26
11
104.331
21
-125.164
0
LINE
8
BLACK
6
CONTINUOUS
10
104.331
20
-125.164
11
104.331
21
-125.355
0
LINE
8
BLACK
6
CONTINUOUS
10
106.14
20
-124.021
11
106.14
21
-125.355
0
LINE
8
BLACK
6
CONTINUOUS
10
105.664
20
-123.26
11
105.188
21
-124.688
0
LINE
8
BLACK
6
CONTINUOUS
10
105.188
20
-124.688
11
106.426
21
-124.688
0
LINE
8
BLACK
6
CONTINUOUS
10
107.569
20
-123.355
11
107.76
21
-123.355
0
LINE
8
BLACK
6
CONTINUOUS
10
107.76
20
-123.355
11
107.95
21
-123.45
0
LINE
8
BLACK
6
CONTINUOUS
10
107.95
20
-123.45
11
108.045
21
-123.545
0
LINE
8
BLACK
6
CONTINUOUS
10
108.045
20
-123.545
11
108.14
21
-123.736
0
LINE
8
BLACK
6
CONTINUOUS
10
108.14
20
-123.736
11
108.236
21
-124.117
0
LINE
8
BLACK
6
CONTINUOUS
10
108.236
20
-124.117
11
108.236
21
-124.593
0
LINE
8
BLACK
6
CONTINUOUS
10
108.236
20
-124.593
11
108.14
21
-124.974
0
LINE
8
BLACK
6
CONTINUOUS
10
108.14
20
-124.974
11
108.045
21
-125.164
0
LINE
8
BLACK
6
CONTINUOUS
10
108.045
20
-125.164
11
107.95
21
-125.26
0
LINE
8
BLACK
6
CONTINUOUS
10
107.95
20
-125.26
11
107.76
21
-125.355
0
LINE
8
BLACK
6
CONTINUOUS
10
107.76
20
-125.355
11
107.569
21
-125.355
0
LINE
8
BLACK
6
CONTINUOUS
10
107.569
20
-125.355
11
107.379
21
-125.26
0
LINE
8
BLACK
6
CONTINUOUS
10
107.379
20
-125.26
11
107.283
21
-125.164
0
LINE
8
BLACK
6
CONTINUOUS
10
107.283
20
-125.164
11
107.188
21
-124.974
0
LINE
8
BLACK
6
CONTINUOUS
10
107.188
20
-124.974
11
107.093
21
-124.593
0
LINE
8
BLACK
6
CONTINUOUS
10
107.093
20
-124.593
11
107.093
21
-124.117
0
LINE
8
BLACK
6
CONTINUOUS
10
107.093
20
-124.117
11
107.188
21
-123.736
0
LINE
8
BLACK
6
CONTINUOUS
10
107.188
20
-123.736
11
107.283
21
-123.545
0
LINE
8
BLACK
6
CONTINUOUS
10
107.283
20
-123.545
11
107.379
21
-123.45
0
LINE
8
BLACK
6
CONTINUOUS
10
107.379
20
-123.45
11
107.569
21
-123.355
0
LINE
8
BLACK
6
CONTINUOUS
10
109.474
20
-123.355
11
109.664
21
-123.355
0
LINE
8
BLACK
6
CONTINUOUS
10
109.664
20
-123.355
11
109.855
21
-123.45
0
LINE
8
BLACK
6
CONTINUOUS
10
109.855
20
-123.45
11
109.95
21
-123.545
0
LINE
8
BLACK
6
CONTINUOUS
10
109.95
20
-123.545
11
110.045
21
-123.736
0
LINE
8
BLACK
6
CONTINUOUS
10
110.045
20
-123.736
11
110.14
21
-124.117
0
LINE
8
BLACK
6
CONTINUOUS
10
110.14
20
-124.117
11
110.14
21
-124.593
0
LINE
8
BLACK
6
CONTINUOUS
10
110.14
20
-124.593
11
110.045
21
-124.974
0
LINE
8
BLACK
6
CONTINUOUS
10
110.045
20
-124.974
11
109.95
21
-125.164
0
LINE
8
BLACK
6
CONTINUOUS
10
109.95
20
-125.164
11
109.855
21
-125.26
0
LINE
8
BLACK
6
CONTINUOUS
10
109.855
20
-125.26
11
109.664
21
-125.355
0
LINE
8
BLACK
6
CONTINUOUS
10
109.664
20
-125.355
11
109.474
21
-125.355
0
LINE
8
BLACK
6
CONTINUOUS
10
109.474
20
-125.355
11
109.283
21
-125.26
0
LINE
8
BLACK
6
CONTINUOUS
10
109.283
20
-125.26
11
109.188
21
-125.164
0
LINE
8
BLACK
6
CONTINUOUS
10
109.188
20
-125.164
11
109.093
21
-124.974
0
LINE
8
BLACK
6
CONTINUOUS
10
109.093
20
-124.974
11
108.998
21
-124.593
0
LINE
8
BLACK
6
CONTINUOUS
10
108.998
20
-124.593
11
108.998
21
-124.117
0
LINE
8
BLACK
6
CONTINUOUS
10
108.998
20
-124.117
11
109.093
21
-123.736
0
LINE
8
BLACK
6
CONTINUOUS
10
109.093
20
-123.736
11
109.188
21
-123.545
0
LINE
8
BLACK
6
CONTINUOUS
10
109.188
20
-123.545
11
109.283
21
-123.45
0
LINE
8
BLACK
6
CONTINUOUS
10
109.283
20
-123.45
11
109.474
21
-123.355
0
LINE
8
BLACK
6
CONTINUOUS
10
110.998
20
-125.355
11
110.998
21
-124.021
0
LINE
8
BLACK
6
CONTINUOUS
10
110.998
20
-124.212
11
111.093
21
-124.117
0
LINE
8
BLACK
6
CONTINUOUS
10
111.093
20
-124.117
11
111.283
21
-124.021
0
LINE
8
BLACK
6
CONTINUOUS
10
111.283
20
-124.021
11
111.569
21
-124.021
0
LINE
8
BLACK
6
CONTINUOUS
10
111.569
20
-124.021
11
111.76
21
-124.117
0
LINE
8
BLACK
6
CONTINUOUS
10
111.76
20
-124.117
11
111.855
21
-124.307
0
LINE
8
BLACK
6
CONTINUOUS
10
111.855
20
-124.307
11
111.855
21
-125.355
0
LINE
8
BLACK
6
CONTINUOUS
10
111.855
20
-124.307
11
111.95
21
-124.117
0
LINE
8
BLACK
6
CONTINUOUS
10
111.95
20
-124.117
11
112.14
21
-124.021
0
LINE
8
BLACK
6
CONTINUOUS
10
112.14
20
-124.021
11
112.426
21
-124.021
0
LINE
8
BLACK
6
CONTINUOUS
10
112.426
20
-124.021
11
112.617
21
-124.117
0
LINE
8
BLACK
6
CONTINUOUS
10
112.617
20
-124.117
11
112.712
21
-124.307
0
LINE
8
BLACK
6
CONTINUOUS
10
112.712
20
-124.307
11
112.712
21
-125.355
0
LINE
8
BLACK
6
CONTINUOUS
10
113.664
20
-125.355
11
113.664
21
-124.021
0
LINE
8
BLACK
6
CONTINUOUS
10
113.664
20
-124.212
11
113.76
21
-124.117
0
LINE
8
BLACK
6
CONTINUOUS
10
113.76
20
-124.117
11
113.95
21
-124.021
0
LINE
8
BLACK
6
CONTINUOUS
10
113.95
20
-124.021
11
114.236
21
-124.021
0
LINE
8
BLACK
6
CONTINUOUS
10
114.236
20
-124.021
11
114.426
21
-124.117
0
LINE
8
BLACK
6
CONTINUOUS
10
114.426
20
-124.117
11
114.521
21
-124.307
0
LINE
8
BLACK
6
CONTINUOUS
10
114.521
20
-124.307
11
114.521
21
-125.355
0
LINE
8
BLACK
6
CONTINUOUS
10
114.521
20
-124.307
11
114.617
21
-124.117
0
LINE
8
BLACK
6
CONTINUOUS
10
114.617
20
-124.117
11
114.807
21
-124.021
0
LINE
8
BLACK
6
CONTINUOUS
10
114.807
20
-124.021
11
115.093
21
-124.021
0
LINE
8
BLACK
6
CONTINUOUS
10
115.093
20
-124.021
11
115.283
21
-124.117
0
LINE
8
BLACK
6
CONTINUOUS
10
115.283
20
-124.117
11
115.379
21
-124.307
0
LINE
8
BLACK
6
CONTINUOUS
10
115.379
20
-124.307
11
115.379
21
-125.355
0
LINE
8
BLACK
6
CONTINUOUS
10
119.283
20
-123.26
11
117.569
21
-125.831
0
LINE
8
BLACK
6
CONTINUOUS
10
121.855
20
-123.355
11
122.045
21
-123.355
0
LINE
8
BLACK
6
CONTINUOUS
10
122.045
20
-123.355
11
122.236
21
-123.45
0
LINE
8
BLACK
6
CONTINUOUS
10
122.236
20
-123.45
11
122.331
21
-123.545
0
LINE
8
BLACK
6
CONTINUOUS
10
122.331
20
-123.545
11
122.426
21
-123.736
0
LINE
8
BLACK
6
CONTINUOUS
10
122.426
20
-123.736
11
122.521
21
-124.117
0
LINE
8
BLACK
6
CONTINUOUS
10
122.521
20
-124.117
11
122.521
21
-124.593
0
LINE
8
BLACK
6
CONTINUOUS
10
122.521
20
-124.593
11
122.426
21
-124.974
0
LINE
8
BLACK
6
CONTINUOUS
10
122.426
20
-124.974
11
122.331
21
-125.164
0
LINE
8
BLACK
6
CONTINUOUS
10
122.331
20
-125.164
11
122.236
21
-125.26
0
LINE
8
BLACK
6
CONTINUOUS
10
122.236
20
-125.26
11
122.045
21
-125.355
0
LINE
8
BLACK
6
CONTINUOUS
10
122.045
20
-125.355
11
121.855
21
-125.355
0
LINE
8
BLACK
6
CONTINUOUS
10
121.855
20
-125.355
11
121.664
21
-125.26
0
LINE
8
BLACK
6
CONTINUOUS
10
121.664
20
-125.26
11
121.569
21
-125.164
0
LINE
8
BLACK
6
CONTINUOUS
10
121.569
20
-125.164
11
121.474
21
-124.974
0
LINE
8
BLACK
6
CONTINUOUS
10
121.474
20
-124.974
11
121.379
21
-124.593
0
LINE
8
BLACK
6
CONTINUOUS
10
121.379
20
-124.593
11
121.379
21
-124.117
0
LINE
8
BLACK
6
CONTINUOUS
10
121.379
20
-124.117
11
121.474
21
-123.736
0
LINE
8
BLACK
6
CONTINUOUS
10
121.474
20
-123.736
11
121.569
21
-123.545
0
LINE
8
BLACK
6
CONTINUOUS
10
121.569
20
-123.545
11
121.664
21
-123.45
0
LINE
8
BLACK
6
CONTINUOUS
10
121.664
20
-123.45
11
121.855
21
-123.355
0
LINE
8
BLACK
6
CONTINUOUS
10
123.379
20
-125.164
11
123.474
21
-125.26
0
LINE
8
BLACK
6
CONTINUOUS
10
123.474
20
-125.26
11
123.379
21
-125.355
0
LINE
8
BLACK
6
CONTINUOUS
10
123.379
20
-125.355
11
123.283
21
-125.26
0
LINE
8
BLACK
6
CONTINUOUS
10
123.283
20
-125.26
11
123.379
21
-125.164
0
LINE
8
BLACK
6
CONTINUOUS
10
123.379
20
-125.164
11
123.379
21
-125.355
0
LINE
8
BLACK
6
CONTINUOUS
10
124.712
20
-123.355
11
124.902
21
-123.355
0
LINE
8
BLACK
6
CONTINUOUS
10
124.902
20
-123.355
11
125.093
21
-123.45
0
LINE
8
BLACK
6
CONTINUOUS
10
125.093
20
-123.45
11
125.188
21
-123.545
0
LINE
8
BLACK
6
CONTINUOUS
10
125.188
20
-123.545
11
125.283
21
-123.736
0
LINE
8
BLACK
6
CONTINUOUS
10
125.283
20
-123.736
11
125.379
21
-124.117
0
LINE
8
BLACK
6
CONTINUOUS
10
125.379
20
-124.117
11
125.379
21
-124.593
0
LINE
8
BLACK
6
CONTINUOUS
10
125.379
20
-124.593
11
125.283
21
-124.974
0
LINE
8
BLACK
6
CONTINUOUS
10
125.283
20
-124.974
11
125.188
21
-125.164
0
LINE
8
BLACK
6
CONTINUOUS
10
125.188
20
-125.164
11
125.093
21
-125.26
0
LINE
8
BLACK
6
CONTINUOUS
10
125.093
20
-125.26
11
124.902
21
-125.355
0
LINE
8
BLACK
6
CONTINUOUS
10
124.902
20
-125.355
11
124.712
21
-125.355
0
LINE
8
BLACK
6
CONTINUOUS
10
124.712
20
-125.355
11
124.521
21
-125.26
0
LINE
8
BLACK
6
CONTINUOUS
10
124.521
20
-125.26
11
124.426
21
-125.164
0
LINE
8
BLACK
6
CONTINUOUS
10
124.426
20
-125.164
11
124.331
21
-124.974
0
LINE
8
BLACK
6
CONTINUOUS
10
124.331
20
-124.974
11
124.236
21
-124.593
0
LINE
8
BLACK
6
CONTINUOUS
10
124.236
20
-124.593
11
124.236
21
-124.117
0
LINE
8
BLACK
6
CONTINUOUS
10
124.236
20
-124.117
11
124.331
21
-123.736
0
LINE
8
BLACK
6
CONTINUOUS
10
124.331
20
-123.736
11
124.426
21
-123.545
0
LINE
8
BLACK
6
CONTINUOUS
10
124.426
20
-123.545
11
124.521
21
-123.45
0
LINE
8
BLACK
6
CONTINUOUS
10
124.521
20
-123.45
11
124.712
21
-123.355
0
LINE
8
BLACK
6
CONTINUOUS
10
127.283
20
-125.355
11
126.14
21
-125.355
0
LINE
8
BLACK
6
CONTINUOUS
10
126.712
20
-125.355
11
126.712
21
-123.355
0
LINE
8
BLACK
6
CONTINUOUS
10
126.712
20
-123.355
11
126.521
21
-123.64
0
LINE
8
BLACK
6
CONTINUOUS
10
126.521
20
-123.64
11
126.331
21
-123.831
0
LINE
8
BLACK
6
CONTINUOUS
10
126.331
20
-123.831
11
126.14
21
-123.926
0
LINE
8
BLACK
6
CONTINUOUS
10
129.093
20
-123.355
11
128.14
21
-123.355
0
LINE
8
BLACK
6
CONTINUOUS
10
128.14
20
-123.355
11
128.045
21
-124.307
0
LINE
8
BLACK
6
CONTINUOUS
10
128.045
20
-124.307
11
128.14
21
-124.212
0
LINE
8
BLACK
6
CONTINUOUS
10
128.14
20
-124.212
11
128.331
21
-124.117
0
LINE
8
BLACK
6
CONTINUOUS
10
128.331
20
-124.117
11
128.807
21
-124.117
0
LINE
8
BLACK
6
CONTINUOUS
10
128.807
20
-124.117
11
128.998
21
-124.212
0
LINE
8
BLACK
6
CONTINUOUS
10
128.998
20
-124.212
11
129.093
21
-124.307
0
LINE
8
BLACK
6
CONTINUOUS
10
129.093
20
-124.307
11
129.188
21
-124.498
0
LINE
8
BLACK
6
CONTINUOUS
10
129.188
20
-124.498
11
129.188
21
-124.974
0
LINE
8
BLACK
6
CONTINUOUS
10
129.188
20
-124.974
11
129.093
21
-125.164
0
LINE
8
BLACK
6
CONTINUOUS
10
129.093
20
-125.164
11
128.998
21
-125.26
0
LINE
8
BLACK
6
CONTINUOUS
10
128.998
20
-125.26
11
128.807
21
-125.355
0
LINE
8
BLACK
6
CONTINUOUS
10
128.807
20
-125.355
11
128.331
21
-125.355
0
LINE
8
BLACK
6
CONTINUOUS
10
128.331
20
-125.355
11
128.14
21
-125.26
0
LINE
8
BLACK
6
CONTINUOUS
10
128.14
20
-125.26
11
128.045
21
-125.164
0
LINE
8
BLACK
6
CONTINUOUS
10
129.855
20
-123.355
11
131.188
21
-123.355
0
LINE
8
BLACK
6
CONTINUOUS
10
131.188
20
-123.355
11
130.331
21
-125.355
0
LINE
8
BLACK
6
CONTINUOUS
10
131.855
20
-123.355
11
131.855
21
-123.736
0
LINE
8
BLACK
6
CONTINUOUS
10
132.617
20
-123.355
11
132.617
21
-123.736
0
LINE
8
BLACK
6
CONTINUOUS
10
135.569
20
-126.117
11
135.474
21
-126.021
0
LINE
8
BLACK
6
CONTINUOUS
10
135.474
20
-126.021
11
135.283
21
-125.736
0
LINE
8
BLACK
6
CONTINUOUS
10
135.283
20
-125.736
11
135.188
21
-125.545
0
LINE
8
BLACK
6
CONTINUOUS
10
135.188
20
-125.545
11
135.093
21
-125.26
0
LINE
8
BLACK
6
CONTINUOUS
10
135.093
20
-125.26
11
134.998
21
-124.783
0
LINE
8
BLACK
6
CONTINUOUS
10
134.998
20
-124.783
11
134.998
21
-124.402
0
LINE
8
BLACK
6
CONTINUOUS
10
134.998
20
-124.402
11
135.093
21
-123.926
0
LINE
8
BLACK
6
CONTINUOUS
10
135.093
20
-123.926
11
135.188
21
-123.64
0
LINE
8
BLACK
6
CONTINUOUS
10
135.188
20
-123.64
11
135.283
21
-123.45
0
LINE
8
BLACK
6
CONTINUOUS
10
135.283
20
-123.45
11
135.474
21
-123.164
0
LINE
8
BLACK
6
CONTINUOUS
10
135.474
20
-123.164
11
135.569
21
-123.069
0
LINE
8
BLACK
6
CONTINUOUS
10
136.14
20
-123.355
11
137.379
21
-123.355
0
LINE
8
BLACK
6
CONTINUOUS
10
137.379
20
-123.355
11
136.712
21
-124.117
0
LINE
8
BLACK
6
CONTINUOUS
10
136.712
20
-124.117
11
136.998
21
-124.117
0
LINE
8
BLACK
6
CONTINUOUS
10
136.998
20
-124.117
11
137.188
21
-124.212
0
LINE
8
BLACK
6
CONTINUOUS
10
137.188
20
-124.212
11
137.283
21
-124.307
0
LINE
8
BLACK
6
CONTINUOUS
10
137.283
20
-124.307
11
137.379
21
-124.498
0
LINE
8
BLACK
6
CONTINUOUS
10
137.379
20
-124.498
11
137.379
21
-124.974
0
LINE
8
BLACK
6
CONTINUOUS
10
137.379
20
-124.974
11
137.283
21
-125.164
0
LINE
8
BLACK
6
CONTINUOUS
10
137.283
20
-125.164
11
137.188
21
-125.26
0
LINE
8
BLACK
6
CONTINUOUS
10
137.188
20
-125.26
11
136.998
21
-125.355
0
LINE
8
BLACK
6
CONTINUOUS
10
136.998
20
-125.355
11
136.426
21
-125.355
0
LINE
8
BLACK
6
CONTINUOUS
10
136.426
20
-125.355
11
136.236
21
-125.26
0
LINE
8
BLACK
6
CONTINUOUS
10
136.236
20
-125.26
11
136.14
21
-125.164
0
LINE
8
BLACK
6
CONTINUOUS
10
139.188
20
-123.355
11
138.236
21
-123.355
0
LINE
8
BLACK
6
CONTINUOUS
10
138.236
20
-123.355
11
138.14
21
-124.307
0
LINE
8
BLACK
6
CONTINUOUS
10
138.14
20
-124.307
11
138.236
21
-124.212
0
LINE
8
BLACK
6
CONTINUOUS
10
138.236
20
-124.212
11
138.426
21
-124.117
0
LINE
8
BLACK
6
CONTINUOUS
10
138.426
20
-124.117
11
138.902
21
-124.117
0
LINE
8
BLACK
6
CONTINUOUS
10
138.902
20
-124.117
11
139.093
21
-124.212
0
LINE
8
BLACK
6
CONTINUOUS
10
139.093
20
-124.212
11
139.188
21
-124.307
0
LINE
8
BLACK
6
CONTINUOUS
10
139.188
20
-124.307
11
139.283
21
-124.498
0
LINE
8
BLACK
6
CONTINUOUS
10
139.283
20
-124.498
11
139.283
21
-124.974
0
LINE
8
BLACK
6
CONTINUOUS
10
139.283
20
-124.974
11
139.188
21
-125.164
0
LINE
8
BLACK
6
CONTINUOUS
10
139.188
20
-125.164
11
139.093
21
-125.26
0
LINE
8
BLACK
6
CONTINUOUS
10
139.093
20
-125.26
11
138.902
21
-125.355
0
LINE
8
BLACK
6
CONTINUOUS
10
138.902
20
-125.355
11
138.426
21
-125.355
0
LINE
8
BLACK
6
CONTINUOUS
10
138.426
20
-125.355
11
138.236
21
-125.26
0
LINE
8
BLACK
6
CONTINUOUS
10
138.236
20
-125.26
11
138.14
21
-125.164
0
LINE
8
BLACK
6
CONTINUOUS
10
141.664
20
-125.355
11
141.664
21
-123.355
0
LINE
8
BLACK
6
CONTINUOUS
10
142.521
20
-125.355
11
142.521
21
-124.307
0
LINE
8
BLACK
6
CONTINUOUS
10
142.521
20
-124.307
11
142.426
21
-124.117
0
LINE
8
BLACK
6
CONTINUOUS
10
142.426
20
-124.117
11
142.236
21
-124.021
0
LINE
8
BLACK
6
CONTINUOUS
10
142.236
20
-124.021
11
141.95
21
-124.021
0
LINE
8
BLACK
6
CONTINUOUS
10
141.95
20
-124.021
11
141.76
21
-124.117
0
LINE
8
BLACK
6
CONTINUOUS
10
141.76
20
-124.117
11
141.664
21
-124.212
0
LINE
8
BLACK
6
CONTINUOUS
10
143.76
20
-125.355
11
143.569
21
-125.26
0
LINE
8
BLACK
6
CONTINUOUS
10
143.569
20
-125.26
11
143.474
21
-125.164
0
LINE
8
BLACK
6
CONTINUOUS
10
143.474
20
-125.164
11
143.379
21
-124.974
0
LINE
8
BLACK
6
CONTINUOUS
10
143.379
20
-124.974
11
143.379
21
-124.402
0
LINE
8
BLACK
6
CONTINUOUS
10
143.379
20
-124.402
11
143.474
21
-124.212
0
LINE
8
BLACK
6
CONTINUOUS
10
143.474
20
-124.212
11
143.569
21
-124.117
0
LINE
8
BLACK
6
CONTINUOUS
10
143.569
20
-124.117
11
143.76
21
-124.021
0
LINE
8
BLACK
6
CONTINUOUS
10
143.76
20
-124.021
11
144.045
21
-124.021
0
LINE
8
BLACK
6
CONTINUOUS
10
144.045
20
-124.021
11
144.236
21
-124.117
0
LINE
8
BLACK
6
CONTINUOUS
10
144.236
20
-124.117
11
144.331
21
-124.212
0
LINE
8
BLACK
6
CONTINUOUS
10
144.331
20
-124.212
11
144.426
21
-124.402
0
LINE
8
BLACK
6
CONTINUOUS
10
144.426
20
-124.402
11
144.426
21
-124.974
0
LINE
8
BLACK
6
CONTINUOUS
10
144.426
20
-124.974
11
144.331
21
-125.164
0
LINE
8
BLACK
6
CONTINUOUS
10
144.331
20
-125.164
11
144.236
21
-125.26
0
LINE
8
BLACK
6
CONTINUOUS
10
144.236
20
-125.26
11
144.045
21
-125.355
0
LINE
8
BLACK
6
CONTINUOUS
10
144.045
20
-125.355
11
143.76
21
-125.355
0
LINE
8
BLACK
6
CONTINUOUS
10
145.569
20
-125.355
11
145.379
21
-125.26
0
LINE
8
BLACK
6
CONTINUOUS
10
145.379
20
-125.26
11
145.283
21
-125.069
0
LINE
8
BLACK
6
CONTINUOUS
10
145.283
20
-125.069
11
145.283
21
-123.355
0
LINE
8
BLACK
6
CONTINUOUS
10
147.093
20
-125.26
11
146.902
21
-125.355
0
LINE
8
BLACK
6
CONTINUOUS
10
146.902
20
-125.355
11
146.521
21
-125.355
0
LINE
8
BLACK
6
CONTINUOUS
10
146.521
20
-125.355
11
146.331
21
-125.26
0
LINE
8
BLACK
6
CONTINUOUS
10
146.331
20
-125.26
11
146.236
21
-125.069
0
LINE
8
BLACK
6
CONTINUOUS
10
146.236
20
-125.069
11
146.236
21
-124.307
0
LINE
8
BLACK
6
CONTINUOUS
10
146.236
20
-124.307
11
146.331
21
-124.117
0
LINE
8
BLACK
6
CONTINUOUS
10
146.331
20
-124.117
11
146.521
21
-124.021
0
LINE
8
BLACK
6
CONTINUOUS
10
146.521
20
-124.021
11
146.902
21
-124.021
0
LINE
8
BLACK
6
CONTINUOUS
10
146.902
20
-124.021
11
147.093
21
-124.117
0
LINE
8
BLACK
6
CONTINUOUS
10
147.093
20
-124.117
11
147.188
21
-124.307
0
LINE
8
BLACK
6
CONTINUOUS
10
147.188
20
-124.307
11
147.188
21
-124.498
0
LINE
8
BLACK
6
CONTINUOUS
10
147.188
20
-124.498
11
146.236
21
-124.688
0
LINE
8
BLACK
6
CONTINUOUS
10
147.95
20
-125.26
11
148.14
21
-125.355
0
LINE
8
BLACK
6
CONTINUOUS
10
148.14
20
-125.355
11
148.521
21
-125.355
0
LINE
8
BLACK
6
CONTINUOUS
10
148.521
20
-125.355
11
148.712
21
-125.26
0
LINE
8
BLACK
6
CONTINUOUS
10
148.712
20
-125.26
11
148.807
21
-125.069
0
LINE
8
BLACK
6
CONTINUOUS
10
148.807
20
-125.069
11
148.807
21
-124.974
0
LINE
8
BLACK
6
CONTINUOUS
10
148.807
20
-124.974
11
148.712
21
-124.783
0
LINE
8
BLACK
6
CONTINUOUS
10
148.712
20
-124.783
11
148.521
21
-124.688
0
LINE
8
BLACK
6
CONTINUOUS
10
148.521
20
-124.688
11
148.236
21
-124.688
0
LINE
8
BLACK
6
CONTINUOUS
10
148.236
20
-124.688
11
148.045
21
-124.593
0
LINE
8
BLACK
6
CONTINUOUS
10
148.045
20
-124.593
11
147.95
21
-124.402
0
LINE
8
BLACK
6
CONTINUOUS
10
147.95
20
-124.402
11
147.95
21
-124.307
0
LINE
8
BLACK
6
CONTINUOUS
10
147.95
20
-124.307
11
148.045
21
-124.117
0
LINE
8
BLACK
6
CONTINUOUS
10
148.045
20
-124.117
11
148.236
21
-124.021
0
LINE
8
BLACK
6
CONTINUOUS
10
148.236
20
-124.021
11
148.521
21
-124.021
0
LINE
8
BLACK
6
CONTINUOUS
10
148.521
20
-124.021
11
148.712
21
-124.117
0
LINE
8
BLACK
6
CONTINUOUS
10
149.474
20
-126.117
11
149.569
21
-126.021
0
LINE
8
BLACK
6
CONTINUOUS
10
149.569
20
-126.021
11
149.76
21
-125.736
0
LINE
8
BLACK
6
CONTINUOUS
10
149.76
20
-125.736
11
149.855
21
-125.545
0
LINE
8
BLACK
6
CONTINUOUS
10
149.855
20
-125.545
11
149.95
21
-125.26
0
LINE
8
BLACK
6
CONTINUOUS
10
149.95
20
-125.26
11
150.045
21
-124.783
0
LINE
8
BLACK
6
CONTINUOUS
10
150.045
20
-124.783
11
150.045
21
-124.402
0
LINE
8
BLACK
6
CONTINUOUS
10
150.045
20
-124.402
11
149.95
21
-123.926
0
LINE
8
BLACK
6
CONTINUOUS
10
149.95
20
-123.926
11
149.855
21
-123.64
0
LINE
8
BLACK
6
CONTINUOUS
10
149.855
20
-123.64
11
149.76
21
-123.45
0
LINE
8
BLACK
6
CONTINUOUS
10
149.76
20
-123.45
11
149.569
21
-123.164
0
LINE
8
BLACK
6
CONTINUOUS
10
149.569
20
-123.164
11
149.474
21
-123.069
0
CIRCLE
8
BLACK
10
99.5
20
-127.09
40
0.35
0
LINE
8
BLACK
6
CONTINUOUS
10
102.807
20
-125.995
11
102.998
21
-125.995
0
LINE
8
BLACK
6
CONTINUOUS
10
102.998
20
-125.995
11
103.188
21
-126.09
0
LINE
8
BLACK
6
CONTINUOUS
10
103.188
20
-126.09
11
103.283
21
-126.185
0
LINE
8
BLACK
6
CONTINUOUS
10
103.283
20
-126.185
11
103.379
21
-126.376
0
LINE
8
BLACK
6
CONTINUOUS
10
103.379
20
-126.376
11
103.474
21
-126.757
0
LINE
8
BLACK
6
CONTINUOUS
10
103.474
20
-126.757
11
103.474
21
-127.233
0
LINE
8
BLACK
6
CONTINUOUS
10
103.474
20
-127.233
11
103.379
21
-127.614
0
LINE
8
BLACK
6
CONTINUOUS
10
103.379
20
-127.614
11
103.283
21
-127.804
0
LINE
8
BLACK
6
CONTINUOUS
10
103.283
20
-127.804
11
103.188
21
-127.9
0
LINE
8
BLACK
6
CONTINUOUS
10
103.188
20
-127.9
11
102.998
21
-127.995
0
LINE
8
BLACK
6
CONTINUOUS
10
102.998
20
-127.995
11
102.807
21
-127.995
0
LINE
8
BLACK
6
CONTINUOUS
10
102.807
20
-127.995
11
102.617
21
-127.9
0
LINE
8
BLACK
6
CONTINUOUS
10
102.617
20
-127.9
11
102.521
21
-127.804
0
LINE
8
BLACK
6
CONTINUOUS
10
102.521
20
-127.804
11
102.426
21
-127.614
0
LINE
8
BLACK
6
CONTINUOUS
10
102.426
20
-127.614
11
102.331
21
-127.233
0
LINE
8
BLACK
6
CONTINUOUS
10
102.331
20
-127.233
11
102.331
21
-126.757
0
LINE
8
BLACK
6
CONTINUOUS
10
102.331
20
-126.757
11
102.426
21
-126.376
0
LINE
8
BLACK
6
CONTINUOUS
10
102.426
20
-126.376
11
102.521
21
-126.185
0
LINE
8
BLACK
6
CONTINUOUS
10
102.521
20
-126.185
11
102.617
21
-126.09
0
LINE
8
BLACK
6
CONTINUOUS
10
102.617
20
-126.09
11
102.807
21
-125.995
0
LINE
8
BLACK
6
CONTINUOUS
10
104.331
20
-127.804
11
104.426
21
-127.9
0
LINE
8
BLACK
6
CONTINUOUS
10
104.426
20
-127.9
11
104.331
21
-127.995
0
LINE
8
BLACK
6
CONTINUOUS
10
104.331
20
-127.995
11
104.236
21
-127.9
0
LINE
8
BLACK
6
CONTINUOUS
10
104.236
20
-127.9
11
104.331
21
-127.804
0
LINE
8
BLACK
6
CONTINUOUS
10
104.331
20
-127.804
11
104.331
21
-127.995
0
LINE
8
BLACK
6
CONTINUOUS
10
105.093
20
-125.995
11
106.426
21
-125.995
0
LINE
8
BLACK
6
CONTINUOUS
10
106.426
20
-125.995
11
105.569
21
-127.995
0
LINE
8
BLACK
6
CONTINUOUS
10
107.569
20
-125.995
11
107.76
21
-125.995
0
LINE
8
BLACK
6
CONTINUOUS
10
107.76
20
-125.995
11
107.95
21
-126.09
0
LINE
8
BLACK
6
CONTINUOUS
10
107.95
20
-126.09
11
108.045
21
-126.185
0
LINE
8
BLACK
6
CONTINUOUS
10
108.045
20
-126.185
11
108.14
21
-126.376
0
LINE
8
BLACK
6
CONTINUOUS
10
108.14
20
-126.376
11
108.236
21
-126.757
0
LINE
8
BLACK
6
CONTINUOUS
10
108.236
20
-126.757
11
108.236
21
-127.233
0
LINE
8
BLACK
6
CONTINUOUS
10
108.236
20
-127.233
11
108.14
21
-127.614
0
LINE
8
BLACK
6
CONTINUOUS
10
108.14
20
-127.614
11
108.045
21
-127.804
0
LINE
8
BLACK
6
CONTINUOUS
10
108.045
20
-127.804
11
107.95
21
-127.9
0
LINE
8
BLACK
6
CONTINUOUS
10
107.95
20
-127.9
11
107.76
21
-127.995
0
LINE
8
BLACK
6
CONTINUOUS
10
107.76
20
-127.995
11
107.569
21
-127.995
0
LINE
8
BLACK
6
CONTINUOUS
10
107.569
20
-127.995
11
107.379
21
-127.9
0
LINE
8
BLACK
6
CONTINUOUS
10
107.379
20
-127.9
11
107.283
21
-127.804
0
LINE
8
BLACK
6
CONTINUOUS
10
107.283
20
-127.804
11
107.188
21
-127.614
0
LINE
8
BLACK
6
CONTINUOUS
10
107.188
20
-127.614
11
107.093
21
-127.233
0
LINE
8
BLACK
6
CONTINUOUS
10
107.093
20
-127.233
11
107.093
21
-126.757
0
LINE
8
BLACK
6
CONTINUOUS
10
107.093
20
-126.757
11
107.188
21
-126.376
0
LINE
8
BLACK
6
CONTINUOUS
10
107.188
20
-126.376
11
107.283
21
-126.185
0
LINE
8
BLACK
6
CONTINUOUS
10
107.283
20
-126.185
11
107.379
21
-126.09
0
LINE
8
BLACK
6
CONTINUOUS
10
107.379
20
-126.09
11
107.569
21
-125.995
0
LINE
8
BLACK
6
CONTINUOUS
10
109.474
20
-125.995
11
109.664
21
-125.995
0
LINE
8
BLACK
6
CONTINUOUS
10
109.664
20
-125.995
11
109.855
21
-126.09
0
LINE
8
BLACK
6
CONTINUOUS
10
109.855
20
-126.09
11
109.95
21
-126.185
0
LINE
8
BLACK
6
CONTINUOUS
10
109.95
20
-126.185
11
110.045
21
-126.376
0
LINE
8
BLACK
6
CONTINUOUS
10
110.045
20
-126.376
11
110.14
21
-126.757
0
LINE
8
BLACK
6
CONTINUOUS
10
110.14
20
-126.757
11
110.14
21
-127.233
0
LINE
8
BLACK
6
CONTINUOUS
10
110.14
20
-127.233
11
110.045
21
-127.614
0
LINE
8
BLACK
6
CONTINUOUS
10
110.045
20
-127.614
11
109.95
21
-127.804
0
LINE
8
BLACK
6
CONTINUOUS
10
109.95
20
-127.804
11
109.855
21
-127.9
0
LINE
8
BLACK
6
CONTINUOUS
10
109.855
20
-127.9
11
109.664
21
-127.995
0
LINE
8
BLACK
6
CONTINUOUS
10
109.664
20
-127.995
11
109.474
21
-127.995
0
LINE
8
BLACK
6
CONTINUOUS
10
109.474
20
-127.995
11
109.283
21
-127.9
0
LINE
8
BLACK
6
CONTINUOUS
10
109.283
20
-127.9
11
109.188
21
-127.804
0
LINE
8
BLACK
6
CONTINUOUS
10
109.188
20
-127.804
11
109.093
21
-127.614
0
LINE
8
BLACK
6
CONTINUOUS
10
109.093
20
-127.614
11
108.998
21
-127.233
0
LINE
8
BLACK
6
CONTINUOUS
10
108.998
20
-127.233
11
108.998
21
-126.757
0
LINE
8
BLACK
6
CONTINUOUS
10
108.998
20
-126.757
11
109.093
21
-126.376
0
LINE
8
BLACK
6
CONTINUOUS
10
109.093
20
-126.376
11
109.188
21
-126.185
0
LINE
8
BLACK
6
CONTINUOUS
10
109.188
20
-126.185
11
109.283
21
-126.09
0
LINE
8
BLACK
6
CONTINUOUS
10
109.283
20
-126.09
11
109.474
21
-125.995
0
LINE
8
BLACK
6
CONTINUOUS
10
110.998
20
-127.995
11
110.998
21
-126.661
0
LINE
8
BLACK
6
CONTINUOUS
10
110.998
20
-126.852
11
111.093
21
-126.757
0
LINE
8
BLACK
6
CONTINUOUS
10
111.093
20
-126.757
11
111.283
21
-126.661
0
LINE
8
BLACK
6
CONTINUOUS
10
111.283
20
-126.661
11
111.569
21
-126.661
0
LINE
8
BLACK
6
CONTINUOUS
10
111.569
20
-126.661
11
111.76
21
-126.757
0
LINE
8
BLACK
6
CONTINUOUS
10
111.76
20
-126.757
11
111.855
21
-126.947
0
LINE
8
BLACK
6
CONTINUOUS
10
111.855
20
-126.947
11
111.855
21
-127.995
0
LINE
8
BLACK
6
CONTINUOUS
10
111.855
20
-126.947
11
111.95
21
-126.757
0
LINE
8
BLACK
6
CONTINUOUS
10
111.95
20
-126.757
11
112.14
21
-126.661
0
LINE
8
BLACK
6
CONTINUOUS
10
112.14
20
-126.661
11
112.426
21
-126.661
0
LINE
8
BLACK
6
CONTINUOUS
10
112.426
20
-126.661
11
112.617
21
-126.757
0
LINE
8
BLACK
6
CONTINUOUS
10
112.617
20
-126.757
11
112.712
21
-126.947
0
LINE
8
BLACK
6
CONTINUOUS
10
112.712
20
-126.947
11
112.712
21
-127.995
0
LINE
8
BLACK
6
CONTINUOUS
10
113.664
20
-127.995
11
113.664
21
-126.661
0
LINE
8
BLACK
6
CONTINUOUS
10
113.664
20
-126.852
11
113.76
21
-126.757
0
LINE
8
BLACK
6
CONTINUOUS
10
113.76
20
-126.757
11
113.95
21
-126.661
0
LINE
8
BLACK
6
CONTINUOUS
10
113.95
20
-126.661
11
114.236
21
-126.661
0
LINE
8
BLACK
6
CONTINUOUS
10
114.236
20
-126.661
11
114.426
21
-126.757
0
LINE
8
BLACK
6
CONTINUOUS
10
114.426
20
-126.757
11
114.521
21
-126.947
0
LINE
8
BLACK
6
CONTINUOUS
10
114.521
20
-126.947
11
114.521
21
-127.995
0
LINE
8
BLACK
6
CONTINUOUS
10
114.521
20
-126.947
11
114.617
21
-126.757
0
LINE
8
BLACK
6
CONTINUOUS
10
114.617
20
-126.757
11
114.807
21
-126.661
0
LINE
8
BLACK
6
CONTINUOUS
10
114.807
20
-126.661
11
115.093
21
-126.661
0
LINE
8
BLACK
6
CONTINUOUS
10
115.093
20
-126.661
11
115.283
21
-126.757
0
LINE
8
BLACK
6
CONTINUOUS
10
115.283
20
-126.757
11
115.379
21
-126.947
0
LINE
8
BLACK
6
CONTINUOUS
10
115.379
20
-126.947
11
115.379
21
-127.995
0
LINE
8
BLACK
6
CONTINUOUS
10
119.283
20
-125.9
11
117.569
21
-128.471
0
LINE
8
BLACK
6
CONTINUOUS
10
121.855
20
-125.995
11
122.045
21
-125.995
0
LINE
8
BLACK
6
CONTINUOUS
10
122.045
20
-125.995
11
122.236
21
-126.09
0
LINE
8
BLACK
6
CONTINUOUS
10
122.236
20
-126.09
11
122.331
21
-126.185
0
LINE
8
BLACK
6
CONTINUOUS
10
122.331
20
-126.185
11
122.426
21
-126.376
0
LINE
8
BLACK
6
CONTINUOUS
10
122.426
20
-126.376
11
122.521
21
-126.757
0
LINE
8
BLACK
6
CONTINUOUS
10
122.521
20
-126.757
11
122.521
21
-127.233
0
LINE
8
BLACK
6
CONTINUOUS
10
122.521
20
-127.233
11
122.426
21
-127.614
0
LINE
8
BLACK
6
CONTINUOUS
10
122.426
20
-127.614
11
122.331
21
-127.804
0
LINE
8
BLACK
6
CONTINUOUS
10
122.331
20
-127.804
11
122.236
21
-127.9
0
LINE
8
BLACK
6
CONTINUOUS
10
122.236
20
-127.9
11
122.045
21
-127.995
0
LINE
8
BLACK
6
CONTINUOUS
10
122.045
20
-127.995
11
121.855
21
-127.995
0
LINE
8
BLACK
6
CONTINUOUS
10
121.855
20
-127.995
11
121.664
21
-127.9
0
LINE
8
BLACK
6
CONTINUOUS
10
121.664
20
-127.9
11
121.569
21
-127.804
0
LINE
8
BLACK
6
CONTINUOUS
10
121.569
20
-127.804
11
121.474
21
-127.614
0
LINE
8
BLACK
6
CONTINUOUS
10
121.474
20
-127.614
11
121.379
21
-127.233
0
LINE
8
BLACK
6
CONTINUOUS
10
121.379
20
-127.233
11
121.379
21
-126.757
0
LINE
8
BLACK
6
CONTINUOUS
10
121.379
20
-126.757
11
121.474
21
-126.376
0
LINE
8
BLACK
6
CONTINUOUS
10
121.474
20
-126.376
11
121.569
21
-126.185
0
LINE
8
BLACK
6
CONTINUOUS
10
121.569
20
-126.185
11
121.664
21
-126.09
0
LINE
8
BLACK
6
CONTINUOUS
10
121.664
20
-126.09
11
121.855
21
-125.995
0
LINE
8
BLACK
6
CONTINUOUS
10
123.379
20
-127.804
11
123.474
21
-127.9
0
LINE
8
BLACK
6
CONTINUOUS
10
123.474
20
-127.9
11
123.379
21
-127.995
0
LINE
8
BLACK
6
CONTINUOUS
10
123.379
20
-127.995
11
123.283
21
-127.9
0
LINE
8
BLACK
6
CONTINUOUS
10
123.283
20
-127.9
11
123.379
21
-127.804
0
LINE
8
BLACK
6
CONTINUOUS
10
123.379
20
-127.804
11
123.379
21
-127.995
0
LINE
8
BLACK
6
CONTINUOUS
10
124.712
20
-125.995
11
124.902
21
-125.995
0
LINE
8
BLACK
6
CONTINUOUS
10
124.902
20
-125.995
11
125.093
21
-126.09
0
LINE
8
BLACK
6
CONTINUOUS
10
125.093
20
-126.09
11
125.188
21
-126.185
0
LINE
8
BLACK
6
CONTINUOUS
10
125.188
20
-126.185
11
125.283
21
-126.376
0
LINE
8
BLACK
6
CONTINUOUS
10
125.283
20
-126.376
11
125.379
21
-126.757
0
LINE
8
BLACK
6
CONTINUOUS
10
125.379
20
-126.757
11
125.379
21
-127.233
0
LINE
8
BLACK
6
CONTINUOUS
10
125.379
20
-127.233
11
125.283
21
-127.614
0
LINE
8
BLACK
6
CONTINUOUS
10
125.283
20
-127.614
11
125.188
21
-127.804
0
LINE
8
BLACK
6
CONTINUOUS
10
125.188
20
-127.804
11
125.093
21
-127.9
0
LINE
8
BLACK
6
CONTINUOUS
10
125.093
20
-127.9
11
124.902
21
-127.995
0
LINE
8
BLACK
6
CONTINUOUS
10
124.902
20
-127.995
11
124.712
21
-127.995
0
LINE
8
BLACK
6
CONTINUOUS
10
124.712
20
-127.995
11
124.521
21
-127.9
0
LINE
8
BLACK
6
CONTINUOUS
10
124.521
20
-127.9
11
124.426
21
-127.804
0
LINE
8
BLACK
6
CONTINUOUS
10
124.426
20
-127.804
11
124.331
21
-127.614
0
LINE
8
BLACK
6
CONTINUOUS
10
124.331
20
-127.614
11
124.236
21
-127.233
0
LINE
8
BLACK
6
CONTINUOUS
10
124.236
20
-127.233
11
124.236
21
-126.757
0
LINE
8
BLACK
6
CONTINUOUS
10
124.236
20
-126.757
11
124.331
21
-126.376
0
LINE
8
BLACK
6
CONTINUOUS
10
124.331
20
-126.376
11
124.426
21
-126.185
0
LINE
8
BLACK
6
CONTINUOUS
10
124.426
20
-126.185
11
124.521
21
-126.09
0
LINE
8
BLACK
6
CONTINUOUS
10
124.521
20
-126.09
11
124.712
21
-125.995
0
LINE
8
BLACK
6
CONTINUOUS
10
126.14
20
-126.185
11
126.236
21
-126.09
0
LINE
8
BLACK
6
CONTINUOUS
10
126.236
20
-126.09
11
126.426
21
-125.995
0
LINE
8
BLACK
6
CONTINUOUS
10
126.426
20
-125.995
11
126.902
21
-125.995
0
LINE
8
BLACK
6
CONTINUOUS
10
126.902
20
-125.995
11
127.093
21
-126.09
0
LINE
8
BLACK
6
CONTINUOUS
10
127.093
20
-126.09
11
127.188
21
-126.185
0
LINE
8
BLACK
6
CONTINUOUS
10
127.188
20
-126.185
11
127.283
21
-126.376
0
LINE
8
BLACK
6
CONTINUOUS
10
127.283
20
-126.376
11
127.283
21
-126.566
0
LINE
8
BLACK
6
CONTINUOUS
10
127.283
20
-126.566
11
127.188
21
-126.852
0
LINE
8
BLACK
6
CONTINUOUS
10
127.188
20
-126.852
11
126.045
21
-127.995
0
LINE
8
BLACK
6
CONTINUOUS
10
126.045
20
-127.995
11
127.283
21
-127.995
0
LINE
8
BLACK
6
CONTINUOUS
10
127.95
20
-125.995
11
129.283
21
-125.995
0
LINE
8
BLACK
6
CONTINUOUS
10
129.283
20
-125.995
11
128.426
21
-127.995
0
LINE
8
BLACK
6
CONTINUOUS
10
130.902
20
-125.995
11
130.521
21
-125.995
0
LINE
8
BLACK
6
CONTINUOUS
10
130.521
20
-125.995
11
130.331
21
-126.09
0
LINE
8
BLACK
6
CONTINUOUS
10
130.331
20
-126.09
11
130.236
21
-126.185
0
LINE
8
BLACK
6
CONTINUOUS
10
130.236
20
-126.185
11
130.045
21
-126.471
0
LINE
8
BLACK
6
CONTINUOUS
10
130.045
20
-126.471
11
129.95
21
-126.852
0
LINE
8
BLACK
6
CONTINUOUS
10
129.95
20
-126.852
11
129.95
21
-127.614
0
LINE
8
BLACK
6
CONTINUOUS
10
129.95
20
-127.614
11
130.045
21
-127.804
0
LINE
8
BLACK
6
CONTINUOUS
10
130.045
20
-127.804
11
130.14
21
-127.9
0
LINE
8
BLACK
6
CONTINUOUS
10
130.14
20
-127.9
11
130.331
21
-127.995
0
LINE
8
BLACK
6
CONTINUOUS
10
130.331
20
-127.995
11
130.712
21
-127.995
0
LINE
8
BLACK
6
CONTINUOUS
10
130.712
20
-127.995
11
130.902
21
-127.9
0
LINE
8
BLACK
6
CONTINUOUS
10
130.902
20
-127.9
11
130.998
21
-127.804
0
LINE
8
BLACK
6
CONTINUOUS
10
130.998
20
-127.804
11
131.093
21
-127.614
0
LINE
8
BLACK
6
CONTINUOUS
10
131.093
20
-127.614
11
131.093
21
-127.138
0
LINE
8
BLACK
6
CONTINUOUS
10
131.093
20
-127.138
11
130.998
21
-126.947
0
LINE
8
BLACK
6
CONTINUOUS
10
130.998
20
-126.947
11
130.902
21
-126.852
0
LINE
8
BLACK
6
CONTINUOUS
10
130.902
20
-126.852
11
130.712
21
-126.757
0
LINE
8
BLACK
6
CONTINUOUS
10
130.712
20
-126.757
11
130.331
21
-126.757
0
LINE
8
BLACK
6
CONTINUOUS
10
130.331
20
-126.757
11
130.14
21
-126.852
0
LINE
8
BLACK
6
CONTINUOUS
10
130.14
20
-126.852
11
130.045
21
-126.947
0
LINE
8
BLACK
6
CONTINUOUS
10
130.045
20
-126.947
11
129.95
21
-127.138
0
LINE
8
BLACK
6
CONTINUOUS
10
131.855
20
-125.995
11
131.855
21
-126.376
0
LINE
8
BLACK
6
CONTINUOUS
10
132.617
20
-125.995
11
132.617
21
-126.376
0
LINE
8
BLACK
6
CONTINUOUS
10
135.569
20
-128.757
11
135.474
21
-128.661
0
LINE
8
BLACK
6
CONTINUOUS
10
135.474
20
-128.661
11
135.283
21
-128.376
0
LINE
8
BLACK
6
CONTINUOUS
10
135.283
20
-128.376
11
135.188
21
-128.185
0
LINE
8
BLACK
6
CONTINUOUS
10
135.188
20
-128.185
11
135.093
21
-127.9
0
LINE
8
BLACK
6
CONTINUOUS
10
135.093
20
-127.9
11
134.998
21
-127.423
0
LINE
8
BLACK
6
CONTINUOUS
10
134.998
20
-127.423
11
134.998
21
-127.042
0
LINE
8
BLACK
6
CONTINUOUS
10
134.998
20
-127.042
11
135.093
21
-126.566
0
LINE
8
BLACK
6
CONTINUOUS
10
135.093
20
-126.566
11
135.188
21
-126.28
0
LINE
8
BLACK
6
CONTINUOUS
10
135.188
20
-126.28
11
135.283
21
-126.09
0
LINE
8
BLACK
6
CONTINUOUS
10
135.283
20
-126.09
11
135.474
21
-125.804
0
LINE
8
BLACK
6
CONTINUOUS
10
135.474
20
-125.804
11
135.569
21
-125.709
0
LINE
8
BLACK
6
CONTINUOUS
10
137.188
20
-125.995
11
136.807
21
-125.995
0
LINE
8
BLACK
6
CONTINUOUS
10
136.807
20
-125.995
11
136.617
21
-126.09
0
LINE
8
BLACK
6
CONTINUOUS
10
136.617
20
-126.09
11
136.521
21
-126.185
0
LINE
8
BLACK
6
CONTINUOUS
10
136.521
20
-126.185
11
136.331
21
-126.471
0
LINE
8
BLACK
6
CONTINUOUS
10
136.331
20
-126.471
11
136.236
21
-126.852
0
LINE
8
BLACK
6
CONTINUOUS
10
136.236
20
-126.852
11
136.236
21
-127.614
0
LINE
8
BLACK
6
CONTINUOUS
10
136.236
20
-127.614
11
136.331
21
-127.804
0
LINE
8
BLACK
6
CONTINUOUS
10
136.331
20
-127.804
11
136.426
21
-127.9
0
LINE
8
BLACK
6
CONTINUOUS
10
136.426
20
-127.9
11
136.617
21
-127.995
0
LINE
8
BLACK
6
CONTINUOUS
10
136.617
20
-127.995
11
136.998
21
-127.995
0
LINE
8
BLACK
6
CONTINUOUS
10
136.998
20
-127.995
11
137.188
21
-127.9
0
LINE
8
BLACK
6
CONTINUOUS
10
137.188
20
-127.9
11
137.283
21
-127.804
0
LINE
8
BLACK
6
CONTINUOUS
10
137.283
20
-127.804
11
137.379
21
-127.614
0
LINE
8
BLACK
6
CONTINUOUS
10
137.379
20
-127.614
11
137.379
21
-127.138
0
LINE
8
BLACK
6
CONTINUOUS
10
137.379
20
-127.138
11
137.283
21
-126.947
0
LINE
8
BLACK
6
CONTINUOUS
10
137.283
20
-126.947
11
137.188
21
-126.852
0
LINE
8
BLACK
6
CONTINUOUS
10
137.188
20
-126.852
11
136.998
21
-126.757
0
LINE
8
BLACK
6
CONTINUOUS
10
136.998
20
-126.757
11
136.617
21
-126.757
0
LINE
8
BLACK
6
CONTINUOUS
10
136.617
20
-126.757
11
136.426
21
-126.852
0
LINE
8
BLACK
6
CONTINUOUS
10
136.426
20
-126.852
11
136.331
21
-126.947
0
LINE
8
BLACK
6
CONTINUOUS
10
136.331
20
-126.947
11
136.236
21
-127.138
0
LINE
8
BLACK
6
CONTINUOUS
10
139.76
20
-127.995
11
139.76
21
-125.995
0
LINE
8
BLACK
6
CONTINUOUS
10
140.617
20
-127.995
11
140.617
21
-126.947
0
LINE
8
BLACK
6
CONTINUOUS
10
140.617
20
-126.947
11
140.521
21
-126.757
0
LINE
8
BLACK
6
CONTINUOUS
10
140.521
20
-126.757
11
140.331
21
-126.661
0
LINE
8
BLACK
6
CONTINUOUS
10
140.331
20
-126.661
11
140.045
21
-126.661
0
LINE
8
BLACK
6
CONTINUOUS
10
140.045
20
-126.661
11
139.855
21
-126.757
0
LINE
8
BLACK
6
CONTINUOUS
10
139.855
20
-126.757
11
139.76
21
-126.852
0
LINE
8
BLACK
6
CONTINUOUS
10
141.855
20
-127.995
11
141.664
21
-127.9
0
LINE
8
BLACK
6
CONTINUOUS
10
141.664
20
-127.9
11
141.569
21
-127.804
0
LINE
8
BLACK
6
CONTINUOUS
10
141.569
20
-127.804
11
141.474
21
-127.614
0
LINE
8
BLACK
6
CONTINUOUS
10
141.474
20
-127.614
11
141.474
21
-127.042
0
LINE
8
BLACK
6
CONTINUOUS
10
141.474
20
-127.042
11
141.569
21
-126.852
0
LINE
8
BLACK
6
CONTINUOUS
10
141.569
20
-126.852
11
141.664
21
-126.757
0
LINE
8
BLACK
6
CONTINUOUS
10
141.664
20
-126.757
11
141.855
21
-126.661
0
LINE
8
BLACK
6
CONTINUOUS
10
141.855
20
-126.661
11
142.14
21
-126.661
0
LINE
8
BLACK
6
CONTINUOUS
10
142.14
20
-126.661
11
142.331
21
-126.757
0
LINE
8
BLACK
6
CONTINUOUS
10
142.331
20
-126.757
11
142.426
21
-126.852
0
LINE
8
BLACK
6
CONTINUOUS
10
142.426
20
-126.852
11
142.521
21
-127.042
0
LINE
8
BLACK
6
CONTINUOUS
10
142.521
20
-127.042
11
142.521
21
-127.614
0
LINE
8
BLACK
6
CONTINUOUS
10
142.521
20
-127.614
11
142.426
21
-127.804
0
LINE
8
BLACK
6
CONTINUOUS
10
142.426
20
-127.804
11
142.331
21
-127.9
0
LINE
8
BLACK
6
CONTINUOUS
10
142.331
20
-127.9
11
142.14
21
-127.995
0
LINE
8
BLACK
6
CONTINUOUS
10
142.14
20
-127.995
11
141.855
21
-127.995
0
LINE
8
BLACK
6
CONTINUOUS
10
143.664
20
-127.995
11
143.474
21
-127.9
0
LINE
8
BLACK
6
CONTINUOUS
10
143.474
20
-127.9
11
143.379
21
-127.709
0
LINE
8
BLACK
6
CONTINUOUS
10
143.379
20
-127.709
11
143.379
21
-125.995
0
LINE
8
BLACK
6
CONTINUOUS
10
145.188
20
-127.9
11
144.998
21
-127.995
0
LINE
8
BLACK
6
CONTINUOUS
10
144.998
20
-127.995
11
144.617
21
-127.995
0
LINE
8
BLACK
6
CONTINUOUS
10
144.617
20
-127.995
11
144.426
21
-127.9
0
LINE
8
BLACK
6
CONTINUOUS
10
144.426
20
-127.9
11
144.331
21
-127.709
0
LINE
8
BLACK
6
CONTINUOUS
10
144.331
20
-127.709
11
144.331
21
-126.947
0
LINE
8
BLACK
6
CONTINUOUS
10
144.331
20
-126.947
11
144.426
21
-126.757
0
LINE
8
BLACK
6
CONTINUOUS
10
144.426
20
-126.757
11
144.617
21
-126.661
0
LINE
8
BLACK
6
CONTINUOUS
10
144.617
20
-126.661
11
144.998
21
-126.661
0
LINE
8
BLACK
6
CONTINUOUS
10
144.998
20
-126.661
11
145.188
21
-126.757
0
LINE
8
BLACK
6
CONTINUOUS
10
145.188
20
-126.757
11
145.283
21
-126.947
0
LINE
8
BLACK
6
CONTINUOUS
10
145.283
20
-126.947
11
145.283
21
-127.138
0
LINE
8
BLACK
6
CONTINUOUS
10
145.283
20
-127.138
11
144.331
21
-127.328
0
LINE
8
BLACK
6
CONTINUOUS
10
146.045
20
-127.9
11
146.236
21
-127.995
0
LINE
8
BLACK
6
CONTINUOUS
10
146.236
20
-127.995
11
146.617
21
-127.995
0
LINE
8
BLACK
6
CONTINUOUS
10
146.617
20
-127.995
11
146.807
21
-127.9
0
LINE
8
BLACK
6
CONTINUOUS
10
146.807
20
-127.9
11
146.902
21
-127.709
0
LINE
8
BLACK
6
CONTINUOUS
10
146.902
20
-127.709
11
146.902
21
-127.614
0
LINE
8
BLACK
6
CONTINUOUS
10
146.902
20
-127.614
11
146.807
21
-127.423
0
LINE
8
BLACK
6
CONTINUOUS
10
146.807
20
-127.423
11
146.617
21
-127.328
0
LINE
8
BLACK
6
CONTINUOUS
10
146.617
20
-127.328
11
146.331
21
-127.328
0
LINE
8
BLACK
6
CONTINUOUS
10
146.331
20
-127.328
11
146.14
21
-127.233
0
LINE
8
BLACK
6
CONTINUOUS
10
146.14
20
-127.233
11
146.045
21
-127.042
0
LINE
8
BLACK
6
CONTINUOUS
10
146.045
20
-127.042
11
146.045
21
-126.947
0
LINE
8
BLACK
6
CONTINUOUS
10
146.045
20
-126.947
11
146.14
21
-126.757
0
LINE
8
BLACK
6
CONTINUOUS
10
146.14
20
-126.757
11
146.331
21
-126.661
0
LINE
8
BLACK
6
CONTINUOUS
10
146.331
20
-126.661
11
146.617
21
-126.661
0
LINE
8
BLACK
6
CONTINUOUS
10
146.617
20
-126.661
11
146.807
21
-126.757
0
LINE
8
BLACK
6
CONTINUOUS
10
147.569
20
-128.757
11
147.664
21
-128.661
0
LINE
8
BLACK
6
CONTINUOUS
10
147.664
20
-128.661
11
147.855
21
-128.376
0
LINE
8
BLACK
6
CONTINUOUS
10
147.855
20
-128.376
11
147.95
21
-128.185
0
LINE
8
BLACK
6
CONTINUOUS
10
147.95
20
-128.185
11
148.045
21
-127.9
0
LINE
8
BLACK
6
CONTINUOUS
10
148.045
20
-127.9
11
148.14
21
-127.423
0
LINE
8
BLACK
6
CONTINUOUS
10
148.14
20
-127.423
11
148.14
21
-127.042
0
LINE
8
BLACK
6
CONTINUOUS
10
148.14
20
-127.042
11
148.045
21
-126.566
0
LINE
8
BLACK
6
CONTINUOUS
10
148.045
20
-126.566
11
147.95
21
-126.28
0
LINE
8
BLACK
6
CONTINUOUS
10
147.95
20
-126.28
11
147.855
21
-126.09
0
LINE
8
BLACK
6
CONTINUOUS
10
147.855
20
-126.09
11
147.664
21
-125.804
0
LINE
8
BLACK
6
CONTINUOUS
10
147.664
20
-125.804
11
147.569
21
-125.709
0
LINE
8
BLACK
6
CONTINUOUS
10
99.45
20
-129.33
11
99.45
21
-130.13
0
LINE
8
BLACK
6
CONTINUOUS
10
99.05
20
-129.73
11
99.85
21
-129.73
0
LINE
8
BLACK
6
CONTINUOUS
10
102.807
20
-128.635
11
102.998
21
-128.635
0
LINE
8
BLACK
6
CONTINUOUS
10
102.998
20
-128.635
11
103.188
21
-128.73
0
LINE
8
BLACK
6
CONTINUOUS
10
103.188
20
-128.73
11
103.283
21
-128.825
0
LINE
8
BLACK
6
CONTINUOUS
10
103.283
20
-128.825
11
103.379
21
-129.016
0
LINE
8
BLACK
6
CONTINUOUS
10
103.379
20
-129.016
11
103.474
21
-129.397
0
LINE
8
BLACK
6
CONTINUOUS
10
103.474
20
-129.397
11
103.474
21
-129.873
0
LINE
8
BLACK
6
CONTINUOUS
10
103.474
20
-129.873
11
103.379
21
-130.254
0
LINE
8
BLACK
6
CONTINUOUS
10
103.379
20
-130.254
11
103.283
21
-130.444
0
LINE
8
BLACK
6
CONTINUOUS
10
103.283
20
-130.444
11
103.188
21
-130.54
0
LINE
8
BLACK
6
CONTINUOUS
10
103.188
20
-130.54
11
102.998
21
-130.635
0
LINE
8
BLACK
6
CONTINUOUS
10
102.998
20
-130.635
11
102.807
21
-130.635
0
LINE
8
BLACK
6
CONTINUOUS
10
102.807
20
-130.635
11
102.617
21
-130.54
0
LINE
8
BLACK
6
CONTINUOUS
10
102.617
20
-130.54
11
102.521
21
-130.444
0
LINE
8
BLACK
6
CONTINUOUS
10
102.521
20
-130.444
11
102.426
21
-130.254
0
LINE
8
BLACK
6
CONTINUOUS
10
102.426
20
-130.254
11
102.331
21
-129.873
0
LINE
8
BLACK
6
CONTINUOUS
10
102.331
20
-129.873
11
102.331
21
-129.397
0
LINE
8
BLACK
6
CONTINUOUS
10
102.331
20
-129.397
11
102.426
21
-129.016
0
LINE
8
BLACK
6
CONTINUOUS
10
102.426
20
-129.016
11
102.521
21
-128.825
0
LINE
8
BLACK
6
CONTINUOUS
10
102.521
20
-128.825
11
102.617
21
-128.73
0
LINE
8
BLACK
6
CONTINUOUS
10
102.617
20
-128.73
11
102.807
21
-128.635
0
LINE
8
BLACK
6
CONTINUOUS
10
104.331
20
-130.444
11
104.426
21
-130.54
0
LINE
8
BLACK
6
CONTINUOUS
10
104.426
20
-130.54
11
104.331
21
-130.635
0
LINE
8
BLACK
6
CONTINUOUS
10
104.331
20
-130.635
11
104.236
21
-130.54
0
LINE
8
BLACK
6
CONTINUOUS
10
104.236
20
-130.54
11
104.331
21
-130.444
0
LINE
8
BLACK
6
CONTINUOUS
10
104.331
20
-130.444
11
104.331
21
-130.635
0
LINE
8
BLACK
6
CONTINUOUS
10
105.569
20
-129.492
11
105.379
21
-129.397
0
LINE
8
BLACK
6
CONTINUOUS
10
105.379
20
-129.397
11
105.283
21
-129.301
0
LINE
8
BLACK
6
CONTINUOUS
10
105.283
20
-129.301
11
105.188
21
-129.111
0
LINE
8
BLACK
6
CONTINUOUS
10
105.188
20
-129.111
11
105.188
21
-129.016
0
LINE
8
BLACK
6
CONTINUOUS
10
105.188
20
-129.016
11
105.283
21
-128.825
0
LINE
8
BLACK
6
CONTINUOUS
10
105.283
20
-128.825
11
105.379
21
-128.73
0
LINE
8
BLACK
6
CONTINUOUS
10
105.379
20
-128.73
11
105.569
21
-128.635
0
LINE
8
BLACK
6
CONTINUOUS
10
105.569
20
-128.635
11
105.95
21
-128.635
0
LINE
8
BLACK
6
CONTINUOUS
10
105.95
20
-128.635
11
106.14
21
-128.73
0
LINE
8
BLACK
6
CONTINUOUS
10
106.14
20
-128.73
11
106.236
21
-128.825
0
LINE
8
BLACK
6
CONTINUOUS
10
106.236
20
-128.825
11
106.331
21
-129.016
0
LINE
8
BLACK
6
CONTINUOUS
10
106.331
20
-129.016
11
106.331
21
-129.111
0
LINE
8
BLACK
6
CONTINUOUS
10
106.331
20
-129.111
11
106.236
21
-129.301
0
LINE
8
BLACK
6
CONTINUOUS
10
106.236
20
-129.301
11
106.14
21
-129.397
0
LINE
8
BLACK
6
CONTINUOUS
10
106.14
20
-129.397
11
105.95
21
-129.492
0
LINE
8
BLACK
6
CONTINUOUS
10
105.95
20
-129.492
11
105.569
21
-129.492
0
LINE
8
BLACK
6
CONTINUOUS
10
105.569
20
-129.492
11
105.379
21
-129.587
0
LINE
8
BLACK
6
CONTINUOUS
10
105.379
20
-129.587
11
105.283
21
-129.682
0
LINE
8
BLACK
6
CONTINUOUS
10
105.283
20
-129.682
11
105.188
21
-129.873
0
LINE
8
BLACK
6
CONTINUOUS
10
105.188
20
-129.873
11
105.188
21
-130.254
0
LINE
8
BLACK
6
CONTINUOUS
10
105.188
20
-130.254
11
105.283
21
-130.444
0
LINE
8
BLACK
6
CONTINUOUS
10
105.283
20
-130.444
11
105.379
21
-130.54
0
LINE
8
BLACK
6
CONTINUOUS
10
105.379
20
-130.54
11
105.569
21
-130.635
0
LINE
8
BLACK
6
CONTINUOUS
10
105.569
20
-130.635
11
105.95
21
-130.635
0
LINE
8
BLACK
6
CONTINUOUS
10
105.95
20
-130.635
11
106.14
21
-130.54
0
LINE
8
BLACK
6
CONTINUOUS
10
106.14
20
-130.54
11
106.236
21
-130.444
0
LINE
8
BLACK
6
CONTINUOUS
10
106.236
20
-130.444
11
106.331
21
-130.254
0
LINE
8
BLACK
6
CONTINUOUS
10
106.331
20
-130.254
11
106.331
21
-129.873
0
LINE
8
BLACK
6
CONTINUOUS
10
106.331
20
-129.873
11
106.236
21
-129.682
0
LINE
8
BLACK
6
CONTINUOUS
10
106.236
20
-129.682
11
106.14
21
-129.587
0
LINE
8
BLACK
6
CONTINUOUS
10
106.14
20
-129.587
11
105.95
21
-129.492
0
LINE
8
BLACK
6
CONTINUOUS
10
107.569
20
-128.635
11
107.76
21
-128.635
0
LINE
8
BLACK
6
CONTINUOUS
10
107.76
20
-128.635
11
107.95
21
-128.73
0
LINE
8
BLACK
6
CONTINUOUS
10
107.95
20
-128.73
11
108.045
21
-128.825
0
LINE
8
BLACK
6
CONTINUOUS
10
108.045
20
-128.825
11
108.14
21
-129.016
0
LINE
8
BLACK
6
CONTINUOUS
10
108.14
20
-129.016
11
108.236
21
-129.397
0
LINE
8
BLACK
6
CONTINUOUS
10
108.236
20
-129.397
11
108.236
21
-129.873
0
LINE
8
BLACK
6
CONTINUOUS
10
108.236
20
-129.873
11
108.14
21
-130.254
0
LINE
8
BLACK
6
CONTINUOUS
10
108.14
20
-130.254
11
108.045
21
-130.444
0
LINE
8
BLACK
6
CONTINUOUS
10
108.045
20
-130.444
11
107.95
21
-130.54
0
LINE
8
BLACK
6
CONTINUOUS
10
107.95
20
-130.54
11
107.76
21
-130.635
0
LINE
8
BLACK
6
CONTINUOUS
10
107.76
20
-130.635
11
107.569
21
-130.635
0
LINE
8
BLACK
6
CONTINUOUS
10
107.569
20
-130.635
11
107.379
21
-130.54
0
LINE
8
BLACK
6
CONTINUOUS
10
107.379
20
-130.54
11
107.283
21
-130.444
0
LINE
8
BLACK
6
CONTINUOUS
10
107.283
20
-130.444
11
107.188
21
-130.254
0
LINE
8
BLACK
6
CONTINUOUS
10
107.188
20
-130.254
11
107.093
21
-129.873
0
LINE
8
BLACK
6
CONTINUOUS
10
107.093
20
-129.873
11
107.093
21
-129.397
0
LINE
8
BLACK
6
CONTINUOUS
10
107.093
20
-129.397
11
107.188
21
-129.016
0
LINE
8
BLACK
6
CONTINUOUS
10
107.188
20
-129.016
11
107.283
21
-128.825
0
LINE
8
BLACK
6
CONTINUOUS
10
107.283
20
-128.825
11
107.379
21
-128.73
0
LINE
8
BLACK
6
CONTINUOUS
10
107.379
20
-128.73
11
107.569
21
-128.635
0
LINE
8
BLACK
6
CONTINUOUS
10
109.474
20
-128.635
11
109.664
21
-128.635
0
LINE
8
BLACK
6
CONTINUOUS
10
109.664
20
-128.635
11
109.855
21
-128.73
0
LINE
8
BLACK
6
CONTINUOUS
10
109.855
20
-128.73
11
109.95
21
-128.825
0
LINE
8
BLACK
6
CONTINUOUS
10
109.95
20
-128.825
11
110.045
21
-129.016
0
LINE
8
BLACK
6
CONTINUOUS
10
110.045
20
-129.016
11
110.14
21
-129.397
0
LINE
8
BLACK
6
CONTINUOUS
10
110.14
20
-129.397
11
110.14
21
-129.873
0
LINE
8
BLACK
6
CONTINUOUS
10
110.14
20
-129.873
11
110.045
21
-130.254
0
LINE
8
BLACK
6
CONTINUOUS
10
110.045
20
-130.254
11
109.95
21
-130.444
0
LINE
8
BLACK
6
CONTINUOUS
10
109.95
20
-130.444
11
109.855
21
-130.54
0
LINE
8
BLACK
6
CONTINUOUS
10
109.855
20
-130.54
11
109.664
21
-130.635
0
LINE
8
BLACK
6
CONTINUOUS
10
109.664
20
-130.635
11
109.474
21
-130.635
0
LINE
8
BLACK
6
CONTINUOUS
10
109.474
20
-130.635
11
109.283
21
-130.54
0
LINE
8
BLACK
6
CONTINUOUS
10
109.283
20
-130.54
11
109.188
21
-130.444
0
LINE
8
BLACK
6
CONTINUOUS
10
109.188
20
-130.444
11
109.093
21
-130.254
0
LINE
8
BLACK
6
CONTINUOUS
10
109.093
20
-130.254
11
108.998
21
-129.873
0
LINE
8
BLACK
6
CONTINUOUS
10
108.998
20
-129.873
11
108.998
21
-129.397
0
LINE
8
BLACK
6
CONTINUOUS
10
108.998
20
-129.397
11
109.093
21
-129.016
0
LINE
8
BLACK
6
CONTINUOUS
10
109.093
20
-129.016
11
109.188
21
-128.825
0
LINE
8
BLACK
6
CONTINUOUS
10
109.188
20
-128.825
11
109.283
21
-128.73
0
LINE
8
BLACK
6
CONTINUOUS
10
109.283
20
-128.73
11
109.474
21
-128.635
0
LINE
8
BLACK
6
CONTINUOUS
10
110.998
20
-130.635
11
110.998
21
-129.301
0
LINE
8
BLACK
6
CONTINUOUS
10
110.998
20
-129.492
11
111.093
21
-129.397
0
LINE
8
BLACK
6
CONTINUOUS
10
111.093
20
-129.397
11
111.283
21
-129.301
0
LINE
8
BLACK
6
CONTINUOUS
10
111.283
20
-129.301
11
111.569
21
-129.301
0
LINE
8
BLACK
6
CONTINUOUS
10
111.569
20
-129.301
11
111.76
21
-129.397
0
LINE
8
BLACK
6
CONTINUOUS
10
111.76
20
-129.397
11
111.855
21
-129.587
0
LINE
8
BLACK
6
CONTINUOUS
10
111.855
20
-129.587
11
111.855
21
-130.635
0
LINE
8
BLACK
6
CONTINUOUS
10
111.855
20
-129.587
11
111.95
21
-129.397
0
LINE
8
BLACK
6
CONTINUOUS
10
111.95
20
-129.397
11
112.14
21
-129.301
0
LINE
8
BLACK
6
CONTINUOUS
10
112.14
20
-129.301
11
112.426
21
-129.301
0
LINE
8
BLACK
6
CONTINUOUS
10
112.426
20
-129.301
11
112.617
21
-129.397
0
LINE
8
BLACK
6
CONTINUOUS
10
112.617
20
-129.397
11
112.712
21
-129.587
0
LINE
8
BLACK
6
CONTINUOUS
10
112.712
20
-129.587
11
112.712
21
-130.635
0
LINE
8
BLACK
6
CONTINUOUS
10
113.664
20
-130.635
11
113.664
21
-129.301
0
LINE
8
BLACK
6
CONTINUOUS
10
113.664
20
-129.492
11
113.76
21
-129.397
0
LINE
8
BLACK
6
CONTINUOUS
10
113.76
20
-129.397
11
113.95
21
-129.301
0
LINE
8
BLACK
6
CONTINUOUS
10
113.95
20
-129.301
11
114.236
21
-129.301
0
LINE
8
BLACK
6
CONTINUOUS
10
114.236
20
-129.301
11
114.426
21
-129.397
0
LINE
8
BLACK
6
CONTINUOUS
10
114.426
20
-129.397
11
114.521
21
-129.587
0
LINE
8
BLACK
6
CONTINUOUS
10
114.521
20
-129.587
11
114.521
21
-130.635
0
LINE
8
BLACK
6
CONTINUOUS
10
114.521
20
-129.587
11
114.617
21
-129.397
0
LINE
8
BLACK
6
CONTINUOUS
10
114.617
20
-129.397
11
114.807
21
-129.301
0
LINE
8
BLACK
6
CONTINUOUS
10
114.807
20
-129.301
11
115.093
21
-129.301
0
LINE
8
BLACK
6
CONTINUOUS
10
115.093
20
-129.301
11
115.283
21
-129.397
0
LINE
8
BLACK
6
CONTINUOUS
10
115.283
20
-129.397
11
115.379
21
-129.587
0
LINE
8
BLACK
6
CONTINUOUS
10
115.379
20
-129.587
11
115.379
21
-130.635
0
LINE
8
BLACK
6
CONTINUOUS
10
119.283
20
-128.54
11
117.569
21
-131.111
0
LINE
8
BLACK
6
CONTINUOUS
10
121.855
20
-128.635
11
122.045
21
-128.635
0
LINE
8
BLACK
6
CONTINUOUS
10
122.045
20
-128.635
11
122.236
21
-128.73
0
LINE
8
BLACK
6
CONTINUOUS
10
122.236
20
-128.73
11
122.331
21
-128.825
0
LINE
8
BLACK
6
CONTINUOUS
10
122.331
20
-128.825
11
122.426
21
-129.016
0
LINE
8
BLACK
6
CONTINUOUS
10
122.426
20
-129.016
11
122.521
21
-129.397
0
LINE
8
BLACK
6
CONTINUOUS
10
122.521
20
-129.397
11
122.521
21
-129.873
0
LINE
8
BLACK
6
CONTINUOUS
10
122.521
20
-129.873
11
122.426
21
-130.254
0
LINE
8
BLACK
6
CONTINUOUS
10
122.426
20
-130.254
11
122.331
21
-130.444
0
LINE
8
BLACK
6
CONTINUOUS
10
122.331
20
-130.444
11
122.236
21
-130.54
0
LINE
8
BLACK
6
CONTINUOUS
10
122.236
20
-130.54
11
122.045
21
-130.635
0
LINE
8
BLACK
6
CONTINUOUS
10
122.045
20
-130.635
11
121.855
21
-130.635
0
LINE
8
BLACK
6
CONTINUOUS
10
121.855
20
-130.635
11
121.664
21
-130.54
0
LINE
8
BLACK
6
CONTINUOUS
10
121.664
20
-130.54
11
121.569
21
-130.444
0
LINE
8
BLACK
6
CONTINUOUS
10
121.569
20
-130.444
11
121.474
21
-130.254
0
LINE
8
BLACK
6
CONTINUOUS
10
121.474
20
-130.254
11
121.379
21
-129.873
0
LINE
8
BLACK
6
CONTINUOUS
10
121.379
20
-129.873
11
121.379
21
-129.397
0
LINE
8
BLACK
6
CONTINUOUS
10
121.379
20
-129.397
11
121.474
21
-129.016
0
LINE
8
BLACK
6
CONTINUOUS
10
121.474
20
-129.016
11
121.569
21
-128.825
0
LINE
8
BLACK
6
CONTINUOUS
10
121.569
20
-128.825
11
121.664
21
-128.73
0
LINE
8
BLACK
6
CONTINUOUS
10
121.664
20
-128.73
11
121.855
21
-128.635
0
LINE
8
BLACK
6
CONTINUOUS
10
123.379
20
-130.444
11
123.474
21
-130.54
0
LINE
8
BLACK
6
CONTINUOUS
10
123.474
20
-130.54
11
123.379
21
-130.635
0
LINE
8
BLACK
6
CONTINUOUS
10
123.379
20
-130.635
11
123.283
21
-130.54
0
LINE
8
BLACK
6
CONTINUOUS
10
123.283
20
-130.54
11
123.379
21
-130.444
0
LINE
8
BLACK
6
CONTINUOUS
10
123.379
20
-130.444
11
123.379
21
-130.635
0
LINE
8
BLACK
6
CONTINUOUS
10
124.712
20
-128.635
11
124.902
21
-128.635
0
LINE
8
BLACK
6
CONTINUOUS
10
124.902
20
-128.635
11
125.093
21
-128.73
0
LINE
8
BLACK
6
CONTINUOUS
10
125.093
20
-128.73
11
125.188
21
-128.825
0
LINE
8
BLACK
6
CONTINUOUS
10
125.188
20
-128.825
11
125.283
21
-129.016
0
LINE
8
BLACK
6
CONTINUOUS
10
125.283
20
-129.016
11
125.379
21
-129.397
0
LINE
8
BLACK
6
CONTINUOUS
10
125.379
20
-129.397
11
125.379
21
-129.873
0
LINE
8
BLACK
6
CONTINUOUS
10
125.379
20
-129.873
11
125.283
21
-130.254
0
LINE
8
BLACK
6
CONTINUOUS
10
125.283
20
-130.254
11
125.188
21
-130.444
0
LINE
8
BLACK
6
CONTINUOUS
10
125.188
20
-130.444
11
125.093
21
-130.54
0
LINE
8
BLACK
6
CONTINUOUS
10
125.093
20
-130.54
11
124.902
21
-130.635
0
LINE
8
BLACK
6
CONTINUOUS
10
124.902
20
-130.635
11
124.712
21
-130.635
0
LINE
8
BLACK
6
CONTINUOUS
10
124.712
20
-130.635
11
124.521
21
-130.54
0
LINE
8
BLACK
6
CONTINUOUS
10
124.521
20
-130.54
11
124.426
21
-130.444
0
LINE
8
BLACK
6
CONTINUOUS
10
124.426
20
-130.444
11
124.331
21
-130.254
0
LINE
8
BLACK
6
CONTINUOUS
10
124.331
20
-130.254
11
124.236
21
-129.873
0
LINE
8
BLACK
6
CONTINUOUS
10
124.236
20
-129.873
11
124.236
21
-129.397
0
LINE
8
BLACK
6
CONTINUOUS
10
124.236
20
-129.397
11
124.331
21
-129.016
0
LINE
8
BLACK
6
CONTINUOUS
10
124.331
20
-129.016
11
124.426
21
-128.825
0
LINE
8
BLACK
6
CONTINUOUS
10
124.426
20
-128.825
11
124.521
21
-128.73
0
LINE
8
BLACK
6
CONTINUOUS
10
124.521
20
-128.73
11
124.712
21
-128.635
0
LINE
8
BLACK
6
CONTINUOUS
10
126.045
20
-128.635
11
127.283
21
-128.635
0
LINE
8
BLACK
6
CONTINUOUS
10
127.283
20
-128.635
11
126.617
21
-129.397
0
LINE
8
BLACK
6
CONTINUOUS
10
126.617
20
-129.397
11
126.902
21
-129.397
0
LINE
8
BLACK
6
CONTINUOUS
10
126.902
20
-129.397
11
127.093
21
-129.492
0
LINE
8
BLACK
6
CONTINUOUS
10
127.093
20
-129.492
11
127.188
21
-129.587
0
LINE
8
BLACK
6
CONTINUOUS
10
127.188
20
-129.587
11
127.283
21
-129.778
0
LINE
8
BLACK
6
CONTINUOUS
10
127.283
20
-129.778
11
127.283
21
-130.254
0
LINE
8
BLACK
6
CONTINUOUS
10
127.283
20
-130.254
11
127.188
21
-130.444
0
LINE
8
BLACK
6
CONTINUOUS
10
127.188
20
-130.444
11
127.093
21
-130.54
0
LINE
8
BLACK
6
CONTINUOUS
10
127.093
20
-130.54
11
126.902
21
-130.635
0
LINE
8
BLACK
6
CONTINUOUS
10
126.902
20
-130.635
11
126.331
21
-130.635
0
LINE
8
BLACK
6
CONTINUOUS
10
126.331
20
-130.635
11
126.14
21
-130.54
0
LINE
8
BLACK
6
CONTINUOUS
10
126.14
20
-130.54
11
126.045
21
-130.444
0
LINE
8
BLACK
6
CONTINUOUS
10
129.188
20
-130.635
11
128.045
21
-130.635
0
LINE
8
BLACK
6
CONTINUOUS
10
128.617
20
-130.635
11
128.617
21
-128.635
0
LINE
8
BLACK
6
CONTINUOUS
10
128.617
20
-128.635
11
128.426
21
-128.92
0
LINE
8
BLACK
6
CONTINUOUS
10
128.426
20
-128.92
11
128.236
21
-129.111
0
LINE
8
BLACK
6
CONTINUOUS
10
128.236
20
-129.111
11
128.045
21
-129.206
0
LINE
8
BLACK
6
CONTINUOUS
10
130.998
20
-128.635
11
130.045
21
-128.635
0
LINE
8
BLACK
6
CONTINUOUS
10
130.045
20
-128.635
11
129.95
21
-129.587
0
LINE
8
BLACK
6
CONTINUOUS
10
129.95
20
-129.587
11
130.045
21
-129.492
0
LINE
8
BLACK
6
CONTINUOUS
10
130.045
20
-129.492
11
130.236
21
-129.397
0
LINE
8
BLACK
6
CONTINUOUS
10
130.236
20
-129.397
11
130.712
21
-129.397
0
LINE
8
BLACK
6
CONTINUOUS
10
130.712
20
-129.397
11
130.902
21
-129.492
0
LINE
8
BLACK
6
CONTINUOUS
10
130.902
20
-129.492
11
130.998
21
-129.587
0
LINE
8
BLACK
6
CONTINUOUS
10
130.998
20
-129.587
11
131.093
21
-129.778
0
LINE
8
BLACK
6
CONTINUOUS
10
131.093
20
-129.778
11
131.093
21
-130.254
0
LINE
8
BLACK
6
CONTINUOUS
10
131.093
20
-130.254
11
130.998
21
-130.444
0
LINE
8
BLACK
6
CONTINUOUS
10
130.998
20
-130.444
11
130.902
21
-130.54
0
LINE
8
BLACK
6
CONTINUOUS
10
130.902
20
-130.54
11
130.712
21
-130.635
0
LINE
8
BLACK
6
CONTINUOUS
10
130.712
20
-130.635
11
130.236
21
-130.635
0
LINE
8
BLACK
6
CONTINUOUS
10
130.236
20
-130.635
11
130.045
21
-130.54
0
LINE
8
BLACK
6
CONTINUOUS
10
130.045
20
-130.54
11
129.95
21
-130.444
0
LINE
8
BLACK
6
CONTINUOUS
10
131.855
20
-128.635
11
131.855
21
-129.016
0
LINE
8
BLACK
6
CONTINUOUS
10
132.617
20
-128.635
11
132.617
21
-129.016
0
LINE
8
BLACK
6
CONTINUOUS
10
135.569
20
-131.397
11
135.474
21
-131.301
0
LINE
8
BLACK
6
CONTINUOUS
10
135.474
20
-131.301
11
135.283
21
-131.016
0
LINE
8
BLACK
6
CONTINUOUS
10
135.283
20
-131.016
11
135.188
21
-130.825
0
LINE
8
BLACK
6
CONTINUOUS
10
135.188
20
-130.825
11
135.093
21
-130.54
0
LINE
8
BLACK
6
CONTINUOUS
10
135.093
20
-130.54
11
134.998
21
-130.063
0
LINE
8
BLACK
6
CONTINUOUS
10
134.998
20
-130.063
11
134.998
21
-129.682
0
LINE
8
BLACK
6
CONTINUOUS
10
134.998
20
-129.682
11
135.093
21
-129.206
0
LINE
8
BLACK
6
CONTINUOUS
10
135.093
20
-129.206
11
135.188
21
-128.92
0
LINE
8
BLACK
6
CONTINUOUS
10
135.188
20
-128.92
11
135.283
21
-128.73
0
LINE
8
BLACK
6
CONTINUOUS
10
135.283
20
-128.73
11
135.474
21
-128.444
0
LINE
8
BLACK
6
CONTINUOUS
10
135.474
20
-128.444
11
135.569
21
-128.349
0
LINE
8
BLACK
6
CONTINUOUS
10
136.617
20
-129.492
11
136.426
21
-129.397
0
LINE
8
BLACK
6
CONTINUOUS
10
136.426
20
-129.397
11
136.331
21
-129.301
0
LINE
8
BLACK
6
CONTINUOUS
10
136.331
20
-129.301
11
136.236
21
-129.111
0
LINE
8
BLACK
6
CONTINUOUS
10
136.236
20
-129.111
11
136.236
21
-129.016
0
LINE
8
BLACK
6
CONTINUOUS
10
136.236
20
-129.016
11
136.331
21
-128.825
0
LINE
8
BLACK
6
CONTINUOUS
10
136.331
20
-128.825
11
136.426
21
-128.73
0
LINE
8
BLACK
6
CONTINUOUS
10
136.426
20
-128.73
11
136.617
21
-128.635
0
LINE
8
BLACK
6
CONTINUOUS
10
136.617
20
-128.635
11
136.998
21
-128.635
0
LINE
8
BLACK
6
CONTINUOUS
10
136.998
20
-128.635
11
137.188
21
-128.73
0
LINE
8
BLACK
6
CONTINUOUS
10
137.188
20
-128.73
11
137.283
21
-128.825
0
LINE
8
BLACK
6
CONTINUOUS
10
137.283
20
-128.825
11
137.379
21
-129.016
0
LINE
8
BLACK
6
CONTINUOUS
10
137.379
20
-129.016
11
137.379
21
-129.111
0
LINE
8
BLACK
6
CONTINUOUS
10
137.379
20
-129.111
11
137.283
21
-129.301
0
LINE
8
BLACK
6
CONTINUOUS
10
137.283
20
-129.301
11
137.188
21
-129.397
0
LINE
8
BLACK
6
CONTINUOUS
10
137.188
20
-129.397
11
136.998
21
-129.492
0
LINE
8
BLACK
6
CONTINUOUS
10
136.998
20
-129.492
11
136.617
21
-129.492
0
LINE
8
BLACK
6
CONTINUOUS
10
136.617
20
-129.492
11
136.426
21
-129.587
0
LINE
8
BLACK
6
CONTINUOUS
10
136.426
20
-129.587
11
136.331
21
-129.682
0
LINE
8
BLACK
6
CONTINUOUS
10
136.331
20
-129.682
11
136.236
21
-129.873
0
LINE
8
BLACK
6
CONTINUOUS
10
136.236
20
-129.873
11
136.236
21
-130.254
0
LINE
8
BLACK
6
CONTINUOUS
10
136.236
20
-130.254
11
136.331
21
-130.444
0
LINE
8
BLACK
6
CONTINUOUS
10
136.331
20
-130.444
11
136.426
21
-130.54
0
LINE
8
BLACK
6
CONTINUOUS
10
136.426
20
-130.54
11
136.617
21
-130.635
0
LINE
8
BLACK
6
CONTINUOUS
10
136.617
20
-130.635
11
136.998
21
-130.635
0
LINE
8
BLACK
6
CONTINUOUS
10
136.998
20
-130.635
11
137.188
21
-130.54
0
LINE
8
BLACK
6
CONTINUOUS
10
137.188
20
-130.54
11
137.283
21
-130.444
0
LINE
8
BLACK
6
CONTINUOUS
10
137.283
20
-130.444
11
137.379
21
-130.254
0
LINE
8
BLACK
6
CONTINUOUS
10
137.379
20
-130.254
11
137.379
21
-129.873
0
LINE
8
BLACK
6
CONTINUOUS
10
137.379
20
-129.873
11
137.283
21
-129.682
0
LINE
8
BLACK
6
CONTINUOUS
10
137.283
20
-129.682
11
137.188
21
-129.587
0
LINE
8
BLACK
6
CONTINUOUS
10
137.188
20
-129.587
11
136.998
21
-129.492
0
LINE
8
BLACK
6
CONTINUOUS
10
139.093
20
-128.635
11
138.712
21
-128.635
0
LINE
8
BLACK
6
CONTINUOUS
10
138.712
20
-128.635
11
138.521
21
-128.73
0
LINE
8
BLACK
6
CONTINUOUS
10
138.521
20
-128.73
11
138.426
21
-128.825
0
LINE
8
BLACK
6
CONTINUOUS
10
138.426
20
-128.825
11
138.236
21
-129.111
0
LINE
8
BLACK
6
CONTINUOUS
10
138.236
20
-129.111
11
138.14
21
-129.492
0
LINE
8
BLACK
6
CONTINUOUS
10
138.14
20
-129.492
11
138.14
21
-130.254
0
LINE
8
BLACK
6
CONTINUOUS
10
138.14
20
-130.254
11
138.236
21
-130.444
0
LINE
8
BLACK
6
CONTINUOUS
10
138.236
20
-130.444
11
138.331
21
-130.54
0
LINE
8
BLACK
6
CONTINUOUS
10
138.331
20
-130.54
11
138.521
21
-130.635
0
LINE
8
BLACK
6
CONTINUOUS
10
138.521
20
-130.635
11
138.902
21
-130.635
0
LINE
8
BLACK
6
CONTINUOUS
10
138.902
20
-130.635
11
139.093
21
-130.54
0
LINE
8
BLACK
6
CONTINUOUS
10
139.093
20
-130.54
11
139.188
21
-130.444
0
LINE
8
BLACK
6
CONTINUOUS
10
139.188
20
-130.444
11
139.283
21
-130.254
0
LINE
8
BLACK
6
CONTINUOUS
10
139.283
20
-130.254
11
139.283
21
-129.778
0
LINE
8
BLACK
6
CONTINUOUS
10
139.283
20
-129.778
11
139.188
21
-129.587
0
LINE
8
BLACK
6
CONTINUOUS
10
139.188
20
-129.587
11
139.093
21
-129.492
0
LINE
8
BLACK
6
CONTINUOUS
10
139.093
20
-129.492
11
138.902
21
-129.397
0
LINE
8
BLACK
6
CONTINUOUS
10
138.902
20
-129.397
11
138.521
21
-129.397
0
LINE
8
BLACK
6
CONTINUOUS
10
138.521
20
-129.397
11
138.331
21
-129.492
0
LINE
8
BLACK
6
CONTINUOUS
10
138.331
20
-129.492
11
138.236
21
-129.587
0
LINE
8
BLACK
6
CONTINUOUS
10
138.236
20
-129.587
11
138.14
21
-129.778
0
LINE
8
BLACK
6
CONTINUOUS
10
141.664
20
-130.635
11
141.664
21
-128.635
0
LINE
8
BLACK
6
CONTINUOUS
10
142.521
20
-130.635
11
142.521
21
-129.587
0
LINE
8
BLACK
6
CONTINUOUS
10
142.521
20
-129.587
11
142.426
21
-129.397
0
LINE
8
BLACK
6
CONTINUOUS
10
142.426
20
-129.397
11
142.236
21
-129.301
0
LINE
8
BLACK
6
CONTINUOUS
10
142.236
20
-129.301
11
141.95
21
-129.301
0
LINE
8
BLACK
6
CONTINUOUS
10
141.95
20
-129.301
11
141.76
21
-129.397
0
LINE
8
BLACK
6
CONTINUOUS
10
141.76
20
-129.397
11
141.664
21
-129.492
0
LINE
8
BLACK
6
CONTINUOUS
10
143.76
20
-130.635
11
143.569
21
-130.54
0
LINE
8
BLACK
6
CONTINUOUS
10
143.569
20
-130.54
11
143.474
21
-130.444
0
LINE
8
BLACK
6
CONTINUOUS
10
143.474
20
-130.444
11
143.379
21
-130.254
0
LINE
8
BLACK
6
CONTINUOUS
10
143.379
20
-130.254
11
143.379
21
-129.682
0
LINE
8
BLACK
6
CONTINUOUS
10
143.379
20
-129.682
11
143.474
21
-129.492
0
LINE
8
BLACK
6
CONTINUOUS
10
143.474
20
-129.492
11
143.569
21
-129.397
0
LINE
8
BLACK
6
CONTINUOUS
10
143.569
20
-129.397
11
143.76
21
-129.301
0
LINE
8
BLACK
6
CONTINUOUS
10
143.76
20
-129.301
11
144.045
21
-129.301
0
LINE
8
BLACK
6
CONTINUOUS
10
144.045
20
-129.301
11
144.236
21
-129.397
0
LINE
8
BLACK
6
CONTINUOUS
10
144.236
20
-129.397
11
144.331
21
-129.492
0
LINE
8
BLACK
6
CONTINUOUS
10
144.331
20
-129.492
11
144.426
21
-129.682
0
LINE
8
BLACK
6
CONTINUOUS
10
144.426
20
-129.682
11
144.426
21
-130.254
0
LINE
8
BLACK
6
CONTINUOUS
10
144.426
20
-130.254
11
144.331
21
-130.444
0
LINE
8
BLACK
6
CONTINUOUS
10
144.331
20
-130.444
11
144.236
21
-130.54
0
LINE
8
BLACK
6
CONTINUOUS
10
144.236
20
-130.54
11
144.045
21
-130.635
0
LINE
8
BLACK
6
CONTINUOUS
10
144.045
20
-130.635
11
143.76
21
-130.635
0
LINE
8
BLACK
6
CONTINUOUS
10
145.569
20
-130.635
11
145.379
21
-130.54
0
LINE
8
BLACK
6
CONTINUOUS
10
145.379
20
-130.54
11
145.283
21
-130.349
0
LINE
8
BLACK
6
CONTINUOUS
10
145.283
20
-130.349
11
145.283
21
-128.635
0
LINE
8
BLACK
6
CONTINUOUS
10
147.093
20
-130.54
11
146.902
21
-130.635
0
LINE
8
BLACK
6
CONTINUOUS
10
146.902
20
-130.635
11
146.521
21
-130.635
0
LINE
8
BLACK
6
CONTINUOUS
10
146.521
20
-130.635
11
146.331
21
-130.54
0
LINE
8
BLACK
6
CONTINUOUS
10
146.331
20
-130.54
11
146.236
21
-130.349
0
LINE
8
BLACK
6
CONTINUOUS
10
146.236
20
-130.349
11
146.236
21
-129.587
0
LINE
8
BLACK
6
CONTINUOUS
10
146.236
20
-129.587
11
146.331
21
-129.397
0
LINE
8
BLACK
6
CONTINUOUS
10
146.331
20
-129.397
11
146.521
21
-129.301
0
LINE
8
BLACK
6
CONTINUOUS
10
146.521
20
-129.301
11
146.902
21
-129.301
0
LINE
8
BLACK
6
CONTINUOUS
10
146.902
20
-129.301
11
147.093
21
-129.397
0
LINE
8
BLACK
6
CONTINUOUS
10
147.093
20
-129.397
11
147.188
21
-129.587
0
LINE
8
BLACK
6
CONTINUOUS
10
147.188
20
-129.587
11
147.188
21
-129.778
0
LINE
8
BLACK
6
CONTINUOUS
10
147.188
20
-129.778
11
146.236
21
-129.968
0
LINE
8
BLACK
6
CONTINUOUS
10
147.95
20
-130.54
11
148.14
21
-130.635
0
LINE
8
BLACK
6
CONTINUOUS
10
148.14
20
-130.635
11
148.521
21
-130.635
0
LINE
8
BLACK
6
CONTINUOUS
10
148.521
20
-130.635
11
148.712
21
-130.54
0
LINE
8
BLACK
6
CONTINUOUS
10
148.712
20
-130.54
11
148.807
21
-130.349
0
LINE
8
BLACK
6
CONTINUOUS
10
148.807
20
-130.349
11
148.807
21
-130.254
0
LINE
8
BLACK
6
CONTINUOUS
10
148.807
20
-130.254
11
148.712
21
-130.063
0
LINE
8
BLACK
6
CONTINUOUS
10
148.712
20
-130.063
11
148.521
21
-129.968
0
LINE
8
BLACK
6
CONTINUOUS
10
148.521
20
-129.968
11
148.236
21
-129.968
0
LINE
8
BLACK
6
CONTINUOUS
10
148.236
20
-129.968
11
148.045
21
-129.873
0
LINE
8
BLACK
6
CONTINUOUS
10
148.045
20
-129.873
11
147.95
21
-129.682
0
LINE
8
BLACK
6
CONTINUOUS
10
147.95
20
-129.682
11
147.95
21
-129.587
0
LINE
8
BLACK
6
CONTINUOUS
10
147.95
20
-129.587
11
148.045
21
-129.397
0
LINE
8
BLACK
6
CONTINUOUS
10
148.045
20
-129.397
11
148.236
21
-129.301
0
LINE
8
BLACK
6
CONTINUOUS
10
148.236
20
-129.301
11
148.521
21
-129.301
0
LINE
8
BLACK
6
CONTINUOUS
10
148.521
20
-129.301
11
148.712
21
-129.397
0
LINE
8
BLACK
6
CONTINUOUS
10
149.474
20
-131.397
11
149.569
21
-131.301
0
LINE
8
BLACK
6
CONTINUOUS
10
149.569
20
-131.301
11
149.76
21
-131.016
0
LINE
8
BLACK
6
CONTINUOUS
10
149.76
20
-131.016
11
149.855
21
-130.825
0
LINE
8
BLACK
6
CONTINUOUS
10
149.855
20
-130.825
11
149.95
21
-130.54
0
LINE
8
BLACK
6
CONTINUOUS
10
149.95
20
-130.54
11
150.045
21
-130.063
0
LINE
8
BLACK
6
CONTINUOUS
10
150.045
20
-130.063
11
150.045
21
-129.682
0
LINE
8
BLACK
6
CONTINUOUS
10
150.045
20
-129.682
11
149.95
21
-129.206
0
LINE
8
BLACK
6
CONTINUOUS
10
149.95
20
-129.206
11
149.855
21
-128.92
0
LINE
8
BLACK
6
CONTINUOUS
10
149.855
20
-128.92
11
149.76
21
-128.73
0
LINE
8
BLACK
6
CONTINUOUS
10
149.76
20
-128.73
11
149.569
21
-128.444
0
LINE
8
BLACK
6
CONTINUOUS
10
149.569
20
-128.444
11
149.474
21
-128.349
0
LINE
8
BLACK
6
CONTINUOUS
10
99.7182
20
-132.688
11
99.7182
21
-132.052
0
LINE
8
BLACK
6
CONTINUOUS
10
99.7182
20
-132.052
11
99.0818
21
-132.052
0
LINE
8
BLACK
6
CONTINUOUS
10
99.0818
20
-132.052
11
99.0818
21
-132.688
0
LINE
8
BLACK
6
CONTINUOUS
10
99.0818
20
-132.688
11
99.7182
21
-132.688
0
LINE
8
BLACK
6
CONTINUOUS
10
102.807
20
-131.275
11
102.998
21
-131.275
0
LINE
8
BLACK
6
CONTINUOUS
10
102.998
20
-131.275
11
103.188
21
-131.37
0
LINE
8
BLACK
6
CONTINUOUS
10
103.188
20
-131.37
11
103.283
21
-131.465
0
LINE
8
BLACK
6
CONTINUOUS
10
103.283
20
-131.465
11
103.379
21
-131.656
0
LINE
8
BLACK
6
CONTINUOUS
10
103.379
20
-131.656
11
103.474
21
-132.037
0
LINE
8
BLACK
6
CONTINUOUS
10
103.474
20
-132.037
11
103.474
21
-132.513
0
LINE
8
BLACK
6
CONTINUOUS
10
103.474
20
-132.513
11
103.379
21
-132.894
0
LINE
8
BLACK
6
CONTINUOUS
10
103.379
20
-132.894
11
103.283
21
-133.084
0
LINE
8
BLACK
6
CONTINUOUS
10
103.283
20
-133.084
11
103.188
21
-133.18
0
LINE
8
BLACK
6
CONTINUOUS
10
103.188
20
-133.18
11
102.998
21
-133.275
0
LINE
8
BLACK
6
CONTINUOUS
10
102.998
20
-133.275
11
102.807
21
-133.275
0
LINE
8
BLACK
6
CONTINUOUS
10
102.807
20
-133.275
11
102.617
21
-133.18
0
LINE
8
BLACK
6
CONTINUOUS
10
102.617
20
-133.18
11
102.521
21
-133.084
0
LINE
8
BLACK
6
CONTINUOUS
10
102.521
20
-133.084
11
102.426
21
-132.894
0
LINE
8
BLACK
6
CONTINUOUS
10
102.426
20
-132.894
11
102.331
21
-132.513
0
LINE
8
BLACK
6
CONTINUOUS
10
102.331
20
-132.513
11
102.331
21
-132.037
0
LINE
8
BLACK
6
CONTINUOUS
10
102.331
20
-132.037
11
102.426
21
-131.656
0
LINE
8
BLACK
6
CONTINUOUS
10
102.426
20
-131.656
11
102.521
21
-131.465
0
LINE
8
BLACK
6
CONTINUOUS
10
102.521
20
-131.465
11
102.617
21
-131.37
0
LINE
8
BLACK
6
CONTINUOUS
10
102.617
20
-131.37
11
102.807
21
-131.275
0
LINE
8
BLACK
6
CONTINUOUS
10
104.331
20
-133.084
11
104.426
21
-133.18
0
LINE
8
BLACK
6
CONTINUOUS
10
104.426
20
-133.18
11
104.331
21
-133.275
0
LINE
8
BLACK
6
CONTINUOUS
10
104.331
20
-133.275
11
104.236
21
-133.18
0
LINE
8
BLACK
6
CONTINUOUS
10
104.236
20
-133.18
11
104.331
21
-133.084
0
LINE
8
BLACK
6
CONTINUOUS
10
104.331
20
-133.084
11
104.331
21
-133.275
0
LINE
8
BLACK
6
CONTINUOUS
10
105.379
20
-133.275
11
105.76
21
-133.275
0
LINE
8
BLACK
6
CONTINUOUS
10
105.76
20
-133.275
11
105.95
21
-133.18
0
LINE
8
BLACK
6
CONTINUOUS
10
105.95
20
-133.18
11
106.045
21
-133.084
0
LINE
8
BLACK
6
CONTINUOUS
10
106.045
20
-133.084
11
106.236
21
-132.799
0
LINE
8
BLACK
6
CONTINUOUS
10
106.236
20
-132.799
11
106.331
21
-132.418
0
LINE
8
BLACK
6
CONTINUOUS
10
106.331
20
-132.418
11
106.331
21
-131.656
0
LINE
8
BLACK
6
CONTINUOUS
10
106.331
20
-131.656
11
106.236
21
-131.465
0
LINE
8
BLACK
6
CONTINUOUS
10
106.236
20
-131.465
11
106.14
21
-131.37
0
LINE
8
BLACK
6
CONTINUOUS
10
106.14
20
-131.37
11
105.95
21
-131.275
0
LINE
8
BLACK
6
CONTINUOUS
10
105.95
20
-131.275
11
105.569
21
-131.275
0
LINE
8
BLACK
6
CONTINUOUS
10
105.569
20
-131.275
11
105.379
21
-131.37
0
LINE
8
BLACK
6
CONTINUOUS
10
105.379
20
-131.37
11
105.283
21
-131.465
0
LINE
8
BLACK
6
CONTINUOUS
10
105.283
20
-131.465
11
105.188
21
-131.656
0
LINE
8
BLACK
6
CONTINUOUS
10
105.188
20
-131.656
11
105.188
21
-132.132
0
LINE
8
BLACK
6
CONTINUOUS
10
105.188
20
-132.132
11
105.283
21
-132.322
0
LINE
8
BLACK
6
CONTINUOUS
10
105.283
20
-132.322
11
105.379
21
-132.418
0
LINE
8
BLACK
6
CONTINUOUS
10
105.379
20
-132.418
11
105.569
21
-132.513
0
LINE
8
BLACK
6
CONTINUOUS
10
105.569
20
-132.513
11
105.95
21
-132.513
0
LINE
8
BLACK
6
CONTINUOUS
10
105.95
20
-132.513
11
106.14
21
-132.418
0
LINE
8
BLACK
6
CONTINUOUS
10
106.14
20
-132.418
11
106.236
21
-132.322
0
LINE
8
BLACK
6
CONTINUOUS
10
106.236
20
-132.322
11
106.331
21
-132.132
0
LINE
8
BLACK
6
CONTINUOUS
10
107.569
20
-131.275
11
107.76
21
-131.275
0
LINE
8
BLACK
6
CONTINUOUS
10
107.76
20
-131.275
11
107.95
21
-131.37
0
LINE
8
BLACK
6
CONTINUOUS
10
107.95
20
-131.37
11
108.045
21
-131.465
0
LINE
8
BLACK
6
CONTINUOUS
10
108.045
20
-131.465
11
108.14
21
-131.656
0
LINE
8
BLACK
6
CONTINUOUS
10
108.14
20
-131.656
11
108.236
21
-132.037
0
LINE
8
BLACK
6
CONTINUOUS
10
108.236
20
-132.037
11
108.236
21
-132.513
0
LINE
8
BLACK
6
CONTINUOUS
10
108.236
20
-132.513
11
108.14
21
-132.894
0
LINE
8
BLACK
6
CONTINUOUS
10
108.14
20
-132.894
11
108.045
21
-133.084
0
LINE
8
BLACK
6
CONTINUOUS
10
108.045
20
-133.084
11
107.95
21
-133.18
0
LINE
8
BLACK
6
CONTINUOUS
10
107.95
20
-133.18
11
107.76
21
-133.275
0
LINE
8
BLACK
6
CONTINUOUS
10
107.76
20
-133.275
11
107.569
21
-133.275
0
LINE
8
BLACK
6
CONTINUOUS
10
107.569
20
-133.275
11
107.379
21
-133.18
0
LINE
8
BLACK
6
CONTINUOUS
10
107.379
20
-133.18
11
107.283
21
-133.084
0
LINE
8
BLACK
6
CONTINUOUS
10
107.283
20
-133.084
11
107.188
21
-132.894
0
LINE
8
BLACK
6
CONTINUOUS
10
107.188
20
-132.894
11
107.093
21
-132.513
0
LINE
8
BLACK
6
CONTINUOUS
10
107.093
20
-132.513
11
107.093
21
-132.037
0
LINE
8
BLACK
6
CONTINUOUS
10
107.093
20
-132.037
11
107.188
21
-131.656
0
LINE
8
BLACK
6
CONTINUOUS
10
107.188
20
-131.656
11
107.283
21
-131.465
0
LINE
8
BLACK
6
CONTINUOUS
10
107.283
20
-131.465
11
107.379
21
-131.37
0
LINE
8
BLACK
6
CONTINUOUS
10
107.379
20
-131.37
11
107.569
21
-131.275
0
LINE
8
BLACK
6
CONTINUOUS
10
109.474
20
-131.275
11
109.664
21
-131.275
0
LINE
8
BLACK
6
CONTINUOUS
10
109.664
20
-131.275
11
109.855
21
-131.37
0
LINE
8
BLACK
6
CONTINUOUS
10
109.855
20
-131.37
11
109.95
21
-131.465
0
LINE
8
BLACK
6
CONTINUOUS
10
109.95
20
-131.465
11
110.045
21
-131.656
0
LINE
8
BLACK
6
CONTINUOUS
10
110.045
20
-131.656
11
110.14
21
-132.037
0
LINE
8
BLACK
6
CONTINUOUS
10
110.14
20
-132.037
11
110.14
21
-132.513
0
LINE
8
BLACK
6
CONTINUOUS
10
110.14
20
-132.513
11
110.045
21
-132.894
0
LINE
8
BLACK
6
CONTINUOUS
10
110.045
20
-132.894
11
109.95
21
-133.084
0
LINE
8
BLACK
6
CONTINUOUS
10
109.95
20
-133.084
11
109.855
21
-133.18
0
LINE
8
BLACK
6
CONTINUOUS
10
109.855
20
-133.18
11
109.664
21
-133.275
0
LINE
8
BLACK
6
CONTINUOUS
10
109.664
20
-133.275
11
109.474
21
-133.275
0
LINE
8
BLACK
6
CONTINUOUS
10
109.474
20
-133.275
11
109.283
21
-133.18
0
LINE
8
BLACK
6
CONTINUOUS
10
109.283
20
-133.18
11
109.188
21
-133.084
0
LINE
8
BLACK
6
CONTINUOUS
10
109.188
20
-133.084
11
109.093
21
-132.894
0
LINE
8
BLACK
6
CONTINUOUS
10
109.093
20
-132.894
11
108.998
21
-132.513
0
LINE
8
BLACK
6
CONTINUOUS
10
108.998
20
-132.513
11
108.998
21
-132.037
0
LINE
8
BLACK
6
CONTINUOUS
10
108.998
20
-132.037
11
109.093
21
-131.656
0
LINE
8
BLACK
6
CONTINUOUS
10
109.093
20
-131.656
11
109.188
21
-131.465
0
LINE
8
BLACK
6
CONTINUOUS
10
109.188
20
-131.465
11
109.283
21
-131.37
0
LINE
8
BLACK
6
CONTINUOUS
10
109.283
20
-131.37
11
109.474
21
-131.275
0
LINE
8
BLACK
6
CONTINUOUS
10
110.998
20
-133.275
11
110.998
21
-131.941
0
LINE
8
BLACK
6
CONTINUOUS
10
110.998
20
-132.132
11
111.093
21
-132.037
0
LINE
8
BLACK
6
CONTINUOUS
10
111.093
20
-132.037
11
111.283
21
-131.941
0
LINE
8
BLACK
6
CONTINUOUS
10
111.283
20
-131.941
11
111.569
21
-131.941
0
LINE
8
BLACK
6
CONTINUOUS
10
111.569
20
-131.941
11
111.76
21
-132.037
0
LINE
8
BLACK
6
CONTINUOUS
10
111.76
20
-132.037
11
111.855
21
-132.227
0
LINE
8
BLACK
6
CONTINUOUS
10
111.855
20
-132.227
11
111.855
21
-133.275
0
LINE
8
BLACK
6
CONTINUOUS
10
111.855
20
-132.227
11
111.95
21
-132.037
0
LINE
8
BLACK
6
CONTINUOUS
10
111.95
20
-132.037
11
112.14
21
-131.941
0
LINE
8
BLACK
6
CONTINUOUS
10
112.14
20
-131.941
11
112.426
21
-131.941
0
LINE
8
BLACK
6
CONTINUOUS
10
112.426
20
-131.941
11
112.617
21
-132.037
0
LINE
8
BLACK
6
CONTINUOUS
10
112.617
20
-132.037
11
112.712
21
-132.227
0
LINE
8
BLACK
6
CONTINUOUS
10
112.712
20
-132.227
11
112.712
21
-133.275
0
LINE
8
BLACK
6
CONTINUOUS
10
113.664
20
-133.275
11
113.664
21
-131.941
0
LINE
8
BLACK
6
CONTINUOUS
10
113.664
20
-132.132
11
113.76
21
-132.037
0
LINE
8
BLACK
6
CONTINUOUS
10
113.76
20
-132.037
11
113.95
21
-131.941
0
LINE
8
BLACK
6
CONTINUOUS
10
113.95
20
-131.941
11
114.236
21
-131.941
0
LINE
8
BLACK
6
CONTINUOUS
10
114.236
20
-131.941
11
114.426
21
-132.037
0
LINE
8
BLACK
6
CONTINUOUS
10
114.426
20
-132.037
11
114.521
21
-132.227
0
LINE
8
BLACK
6
CONTINUOUS
10
114.521
20
-132.227
11
114.521
21
-133.275
0
LINE
8
BLACK
6
CONTINUOUS
10
114.521
20
-132.227
11
114.617
21
-132.037
0
LINE
8
BLACK
6
CONTINUOUS
10
114.617
20
-132.037
11
114.807
21
-131.941
0
LINE
8
BLACK
6
CONTINUOUS
10
114.807
20
-131.941
11
115.093
21
-131.941
0
LINE
8
BLACK
6
CONTINUOUS
10
115.093
20
-131.941
11
115.283
21
-132.037
0
LINE
8
BLACK
6
CONTINUOUS
10
115.283
20
-132.037
11
115.379
21
-132.227
0
LINE
8
BLACK
6
CONTINUOUS
10
115.379
20
-132.227
11
115.379
21
-133.275
0
LINE
8
BLACK
6
CONTINUOUS
10
119.283
20
-131.18
11
117.569
21
-133.751
0
LINE
8
BLACK
6
CONTINUOUS
10
121.855
20
-131.275
11
122.045
21
-131.275
0
LINE
8
BLACK
6
CONTINUOUS
10
122.045
20
-131.275
11
122.236
21
-131.37
0
LINE
8
BLACK
6
CONTINUOUS
10
122.236
20
-131.37
11
122.331
21
-131.465
0
LINE
8
BLACK
6
CONTINUOUS
10
122.331
20
-131.465
11
122.426
21
-131.656
0
LINE
8
BLACK
6
CONTINUOUS
10
122.426
20
-131.656
11
122.521
21
-132.037
0
LINE
8
BLACK
6
CONTINUOUS
10
122.521
20
-132.037
11
122.521
21
-132.513
0
LINE
8
BLACK
6
CONTINUOUS
10
122.521
20
-132.513
11
122.426
21
-132.894
0
LINE
8
BLACK
6
CONTINUOUS
10
122.426
20
-132.894
11
122.331
21
-133.084
0
LINE
8
BLACK
6
CONTINUOUS
10
122.331
20
-133.084
11
122.236
21
-133.18
0
LINE
8
BLACK
6
CONTINUOUS
10
122.236
20
-133.18
11
122.045
21
-133.275
0
LINE
8
BLACK
6
CONTINUOUS
10
122.045
20
-133.275
11
121.855
21
-133.275
0
LINE
8
BLACK
6
CONTINUOUS
10
121.855
20
-133.275
11
121.664
21
-133.18
0
LINE
8
BLACK
6
CONTINUOUS
10
121.664
20
-133.18
11
121.569
21
-133.084
0
LINE
8
BLACK
6
CONTINUOUS
10
121.569
20
-133.084
11
121.474
21
-132.894
0
LINE
8
BLACK
6
CONTINUOUS
10
121.474
20
-132.894
11
121.379
21
-132.513
0
LINE
8
BLACK
6
CONTINUOUS
10
121.379
20
-132.513
11
121.379
21
-132.037
0
LINE
8
BLACK
6
CONTINUOUS
10
121.379
20
-132.037
11
121.474
21
-131.656
0
LINE
8
BLACK
6
CONTINUOUS
10
121.474
20
-131.656
11
121.569
21
-131.465
0
LINE
8
BLACK
6
CONTINUOUS
10
121.569
20
-131.465
11
121.664
21
-131.37
0
LINE
8
BLACK
6
CONTINUOUS
10
121.664
20
-131.37
11
121.855
21
-131.275
0
LINE
8
BLACK
6
CONTINUOUS
10
123.379
20
-133.084
11
123.474
21
-133.18
0
LINE
8
BLACK
6
CONTINUOUS
10
123.474
20
-133.18
11
123.379
21
-133.275
0
LINE
8
BLACK
6
CONTINUOUS
10
123.379
20
-133.275
11
123.283
21
-133.18
0
LINE
8
BLACK
6
CONTINUOUS
10
123.283
20
-133.18
11
123.379
21
-133.084
0
LINE
8
BLACK
6
CONTINUOUS
10
123.379
20
-133.084
11
123.379
21
-133.275
0
LINE
8
BLACK
6
CONTINUOUS
10
124.712
20
-131.275
11
124.902
21
-131.275
0
LINE
8
BLACK
6
CONTINUOUS
10
124.902
20
-131.275
11
125.093
21
-131.37
0
LINE
8
BLACK
6
CONTINUOUS
10
125.093
20
-131.37
11
125.188
21
-131.465
0
LINE
8
BLACK
6
CONTINUOUS
10
125.188
20
-131.465
11
125.283
21
-131.656
0
LINE
8
BLACK
6
CONTINUOUS
10
125.283
20
-131.656
11
125.379
21
-132.037
0
LINE
8
BLACK
6
CONTINUOUS
10
125.379
20
-132.037
11
125.379
21
-132.513
0
LINE
8
BLACK
6
CONTINUOUS
10
125.379
20
-132.513
11
125.283
21
-132.894
0
LINE
8
BLACK
6
CONTINUOUS
10
125.283
20
-132.894
11
125.188
21
-133.084
0
LINE
8
BLACK
6
CONTINUOUS
10
125.188
20
-133.084
11
125.093
21
-133.18
0
LINE
8
BLACK
6
CONTINUOUS
10
125.093
20
-133.18
11
124.902
21
-133.275
0
LINE
8
BLACK
6
CONTINUOUS
10
124.902
20
-133.275
11
124.712
21
-133.275
0
LINE
8
BLACK
6
CONTINUOUS
10
124.712
20
-133.275
11
124.521
21
-133.18
0
LINE
8
BLACK
6
CONTINUOUS
10
124.521
20
-133.18
11
124.426
21
-133.084
0
LINE
8
BLACK
6
CONTINUOUS
10
124.426
20
-133.084
11
124.331
21
-132.894
0
LINE
8
BLACK
6
CONTINUOUS
10
124.331
20
-132.894
11
124.236
21
-132.513
0
LINE
8
BLACK
6
CONTINUOUS
10
124.236
20
-132.513
11
124.236
21
-132.037
0
LINE
8
BLACK
6
CONTINUOUS
10
124.236
20
-132.037
11
124.331
21
-131.656
0
LINE
8
BLACK
6
CONTINUOUS
10
124.331
20
-131.656
11
124.426
21
-131.465
0
LINE
8
BLACK
6
CONTINUOUS
10
124.426
20
-131.465
11
124.521
21
-131.37
0
LINE
8
BLACK
6
CONTINUOUS
10
124.521
20
-131.37
11
124.712
21
-131.275
0
LINE
8
BLACK
6
CONTINUOUS
10
126.045
20
-131.275
11
127.283
21
-131.275
0
LINE
8
BLACK
6
CONTINUOUS
10
127.283
20
-131.275
11
126.617
21
-132.037
0
LINE
8
BLACK
6
CONTINUOUS
10
126.617
20
-132.037
11
126.902
21
-132.037
0
LINE
8
BLACK
6
CONTINUOUS
10
126.902
20
-132.037
11
127.093
21
-132.132
0
LINE
8
BLACK
6
CONTINUOUS
10
127.093
20
-132.132
11
127.188
21
-132.227
0
LINE
8
BLACK
6
CONTINUOUS
10
127.188
20
-132.227
11
127.283
21
-132.418
0
LINE
8
BLACK
6
CONTINUOUS
10
127.283
20
-132.418
11
127.283
21
-132.894
0
LINE
8
BLACK
6
CONTINUOUS
10
127.283
20
-132.894
11
127.188
21
-133.084
0
LINE
8
BLACK
6
CONTINUOUS
10
127.188
20
-133.084
11
127.093
21
-133.18
0
LINE
8
BLACK
6
CONTINUOUS
10
127.093
20
-133.18
11
126.902
21
-133.275
0
LINE
8
BLACK
6
CONTINUOUS
10
126.902
20
-133.275
11
126.331
21
-133.275
0
LINE
8
BLACK
6
CONTINUOUS
10
126.331
20
-133.275
11
126.14
21
-133.18
0
LINE
8
BLACK
6
CONTINUOUS
10
126.14
20
-133.18
11
126.045
21
-133.084
0
LINE
8
BLACK
6
CONTINUOUS
10
129.093
20
-131.275
11
128.14
21
-131.275
0
LINE
8
BLACK
6
CONTINUOUS
10
128.14
20
-131.275
11
128.045
21
-132.227
0
LINE
8
BLACK
6
CONTINUOUS
10
128.045
20
-132.227
11
128.14
21
-132.132
0
LINE
8
BLACK
6
CONTINUOUS
10
128.14
20
-132.132
11
128.331
21
-132.037
0
LINE
8
BLACK
6
CONTINUOUS
10
128.331
20
-132.037
11
128.807
21
-132.037
0
LINE
8
BLACK
6
CONTINUOUS
10
128.807
20
-132.037
11
128.998
21
-132.132
0
LINE
8
BLACK
6
CONTINUOUS
10
128.998
20
-132.132
11
129.093
21
-132.227
0
LINE
8
BLACK
6
CONTINUOUS
10
129.093
20
-132.227
11
129.188
21
-132.418
0
LINE
8
BLACK
6
CONTINUOUS
10
129.188
20
-132.418
11
129.188
21
-132.894
0
LINE
8
BLACK
6
CONTINUOUS
10
129.188
20
-132.894
11
129.093
21
-133.084
0
LINE
8
BLACK
6
CONTINUOUS
10
129.093
20
-133.084
11
128.998
21
-133.18
0
LINE
8
BLACK
6
CONTINUOUS
10
128.998
20
-133.18
11
128.807
21
-133.275
0
LINE
8
BLACK
6
CONTINUOUS
10
128.807
20
-133.275
11
128.331
21
-133.275
0
LINE
8
BLACK
6
CONTINUOUS
10
128.331
20
-133.275
11
128.14
21
-133.18
0
LINE
8
BLACK
6
CONTINUOUS
10
128.14
20
-133.18
11
128.045
21
-133.084
0
LINE
8
BLACK
6
CONTINUOUS
10
130.902
20
-131.941
11
130.902
21
-133.275
0
LINE
8
BLACK
6
CONTINUOUS
10
130.426
20
-131.18
11
129.95
21
-132.608
0
LINE
8
BLACK
6
CONTINUOUS
10
129.95
20
-132.608
11
131.188
21
-132.608
0
LINE
8
BLACK
6
CONTINUOUS
10
131.855
20
-131.275
11
131.855
21
-131.656
0
LINE
8
BLACK
6
CONTINUOUS
10
132.617
20
-131.275
11
132.617
21
-131.656
0
LINE
8
BLACK
6
CONTINUOUS
10
135.569
20
-134.037
11
135.474
21
-133.941
0
LINE
8
BLACK
6
CONTINUOUS
10
135.474
20
-133.941
11
135.283
21
-133.656
0
LINE
8
BLACK
6
CONTINUOUS
10
135.283
20
-133.656
11
135.188
21
-133.465
0
LINE
8
BLACK
6
CONTINUOUS
10
135.188
20
-133.465
11
135.093
21
-133.18
0
LINE
8
BLACK
6
CONTINUOUS
10
135.093
20
-133.18
11
134.998
21
-132.703
0
LINE
8
BLACK
6
CONTINUOUS
10
134.998
20
-132.703
11
134.998
21
-132.322
0
LINE
8
BLACK
6
CONTINUOUS
10
134.998
20
-132.322
11
135.093
21
-131.846
0
LINE
8
BLACK
6
CONTINUOUS
10
135.093
20
-131.846
11
135.188
21
-131.56
0
LINE
8
BLACK
6
CONTINUOUS
10
135.188
20
-131.56
11
135.283
21
-131.37
0
LINE
8
BLACK
6
CONTINUOUS
10
135.283
20
-131.37
11
135.474
21
-131.084
0
LINE
8
BLACK
6
CONTINUOUS
10
135.474
20
-131.084
11
135.569
21
-130.989
0
LINE
8
BLACK
6
CONTINUOUS
10
137.188
20
-131.275
11
136.807
21
-131.275
0
LINE
8
BLACK
6
CONTINUOUS
10
136.807
20
-131.275
11
136.617
21
-131.37
0
LINE
8
BLACK
6
CONTINUOUS
10
136.617
20
-131.37
11
136.521
21
-131.465
0
LINE
8
BLACK
6
CONTINUOUS
10
136.521
20
-131.465
11
136.331
21
-131.751
0
LINE
8
BLACK
6
CONTINUOUS
10
136.331
20
-131.751
11
136.236
21
-132.132
0
LINE
8
BLACK
6
CONTINUOUS
10
136.236
20
-132.132
11
136.236
21
-132.894
0
LINE
8
BLACK
6
CONTINUOUS
10
136.236
20
-132.894
11
136.331
21
-133.084
0
LINE
8
BLACK
6
CONTINUOUS
10
136.331
20
-133.084
11
136.426
21
-133.18
0
LINE
8
BLACK
6
CONTINUOUS
10
136.426
20
-133.18
11
136.617
21
-133.275
0
LINE
8
BLACK
6
CONTINUOUS
10
136.617
20
-133.275
11
136.998
21
-133.275
0
LINE
8
BLACK
6
CONTINUOUS
10
136.998
20
-133.275
11
137.188
21
-133.18
0
LINE
8
BLACK
6
CONTINUOUS
10
137.188
20
-133.18
11
137.283
21
-133.084
0
LINE
8
BLACK
6
CONTINUOUS
10
137.283
20
-133.084
11
137.379
21
-132.894
0
LINE
8
BLACK
6
CONTINUOUS
10
137.379
20
-132.894
11
137.379
21
-132.418
0
LINE
8
BLACK
6
CONTINUOUS
10
137.379
20
-132.418
11
137.283
21
-132.227
0
LINE
8
BLACK
6
CONTINUOUS
10
137.283
20
-132.227
11
137.188
21
-132.132
0
LINE
8
BLACK
6
CONTINUOUS
10
137.188
20
-132.132
11
136.998
21
-132.037
0
LINE
8
BLACK
6
CONTINUOUS
10
136.998
20
-132.037
11
136.617
21
-132.037
0
LINE
8
BLACK
6
CONTINUOUS
10
136.617
20
-132.037
11
136.426
21
-132.132
0
LINE
8
BLACK
6
CONTINUOUS
10
136.426
20
-132.132
11
136.331
21
-132.227
0
LINE
8
BLACK
6
CONTINUOUS
10
136.331
20
-132.227
11
136.236
21
-132.418
0
LINE
8
BLACK
6
CONTINUOUS
10
139.76
20
-133.275
11
139.76
21
-131.275
0
LINE
8
BLACK
6
CONTINUOUS
10
140.617
20
-133.275
11
140.617
21
-132.227
0
LINE
8
BLACK
6
CONTINUOUS
10
140.617
20
-132.227
11
140.521
21
-132.037
0
LINE
8
BLACK
6
CONTINUOUS
10
140.521
20
-132.037
11
140.331
21
-131.941
0
LINE
8
BLACK
6
CONTINUOUS
10
140.331
20
-131.941
11
140.045
21
-131.941
0
LINE
8
BLACK
6
CONTINUOUS
10
140.045
20
-131.941
11
139.855
21
-132.037
0
LINE
8
BLACK
6
CONTINUOUS
10
139.855
20
-132.037
11
139.76
21
-132.132
0
LINE
8
BLACK
6
CONTINUOUS
10
141.855
20
-133.275
11
141.664
21
-133.18
0
LINE
8
BLACK
6
CONTINUOUS
10
141.664
20
-133.18
11
141.569
21
-133.084
0
LINE
8
BLACK
6
CONTINUOUS
10
141.569
20
-133.084
11
141.474
21
-132.894
0
LINE
8
BLACK
6
CONTINUOUS
10
141.474
20
-132.894
11
141.474
21
-132.322
0
LINE
8
BLACK
6
CONTINUOUS
10
141.474
20
-132.322
11
141.569
21
-132.132
0
LINE
8
BLACK
6
CONTINUOUS
10
141.569
20
-132.132
11
141.664
21
-132.037
0
LINE
8
BLACK
6
CONTINUOUS
10
141.664
20
-132.037
11
141.855
21
-131.941
0
LINE
8
BLACK
6
CONTINUOUS
10
141.855
20
-131.941
11
142.14
21
-131.941
0
LINE
8
BLACK
6
CONTINUOUS
10
142.14
20
-131.941
11
142.331
21
-132.037
0
LINE
8
BLACK
6
CONTINUOUS
10
142.331
20
-132.037
11
142.426
21
-132.132
0
LINE
8
BLACK
6
CONTINUOUS
10
142.426
20
-132.132
11
142.521
21
-132.322
0
LINE
8
BLACK
6
CONTINUOUS
10
142.521
20
-132.322
11
142.521
21
-132.894
0
LINE
8
BLACK
6
CONTINUOUS
10
142.521
20
-132.894
11
142.426
21
-133.084
0
LINE
8
BLACK
6
CONTINUOUS
10
142.426
20
-133.084
11
142.331
21
-133.18
0
LINE
8
BLACK
6
CONTINUOUS
10
142.331
20
-133.18
11
142.14
21
-133.275
0
LINE
8
BLACK
6
CONTINUOUS
10
142.14
20
-133.275
11
141.855
21
-133.275
0
LINE
8
BLACK
6
CONTINUOUS
10
143.664
20
-133.275
11
143.474
21
-133.18
0
LINE
8
BLACK
6
CONTINUOUS
10
143.474
20
-133.18
11
143.379
21
-132.989
0
LINE
8
BLACK
6
CONTINUOUS
10
143.379
20
-132.989
11
143.379
21
-131.275
0
LINE
8
BLACK
6
CONTINUOUS
10
145.188
20
-133.18
11
144.998
21
-133.275
0
LINE
8
BLACK
6
CONTINUOUS
10
144.998
20
-133.275
11
144.617
21
-133.275
0
LINE
8
BLACK
6
CONTINUOUS
10
144.617
20
-133.275
11
144.426
21
-133.18
0
LINE
8
BLACK
6
CONTINUOUS
10
144.426
20
-133.18
11
144.331
21
-132.989
0
LINE
8
BLACK
6
CONTINUOUS
10
144.331
20
-132.989
11
144.331
21
-132.227
0
LINE
8
BLACK
6
CONTINUOUS
10
144.331
20
-132.227
11
144.426
21
-132.037
0
LINE
8
BLACK
6
CONTINUOUS
10
144.426
20
-132.037
11
144.617
21
-131.941
0
LINE
8
BLACK
6
CONTINUOUS
10
144.617
20
-131.941
11
144.998
21
-131.941
0
LINE
8
BLACK
6
CONTINUOUS
10
144.998
20
-131.941
11
145.188
21
-132.037
0
LINE
8
BLACK
6
CONTINUOUS
10
145.188
20
-132.037
11
145.283
21
-132.227
0
LINE
8
BLACK
6
CONTINUOUS
10
145.283
20
-132.227
11
145.283
21
-132.418
0
LINE
8
BLACK
6
CONTINUOUS
10
145.283
20
-132.418
11
144.331
21
-132.608
0
LINE
8
BLACK
6
CONTINUOUS
10
146.045
20
-133.18
11
146.236
21
-133.275
0
LINE
8
BLACK
6
CONTINUOUS
10
146.236
20
-133.275
11
146.617
21
-133.275
0
LINE
8
BLACK
6
CONTINUOUS
10
146.617
20
-133.275
11
146.807
21
-133.18
0
LINE
8
BLACK
6
CONTINUOUS
10
146.807
20
-133.18
11
146.902
21
-132.989
0
LINE
8
BLACK
6
CONTINUOUS
10
146.902
20
-132.989
11
146.902
21
-132.894
0
LINE
8
BLACK
6
CONTINUOUS
10
146.902
20
-132.894
11
146.807
21
-132.703
0
LINE
8
BLACK
6
CONTINUOUS
10
146.807
20
-132.703
11
146.617
21
-132.608
0
LINE
8
BLACK
6
CONTINUOUS
10
146.617
20
-132.608
11
146.331
21
-132.608
0
LINE
8
BLACK
6
CONTINUOUS
10
146.331
20
-132.608
11
146.14
21
-132.513
0
LINE
8
BLACK
6
CONTINUOUS
10
146.14
20
-132.513
11
146.045
21
-132.322
0
LINE
8
BLACK
6
CONTINUOUS
10
146.045
20
-132.322
11
146.045
21
-132.227
0
LINE
8
BLACK
6
CONTINUOUS
10
146.045
20
-132.227
11
146.14
21
-132.037
0
LINE
8
BLACK
6
CONTINUOUS
10
146.14
20
-132.037
11
146.331
21
-131.941
0
LINE
8
BLACK
6
CONTINUOUS
10
146.331
20
-131.941
11
146.617
21
-131.941
0
LINE
8
BLACK
6
CONTINUOUS
10
146.617
20
-131.941
11
146.807
21
-132.037
0
LINE
8
BLACK
6
CONTINUOUS
10
147.569
20
-134.037
11
147.664
21
-133.941
0
LINE
8
BLACK
6
CONTINUOUS
10
147.664
20
-133.941
11
147.855
21
-133.656
0
LINE
8
BLACK
6
CONTINUOUS
10
147.855
20
-133.656
11
147.95
21
-133.465
0
LINE
8
BLACK
6
CONTINUOUS
10
147.95
20
-133.465
11
148.045
21
-133.18
0
LINE
8
BLACK
6
CONTINUOUS
10
148.045
20
-133.18
11
148.14
21
-132.703
0
LINE
8
BLACK
6
CONTINUOUS
10
148.14
20
-132.703
11
148.14
21
-132.322
0
LINE
8
BLACK
6
CONTINUOUS
10
148.14
20
-132.322
11
148.045
21
-131.846
0
LINE
8
BLACK
6
CONTINUOUS
10
148.045
20
-131.846
11
147.95
21
-131.56
0
LINE
8
BLACK
6
CONTINUOUS
10
147.95
20
-131.56
11
147.855
21
-131.37
0
LINE
8
BLACK
6
CONTINUOUS
10
147.855
20
-131.37
11
147.664
21
-131.084
0
LINE
8
BLACK
6
CONTINUOUS
10
147.664
20
-131.084
11
147.569
21
-130.989
0
LINE
8
BLACK
6
CONTINUOUS
10
99.35
20
-135.51
11
99.85
21
-135.01
0
LINE
8
BLACK
6
CONTINUOUS
10
99.85
20
-135.01
11
99.35
21
-134.51
0
LINE
8
BLACK
6
CONTINUOUS
10
99.35
20
-134.51
11
98.85
21
-135.01
0
LINE
8
BLACK
6
CONTINUOUS
10
98.85
20
-135.01
11
99.35
21
-135.51
0
LINE
8
BLACK
6
CONTINUOUS
10
103.474
20
-135.915
11
102.331
21
-135.915
0
LINE
8
BLACK
6
CONTINUOUS
10
102.902
20
-135.915
11
102.902
21
-133.915
0
LINE
8
BLACK
6
CONTINUOUS
10
102.902
20
-133.915
11
102.712
21
-134.2
0
LINE
8
BLACK
6
CONTINUOUS
10
102.712
20
-134.2
11
102.521
21
-134.391
0
LINE
8
BLACK
6
CONTINUOUS
10
102.521
20
-134.391
11
102.331
21
-134.486
0
LINE
8
BLACK
6
CONTINUOUS
10
104.331
20
-135.724
11
104.426
21
-135.82
0
LINE
8
BLACK
6
CONTINUOUS
10
104.426
20
-135.82
11
104.331
21
-135.915
0
LINE
8
BLACK
6
CONTINUOUS
10
104.331
20
-135.915
11
104.236
21
-135.82
0
LINE
8
BLACK
6
CONTINUOUS
10
104.236
20
-135.82
11
104.331
21
-135.724
0
LINE
8
BLACK
6
CONTINUOUS
10
104.331
20
-135.724
11
104.331
21
-135.915
0
LINE
8
BLACK
6
CONTINUOUS
10
105.664
20
-133.915
11
105.855
21
-133.915
0
LINE
8
BLACK
6
CONTINUOUS
10
105.855
20
-133.915
11
106.045
21
-134.01
0
LINE
8
BLACK
6
CONTINUOUS
10
106.045
20
-134.01
11
106.14
21
-134.105
0
LINE
8
BLACK
6
CONTINUOUS
10
106.14
20
-134.105
11
106.236
21
-134.296
0
LINE
8
BLACK
6
CONTINUOUS
10
106.236
20
-134.296
11
106.331
21
-134.677
0
LINE
8
BLACK
6
CONTINUOUS
10
106.331
20
-134.677
11
106.331
21
-135.153
0
LINE
8
BLACK
6
CONTINUOUS
10
106.331
20
-135.153
11
106.236
21
-135.534
0
LINE
8
BLACK
6
CONTINUOUS
10
106.236
20
-135.534
11
106.14
21
-135.724
0
LINE
8
BLACK
6
CONTINUOUS
10
106.14
20
-135.724
11
106.045
21
-135.82
0
LINE
8
BLACK
6
CONTINUOUS
10
106.045
20
-135.82
11
105.855
21
-135.915
0
LINE
8
BLACK
6
CONTINUOUS
10
105.855
20
-135.915
11
105.664
21
-135.915
0
LINE
8
BLACK
6
CONTINUOUS
10
105.664
20
-135.915
11
105.474
21
-135.82
0
LINE
8
BLACK
6
CONTINUOUS
10
105.474
20
-135.82
11
105.379
21
-135.724
0
LINE
8
BLACK
6
CONTINUOUS
10
105.379
20
-135.724
11
105.283
21
-135.534
0
LINE
8
BLACK
6
CONTINUOUS
10
105.283
20
-135.534
11
105.188
21
-135.153
0
LINE
8
BLACK
6
CONTINUOUS
10
105.188
20
-135.153
11
105.188
21
-134.677
0
LINE
8
BLACK
6
CONTINUOUS
10
105.188
20
-134.677
11
105.283
21
-134.296
0
LINE
8
BLACK
6
CONTINUOUS
10
105.283
20
-134.296
11
105.379
21
-134.105
0
LINE
8
BLACK
6
CONTINUOUS
10
105.379
20
-134.105
11
105.474
21
-134.01
0
LINE
8
BLACK
6
CONTINUOUS
10
105.474
20
-134.01
11
105.664
21
-133.915
0
LINE
8
BLACK
6
CONTINUOUS
10
107.569
20
-133.915
11
107.76
21
-133.915
0
LINE
8
BLACK
6
CONTINUOUS
10
107.76
20
-133.915
11
107.95
21
-134.01
0
LINE
8
BLACK
6
CONTINUOUS
10
107.95
20
-134.01
11
108.045
21
-134.105
0
LINE
8
BLACK
6
CONTINUOUS
10
108.045
20
-134.105
11
108.14
21
-134.296
0
LINE
8
BLACK
6
CONTINUOUS
10
108.14
20
-134.296
11
108.236
21
-134.677
0
LINE
8
BLACK
6
CONTINUOUS
10
108.236
20
-134.677
11
108.236
21
-135.153
0
LINE
8
BLACK
6
CONTINUOUS
10
108.236
20
-135.153
11
108.14
21
-135.534
0
LINE
8
BLACK
6
CONTINUOUS
10
108.14
20
-135.534
11
108.045
21
-135.724
0
LINE
8
BLACK
6
CONTINUOUS
10
108.045
20
-135.724
11
107.95
21
-135.82
0
LINE
8
BLACK
6
CONTINUOUS
10
107.95
20
-135.82
11
107.76
21
-135.915
0
LINE
8
BLACK
6
CONTINUOUS
10
107.76
20
-135.915
11
107.569
21
-135.915
0
LINE
8
BLACK
6
CONTINUOUS
10
107.569
20
-135.915
11
107.379
21
-135.82
0
LINE
8
BLACK
6
CONTINUOUS
10
107.379
20
-135.82
11
107.283
21
-135.724
0
LINE
8
BLACK
6
CONTINUOUS
10
107.283
20
-135.724
11
107.188
21
-135.534
0
LINE
8
BLACK
6
CONTINUOUS
10
107.188
20
-135.534
11
107.093
21
-135.153
0
LINE
8
BLACK
6
CONTINUOUS
10
107.093
20
-135.153
11
107.093
21
-134.677
0
LINE
8
BLACK
6
CONTINUOUS
10
107.093
20
-134.677
11
107.188
21
-134.296
0
LINE
8
BLACK
6
CONTINUOUS
10
107.188
20
-134.296
11
107.283
21
-134.105
0
LINE
8
BLACK
6
CONTINUOUS
10
107.283
20
-134.105
11
107.379
21
-134.01
0
LINE
8
BLACK
6
CONTINUOUS
10
107.379
20
-134.01
11
107.569
21
-133.915
0
LINE
8
BLACK
6
CONTINUOUS
10
109.474
20
-133.915
11
109.664
21
-133.915
0
LINE
8
BLACK
6
CONTINUOUS
10
109.664
20
-133.915
11
109.855
21
-134.01
0
LINE
8
BLACK
6
CONTINUOUS
10
109.855
20
-134.01
11
109.95
21
-134.105
0
LINE
8
BLACK
6
CONTINUOUS
10
109.95
20
-134.105
11
110.045
21
-134.296
0
LINE
8
BLACK
6
CONTINUOUS
10
110.045
20
-134.296
11
110.14
21
-134.677
0
LINE
8
BLACK
6
CONTINUOUS
10
110.14
20
-134.677
11
110.14
21
-135.153
0
LINE
8
BLACK
6
CONTINUOUS
10
110.14
20
-135.153
11
110.045
21
-135.534
0
LINE
8
BLACK
6
CONTINUOUS
10
110.045
20
-135.534
11
109.95
21
-135.724
0
LINE
8
BLACK
6
CONTINUOUS
10
109.95
20
-135.724
11
109.855
21
-135.82
0
LINE
8
BLACK
6
CONTINUOUS
10
109.855
20
-135.82
11
109.664
21
-135.915
0
LINE
8
BLACK
6
CONTINUOUS
10
109.664
20
-135.915
11
109.474
21
-135.915
0
LINE
8
BLACK
6
CONTINUOUS
10
109.474
20
-135.915
11
109.283
21
-135.82
0
LINE
8
BLACK
6
CONTINUOUS
10
109.283
20
-135.82
11
109.188
21
-135.724
0
LINE
8
BLACK
6
CONTINUOUS
10
109.188
20
-135.724
11
109.093
21
-135.534
0
LINE
8
BLACK
6
CONTINUOUS
10
109.093
20
-135.534
11
108.998
21
-135.153
0
LINE
8
BLACK
6
CONTINUOUS
10
108.998
20
-135.153
11
108.998
21
-134.677
0
LINE
8
BLACK
6
CONTINUOUS
10
108.998
20
-134.677
11
109.093
21
-134.296
0
LINE
8
BLACK
6
CONTINUOUS
10
109.093
20
-134.296
11
109.188
21
-134.105
0
LINE
8
BLACK
6
CONTINUOUS
10
109.188
20
-134.105
11
109.283
21
-134.01
0
LINE
8
BLACK
6
CONTINUOUS
10
109.283
20
-134.01
11
109.474
21
-133.915
0
LINE
8
BLACK
6
CONTINUOUS
10
110.998
20
-135.915
11
110.998
21
-134.581
0
LINE
8
BLACK
6
CONTINUOUS
10
110.998
20
-134.772
11
111.093
21
-134.677
0
LINE
8
BLACK
6
CONTINUOUS
10
111.093
20
-134.677
11
111.283
21
-134.581
0
LINE
8
BLACK
6
CONTINUOUS
10
111.283
20
-134.581
11
111.569
21
-134.581
0
LINE
8
BLACK
6
CONTINUOUS
10
111.569
20
-134.581
11
111.76
21
-134.677
0
LINE
8
BLACK
6
CONTINUOUS
10
111.76
20
-134.677
11
111.855
21
-134.867
0
LINE
8
BLACK
6
CONTINUOUS
10
111.855
20
-134.867
11
111.855
21
-135.915
0
LINE
8
BLACK
6
CONTINUOUS
10
111.855
20
-134.867
11
111.95
21
-134.677
0
LINE
8
BLACK
6
CONTINUOUS
10
111.95
20
-134.677
11
112.14
21
-134.581
0
LINE
8
BLACK
6
CONTINUOUS
10
112.14
20
-134.581
11
112.426
21
-134.581
0
LINE
8
BLACK
6
CONTINUOUS
10
112.426
20
-134.581
11
112.617
21
-134.677
0
LINE
8
BLACK
6
CONTINUOUS
10
112.617
20
-134.677
11
112.712
21
-134.867
0
LINE
8
BLACK
6
CONTINUOUS
10
112.712
20
-134.867
11
112.712
21
-135.915
0
LINE
8
BLACK
6
CONTINUOUS
10
113.664
20
-135.915
11
113.664
21
-134.581
0
LINE
8
BLACK
6
CONTINUOUS
10
113.664
20
-134.772
11
113.76
21
-134.677
0
LINE
8
BLACK
6
CONTINUOUS
10
113.76
20
-134.677
11
113.95
21
-134.581
0
LINE
8
BLACK
6
CONTINUOUS
10
113.95
20
-134.581
11
114.236
21
-134.581
0
LINE
8
BLACK
6
CONTINUOUS
10
114.236
20
-134.581
11
114.426
21
-134.677
0
LINE
8
BLACK
6
CONTINUOUS
10
114.426
20
-134.677
11
114.521
21
-134.867
0
LINE
8
BLACK
6
CONTINUOUS
10
114.521
20
-134.867
11
114.521
21
-135.915
0
LINE
8
BLACK
6
CONTINUOUS
10
114.521
20
-134.867
11
114.617
21
-134.677
0
LINE
8
BLACK
6
CONTINUOUS
10
114.617
20
-134.677
11
114.807
21
-134.581
0
LINE
8
BLACK
6
CONTINUOUS
10
114.807
20
-134.581
11
115.093
21
-134.581
0
LINE
8
BLACK
6
CONTINUOUS
10
115.093
20
-134.581
11
115.283
21
-134.677
0
LINE
8
BLACK
6
CONTINUOUS
10
115.283
20
-134.677
11
115.379
21
-134.867
0
LINE
8
BLACK
6
CONTINUOUS
10
115.379
20
-134.867
11
115.379
21
-135.915
0
LINE
8
BLACK
6
CONTINUOUS
10
119.283
20
-133.82
11
117.569
21
-136.391
0
LINE
8
BLACK
6
CONTINUOUS
10
121.855
20
-133.915
11
122.045
21
-133.915
0
LINE
8
BLACK
6
CONTINUOUS
10
122.045
20
-133.915
11
122.236
21
-134.01
0
LINE
8
BLACK
6
CONTINUOUS
10
122.236
20
-134.01
11
122.331
21
-134.105
0
LINE
8
BLACK
6
CONTINUOUS
10
122.331
20
-134.105
11
122.426
21
-134.296
0
LINE
8
BLACK
6
CONTINUOUS
10
122.426
20
-134.296
11
122.521
21
-134.677
0
LINE
8
BLACK
6
CONTINUOUS
10
122.521
20
-134.677
11
122.521
21
-135.153
0
LINE
8
BLACK
6
CONTINUOUS
10
122.521
20
-135.153
11
122.426
21
-135.534
0
LINE
8
BLACK
6
CONTINUOUS
10
122.426
20
-135.534
11
122.331
21
-135.724
0
LINE
8
BLACK
6
CONTINUOUS
10
122.331
20
-135.724
11
122.236
21
-135.82
0
LINE
8
BLACK
6
CONTINUOUS
10
122.236
20
-135.82
11
122.045
21
-135.915
0
LINE
8
BLACK
6
CONTINUOUS
10
122.045
20
-135.915
11
121.855
21
-135.915
0
LINE
8
BLACK
6
CONTINUOUS
10
121.855
20
-135.915
11
121.664
21
-135.82
0
LINE
8
BLACK
6
CONTINUOUS
10
121.664
20
-135.82
11
121.569
21
-135.724
0
LINE
8
BLACK
6
CONTINUOUS
10
121.569
20
-135.724
11
121.474
21
-135.534
0
LINE
8
BLACK
6
CONTINUOUS
10
121.474
20
-135.534
11
121.379
21
-135.153
0
LINE
8
BLACK
6
CONTINUOUS
10
121.379
20
-135.153
11
121.379
21
-134.677
0
LINE
8
BLACK
6
CONTINUOUS
10
121.379
20
-134.677
11
121.474
21
-134.296
0
LINE
8
BLACK
6
CONTINUOUS
10
121.474
20
-134.296
11
121.569
21
-134.105
0
LINE
8
BLACK
6
CONTINUOUS
10
121.569
20
-134.105
11
121.664
21
-134.01
0
LINE
8
BLACK
6
CONTINUOUS
10
121.664
20
-134.01
11
121.855
21
-133.915
0
LINE
8
BLACK
6
CONTINUOUS
10
123.379
20
-135.724
11
123.474
21
-135.82
0
LINE
8
BLACK
6
CONTINUOUS
10
123.474
20
-135.82
11
123.379
21
-135.915
0
LINE
8
BLACK
6
CONTINUOUS
10
123.379
20
-135.915
11
123.283
21
-135.82
0
LINE
8
BLACK
6
CONTINUOUS
10
123.283
20
-135.82
11
123.379
21
-135.724
0
LINE
8
BLACK
6
CONTINUOUS
10
123.379
20
-135.724
11
123.379
21
-135.915
0
LINE
8
BLACK
6
CONTINUOUS
10
124.712
20
-133.915
11
124.902
21
-133.915
0
LINE
8
BLACK
6
CONTINUOUS
10
124.902
20
-133.915
11
125.093
21
-134.01
0
LINE
8
BLACK
6
CONTINUOUS
10
125.093
20
-134.01
11
125.188
21
-134.105
0
LINE
8
BLACK
6
CONTINUOUS
10
125.188
20
-134.105
11
125.283
21
-134.296
0
LINE
8
BLACK
6
CONTINUOUS
10
125.283
20
-134.296
11
125.379
21
-134.677
0
LINE
8
BLACK
6
CONTINUOUS
10
125.379
20
-134.677
11
125.379
21
-135.153
0
LINE
8
BLACK
6
CONTINUOUS
10
125.379
20
-135.153
11
125.283
21
-135.534
0
LINE
8
BLACK
6
CONTINUOUS
10
125.283
20
-135.534
11
125.188
21
-135.724
0
LINE
8
BLACK
6
CONTINUOUS
10
125.188
20
-135.724
11
125.093
21
-135.82
0
LINE
8
BLACK
6
CONTINUOUS
10
125.093
20
-135.82
11
124.902
21
-135.915
0
LINE
8
BLACK
6
CONTINUOUS
10
124.902
20
-135.915
11
124.712
21
-135.915
0
LINE
8
BLACK
6
CONTINUOUS
10
124.712
20
-135.915
11
124.521
21
-135.82
0
LINE
8
BLACK
6
CONTINUOUS
10
124.521
20
-135.82
11
124.426
21
-135.724
0
LINE
8
BLACK
6
CONTINUOUS
10
124.426
20
-135.724
11
124.331
21
-135.534
0
LINE
8
BLACK
6
CONTINUOUS
10
124.331
20
-135.534
11
124.236
21
-135.153
0
LINE
8
BLACK
6
CONTINUOUS
10
124.236
20
-135.153
11
124.236
21
-134.677
0
LINE
8
BLACK
6
CONTINUOUS
10
124.236
20
-134.677
11
124.331
21
-134.296
0
LINE
8
BLACK
6
CONTINUOUS
10
124.331
20
-134.296
11
124.426
21
-134.105
0
LINE
8
BLACK
6
CONTINUOUS
10
124.426
20
-134.105
11
124.521
21
-134.01
0
LINE
8
BLACK
6
CONTINUOUS
10
124.521
20
-134.01
11
124.712
21
-133.915
0
LINE
8
BLACK
6
CONTINUOUS
10
126.045
20
-133.915
11
127.283
21
-133.915
0
LINE
8
BLACK
6
CONTINUOUS
10
127.283
20
-133.915
11
126.617
21
-134.677
0
LINE
8
BLACK
6
CONTINUOUS
10
126.617
20
-134.677
11
126.902
21
-134.677
0
LINE
8
BLACK
6
CONTINUOUS
10
126.902
20
-134.677
11
127.093
21
-134.772
0
LINE
8
BLACK
6
CONTINUOUS
10
127.093
20
-134.772
11
127.188
21
-134.867
0
LINE
8
BLACK
6
CONTINUOUS
10
127.188
20
-134.867
11
127.283
21
-135.058
0
LINE
8
BLACK
6
CONTINUOUS
10
127.283
20
-135.058
11
127.283
21
-135.534
0
LINE
8
BLACK
6
CONTINUOUS
10
127.283
20
-135.534
11
127.188
21
-135.724
0
LINE
8
BLACK
6
CONTINUOUS
10
127.188
20
-135.724
11
127.093
21
-135.82
0
LINE
8
BLACK
6
CONTINUOUS
10
127.093
20
-135.82
11
126.902
21
-135.915
0
LINE
8
BLACK
6
CONTINUOUS
10
126.902
20
-135.915
11
126.331
21
-135.915
0
LINE
8
BLACK
6
CONTINUOUS
10
126.331
20
-135.915
11
126.14
21
-135.82
0
LINE
8
BLACK
6
CONTINUOUS
10
126.14
20
-135.82
11
126.045
21
-135.724
0
LINE
8
BLACK
6
CONTINUOUS
10
128.236
20
-135.915
11
128.617
21
-135.915
0
LINE
8
BLACK
6
CONTINUOUS
10
128.617
20
-135.915
11
128.807
21
-135.82
0
LINE
8
BLACK
6
CONTINUOUS
10
128.807
20
-135.82
11
128.902
21
-135.724
0
LINE
8
BLACK
6
CONTINUOUS
10
128.902
20
-135.724
11
129.093
21
-135.439
0
LINE
8
BLACK
6
CONTINUOUS
10
129.093
20
-135.439
11
129.188
21
-135.058
0
LINE
8
BLACK
6
CONTINUOUS
10
129.188
20
-135.058
11
129.188
21
-134.296
0
LINE
8
BLACK
6
CONTINUOUS
10
129.188
20
-134.296
11
129.093
21
-134.105
0
LINE
8
BLACK
6
CONTINUOUS
10
129.093
20
-134.105
11
128.998
21
-134.01
0
LINE
8
BLACK
6
CONTINUOUS
10
128.998
20
-134.01
11
128.807
21
-133.915
0
LINE
8
BLACK
6
CONTINUOUS
10
128.807
20
-133.915
11
128.426
21
-133.915
0
LINE
8
BLACK
6
CONTINUOUS
10
128.426
20
-133.915
11
128.236
21
-134.01
0
LINE
8
BLACK
6
CONTINUOUS
10
128.236
20
-134.01
11
128.14
21
-134.105
0
LINE
8
BLACK
6
CONTINUOUS
10
128.14
20
-134.105
11
128.045
21
-134.296
0
LINE
8
BLACK
6
CONTINUOUS
10
128.045
20
-134.296
11
128.045
21
-134.772
0
LINE
8
BLACK
6
CONTINUOUS
10
128.045
20
-134.772
11
128.14
21
-134.962
0
LINE
8
BLACK
6
CONTINUOUS
10
128.14
20
-134.962
11
128.236
21
-135.058
0
LINE
8
BLACK
6
CONTINUOUS
10
128.236
20
-135.058
11
128.426
21
-135.153
0
LINE
8
BLACK
6
CONTINUOUS
10
128.426
20
-135.153
11
128.807
21
-135.153
0
LINE
8
BLACK
6
CONTINUOUS
10
128.807
20
-135.153
11
128.998
21
-135.058
0
LINE
8
BLACK
6
CONTINUOUS
10
128.998
20
-135.058
11
129.093
21
-134.962
0
LINE
8
BLACK
6
CONTINUOUS
10
129.093
20
-134.962
11
129.188
21
-134.772
0
LINE
8
BLACK
6
CONTINUOUS
10
130.902
20
-134.581
11
130.902
21
-135.915
0
LINE
8
BLACK
6
CONTINUOUS
10
130.426
20
-133.82
11
129.95
21
-135.248
0
LINE
8
BLACK
6
CONTINUOUS
10
129.95
20
-135.248
11
131.188
21
-135.248
0
LINE
8
BLACK
6
CONTINUOUS
10
131.855
20
-133.915
11
131.855
21
-134.296
0
LINE
8
BLACK
6
CONTINUOUS
10
132.617
20
-133.915
11
132.617
21
-134.296
0
LINE
8
BLACK
6
CONTINUOUS
10
135.569
20
-136.677
11
135.474
21
-136.581
0
LINE
8
BLACK
6
CONTINUOUS
10
135.474
20
-136.581
11
135.283
21
-136.296
0
LINE
8
BLACK
6
CONTINUOUS
10
135.283
20
-136.296
11
135.188
21
-136.105
0
LINE
8
BLACK
6
CONTINUOUS
10
135.188
20
-136.105
11
135.093
21
-135.82
0
LINE
8
BLACK
6
CONTINUOUS
10
135.093
20
-135.82
11
134.998
21
-135.343
0
LINE
8
BLACK
6
CONTINUOUS
10
134.998
20
-135.343
11
134.998
21
-134.962
0
LINE
8
BLACK
6
CONTINUOUS
10
134.998
20
-134.962
11
135.093
21
-134.486
0
LINE
8
BLACK
6
CONTINUOUS
10
135.093
20
-134.486
11
135.188
21
-134.2
0
LINE
8
BLACK
6
CONTINUOUS
10
135.188
20
-134.2
11
135.283
21
-134.01
0
LINE
8
BLACK
6
CONTINUOUS
10
135.283
20
-134.01
11
135.474
21
-133.724
0
LINE
8
BLACK
6
CONTINUOUS
10
135.474
20
-133.724
11
135.569
21
-133.629
0
LINE
8
BLACK
6
CONTINUOUS
10
136.14
20
-133.915
11
137.379
21
-133.915
0
LINE
8
BLACK
6
CONTINUOUS
10
137.379
20
-133.915
11
136.712
21
-134.677
0
LINE
8
BLACK
6
CONTINUOUS
10
136.712
20
-134.677
11
136.998
21
-134.677
0
LINE
8
BLACK
6
CONTINUOUS
10
136.998
20
-134.677
11
137.188
21
-134.772
0
LINE
8
BLACK
6
CONTINUOUS
10
137.188
20
-134.772
11
137.283
21
-134.867
0
LINE
8
BLACK
6
CONTINUOUS
10
137.283
20
-134.867
11
137.379
21
-135.058
0
LINE
8
BLACK
6
CONTINUOUS
10
137.379
20
-135.058
11
137.379
21
-135.534
0
LINE
8
BLACK
6
CONTINUOUS
10
137.379
20
-135.534
11
137.283
21
-135.724
0
LINE
8
BLACK
6
CONTINUOUS
10
137.283
20
-135.724
11
137.188
21
-135.82
0
LINE
8
BLACK
6
CONTINUOUS
10
137.188
20
-135.82
11
136.998
21
-135.915
0
LINE
8
BLACK
6
CONTINUOUS
10
136.998
20
-135.915
11
136.426
21
-135.915
0
LINE
8
BLACK
6
CONTINUOUS
10
136.426
20
-135.915
11
136.236
21
-135.82
0
LINE
8
BLACK
6
CONTINUOUS
10
136.236
20
-135.82
11
136.14
21
-135.724
0
LINE
8
BLACK
6
CONTINUOUS
10
139.093
20
-134.581
11
139.093
21
-135.915
0
LINE
8
BLACK
6
CONTINUOUS
10
138.617
20
-133.82
11
138.14
21
-135.248
0
LINE
8
BLACK
6
CONTINUOUS
10
138.14
20
-135.248
11
139.379
21
-135.248
0
LINE
8
BLACK
6
CONTINUOUS
10
141.664
20
-135.915
11
141.664
21
-133.915
0
LINE
8
BLACK
6
CONTINUOUS
10
142.521
20
-135.915
11
142.521
21
-134.867
0
LINE
8
BLACK
6
CONTINUOUS
10
142.521
20
-134.867
11
142.426
21
-134.677
0
LINE
8
BLACK
6
CONTINUOUS
10
142.426
20
-134.677
11
142.236
21
-134.581
0
LINE
8
BLACK
6
CONTINUOUS
10
142.236
20
-134.581
11
141.95
21
-134.581
0
LINE
8
BLACK
6
CONTINUOUS
10
141.95
20
-134.581
11
141.76
21
-134.677
0
LINE
8
BLACK
6
CONTINUOUS
10
141.76
20
-134.677
11
141.664
21
-134.772
0
LINE
8
BLACK
6
CONTINUOUS
10
143.76
20
-135.915
11
143.569
21
-135.82
0
LINE
8
BLACK
6
CONTINUOUS
10
143.569
20
-135.82
11
143.474
21
-135.724
0
LINE
8
BLACK
6
CONTINUOUS
10
143.474
20
-135.724
11
143.379
21
-135.534
0
LINE
8
BLACK
6
CONTINUOUS
10
143.379
20
-135.534
11
143.379
21
-134.962
0
LINE
8
BLACK
6
CONTINUOUS
10
143.379
20
-134.962
11
143.474
21
-134.772
0
LINE
8
BLACK
6
CONTINUOUS
10
143.474
20
-134.772
11
143.569
21
-134.677
0
LINE
8
BLACK
6
CONTINUOUS
10
143.569
20
-134.677
11
143.76
21
-134.581
0
LINE
8
BLACK
6
CONTINUOUS
10
143.76
20
-134.581
11
144.045
21
-134.581
0
LINE
8
BLACK
6
CONTINUOUS
10
144.045
20
-134.581
11
144.236
21
-134.677
0
LINE
8
BLACK
6
CONTINUOUS
10
144.236
20
-134.677
11
144.331
21
-134.772
0
LINE
8
BLACK
6
CONTINUOUS
10
144.331
20
-134.772
11
144.426
21
-134.962
0
LINE
8
BLACK
6
CONTINUOUS
10
144.426
20
-134.962
11
144.426
21
-135.534
0
LINE
8
BLACK
6
CONTINUOUS
10
144.426
20
-135.534
11
144.331
21
-135.724
0
LINE
8
BLACK
6
CONTINUOUS
10
144.331
20
-135.724
11
144.236
21
-135.82
0
LINE
8
BLACK
6
CONTINUOUS
10
144.236
20
-135.82
11
144.045
21
-135.915
0
LINE
8
BLACK
6
CONTINUOUS
10
144.045
20
-135.915
11
143.76
21
-135.915
0
LINE
8
BLACK
6
CONTINUOUS
10
145.569
20
-135.915
11
145.379
21
-135.82
0
LINE
8
BLACK
6
CONTINUOUS
10
145.379
20
-135.82
11
145.283
21
-135.629
0
LINE
8
BLACK
6
CONTINUOUS
10
145.283
20
-135.629
11
145.283
21
-133.915
0
LINE
8
BLACK
6
CONTINUOUS
10
147.093
20
-135.82
11
146.902
21
-135.915
0
LINE
8
BLACK
6
CONTINUOUS
10
146.902
20
-135.915
11
146.521
21
-135.915
0
LINE
8
BLACK
6
CONTINUOUS
10
146.521
20
-135.915
11
146.331
21
-135.82
0
LINE
8
BLACK
6
CONTINUOUS
10
146.331
20
-135.82
11
146.236
21
-135.629
0
LINE
8
BLACK
6
CONTINUOUS
10
146.236
20
-135.629
11
146.236
21
-134.867
0
LINE
8
BLACK
6
CONTINUOUS
10
146.236
20
-134.867
11
146.331
21
-134.677
0
LINE
8
BLACK
6
CONTINUOUS
10
146.331
20
-134.677
11
146.521
21
-134.581
0
LINE
8
BLACK
6
CONTINUOUS
10
146.521
20
-134.581
11
146.902
21
-134.581
0
LINE
8
BLACK
6
CONTINUOUS
10
146.902
20
-134.581
11
147.093
21
-134.677
0
LINE
8
BLACK
6
CONTINUOUS
10
147.093
20
-134.677
11
147.188
21
-134.867
0
LINE
8
BLACK
6
CONTINUOUS
10
147.188
20
-134.867
11
147.188
21
-135.058
0
LINE
8
BLACK
6
CONTINUOUS
10
147.188
20
-135.058
11
146.236
21
-135.248
0
LINE
8
BLACK
6
CONTINUOUS
10
147.95
20
-135.82
11
148.14
21
-135.915
0
LINE
8
BLACK
6
CONTINUOUS
10
148.14
20
-135.915
11
148.521
21
-135.915
0
LINE
8
BLACK
6
CONTINUOUS
10
148.521
20
-135.915
11
148.712
21
-135.82
0
LINE
8
BLACK
6
CONTINUOUS
10
148.712
20
-135.82
11
148.807
21
-135.629
0
LINE
8
BLACK
6
CONTINUOUS
10
148.807
20
-135.629
11
148.807
21
-135.534
0
LINE
8
BLACK
6
CONTINUOUS
10
148.807
20
-135.534
11
148.712
21
-135.343
0
LINE
8
BLACK
6
CONTINUOUS
10
148.712
20
-135.343
11
148.521
21
-135.248
0
LINE
8
BLACK
6
CONTINUOUS
10
148.521
20
-135.248
11
148.236
21
-135.248
0
LINE
8
BLACK
6
CONTINUOUS
10
148.236
20
-135.248
11
148.045
21
-135.153
0
LINE
8
BLACK
6
CONTINUOUS
10
148.045
20
-135.153
11
147.95
21
-134.962
0
LINE
8
BLACK
6
CONTINUOUS
10
147.95
20
-134.962
11
147.95
21
-134.867
0
LINE
8
BLACK
6
CONTINUOUS
10
147.95
20
-134.867
11
148.045
21
-134.677
0
LINE
8
BLACK
6
CONTINUOUS
10
148.045
20
-134.677
11
148.236
21
-134.581
0
LINE
8
BLACK
6
CONTINUOUS
10
148.236
20
-134.581
11
148.521
21
-134.581
0
LINE
8
BLACK
6
CONTINUOUS
10
148.521
20
-134.581
11
148.712
21
-134.677
0
LINE
8
BLACK
6
CONTINUOUS
10
149.474
20
-136.677
11
149.569
21
-136.581
0
LINE
8
BLACK
6
CONTINUOUS
10
149.569
20
-136.581
11
149.76
21
-136.296
0
LINE
8
BLACK
6
CONTINUOUS
10
149.76
20
-136.296
11
149.855
21
-136.105
0
LINE
8
BLACK
6
CONTINUOUS
10
149.855
20
-136.105
11
149.95
21
-135.82
0
LINE
8
BLACK
6
CONTINUOUS
10
149.95
20
-135.82
11
150.045
21
-135.343
0
LINE
8
BLACK
6
CONTINUOUS
10
150.045
20
-135.343
11
150.045
21
-134.962
0
LINE
8
BLACK
6
CONTINUOUS
10
150.045
20
-134.962
11
149.95
21
-134.486
0
LINE
8
BLACK
6
CONTINUOUS
10
149.95
20
-134.486
11
149.855
21
-134.2
0
LINE
8
BLACK
6
CONTINUOUS
10
149.855
20
-134.2
11
149.76
21
-134.01
0
LINE
8
BLACK
6
CONTINUOUS
10
149.76
20
-134.01
11
149.569
21
-133.724
0
LINE
8
BLACK
6
CONTINUOUS
10
149.569
20
-133.724
11
149.474
21
-133.629
0
LINE
8
BLACK
6
CONTINUOUS
10
98.55
20
-137
11
99.85
21
-138.3
0
LINE
8
BLACK
6
CONTINUOUS
10
99.85
20
-137
11
98.55
21
-138.3
0
CIRCLE
8
BLACK
10
99.2
20
-137.65
40
0.65
0
LINE
8
BLACK
6
CONTINUOUS
10
103.474
20
-138.555
11
102.331
21
-138.555
0
LINE
8
BLACK
6
CONTINUOUS
10
102.902
20
-138.555
11
102.902
21
-136.555
0
LINE
8
BLACK
6
CONTINUOUS
10
102.902
20
-136.555
11
102.712
21
-136.84
0
LINE
8
BLACK
6
CONTINUOUS
10
102.712
20
-136.84
11
102.521
21
-137.031
0
LINE
8
BLACK
6
CONTINUOUS
10
102.521
20
-137.031
11
102.331
21
-137.126
0
LINE
8
BLACK
6
CONTINUOUS
10
104.331
20
-138.364
11
104.426
21
-138.46
0
LINE
8
BLACK
6
CONTINUOUS
10
104.426
20
-138.46
11
104.331
21
-138.555
0
LINE
8
BLACK
6
CONTINUOUS
10
104.331
20
-138.555
11
104.236
21
-138.46
0
LINE
8
BLACK
6
CONTINUOUS
10
104.236
20
-138.46
11
104.331
21
-138.364
0
LINE
8
BLACK
6
CONTINUOUS
10
104.331
20
-138.364
11
104.331
21
-138.555
0
LINE
8
BLACK
6
CONTINUOUS
10
105.093
20
-136.555
11
106.331
21
-136.555
0
LINE
8
BLACK
6
CONTINUOUS
10
106.331
20
-136.555
11
105.664
21
-137.317
0
LINE
8
BLACK
6
CONTINUOUS
10
105.664
20
-137.317
11
105.95
21
-137.317
0
LINE
8
BLACK
6
CONTINUOUS
10
105.95
20
-137.317
11
106.14
21
-137.412
0
LINE
8
BLACK
6
CONTINUOUS
10
106.14
20
-137.412
11
106.236
21
-137.507
0
LINE
8
BLACK
6
CONTINUOUS
10
106.236
20
-137.507
11
106.331
21
-137.698
0
LINE
8
BLACK
6
CONTINUOUS
10
106.331
20
-137.698
11
106.331
21
-138.174
0
LINE
8
BLACK
6
CONTINUOUS
10
106.331
20
-138.174
11
106.236
21
-138.364
0
LINE
8
BLACK
6
CONTINUOUS
10
106.236
20
-138.364
11
106.14
21
-138.46
0
LINE
8
BLACK
6
CONTINUOUS
10
106.14
20
-138.46
11
105.95
21
-138.555
0
LINE
8
BLACK
6
CONTINUOUS
10
105.95
20
-138.555
11
105.379
21
-138.555
0
LINE
8
BLACK
6
CONTINUOUS
10
105.379
20
-138.555
11
105.188
21
-138.46
0
LINE
8
BLACK
6
CONTINUOUS
10
105.188
20
-138.46
11
105.093
21
-138.364
0
LINE
8
BLACK
6
CONTINUOUS
10
107.569
20
-136.555
11
107.76
21
-136.555
0
LINE
8
BLACK
6
CONTINUOUS
10
107.76
20
-136.555
11
107.95
21
-136.65
0
LINE
8
BLACK
6
CONTINUOUS
10
107.95
20
-136.65
11
108.045
21
-136.745
0
LINE
8
BLACK
6
CONTINUOUS
10
108.045
20
-136.745
11
108.14
21
-136.936
0
LINE
8
BLACK
6
CONTINUOUS
10
108.14
20
-136.936
11
108.236
21
-137.317
0
LINE
8
BLACK
6
CONTINUOUS
10
108.236
20
-137.317
11
108.236
21
-137.793
0
LINE
8
BLACK
6
CONTINUOUS
10
108.236
20
-137.793
11
108.14
21
-138.174
0
LINE
8
BLACK
6
CONTINUOUS
10
108.14
20
-138.174
11
108.045
21
-138.364
0
LINE
8
BLACK
6
CONTINUOUS
10
108.045
20
-138.364
11
107.95
21
-138.46
0
LINE
8
BLACK
6
CONTINUOUS
10
107.95
20
-138.46
11
107.76
21
-138.555
0
LINE
8
BLACK
6
CONTINUOUS
10
107.76
20
-138.555
11
107.569
21
-138.555
0
LINE
8
BLACK
6
CONTINUOUS
10
107.569
20
-138.555
11
107.379
21
-138.46
0
LINE
8
BLACK
6
CONTINUOUS
10
107.379
20
-138.46
11
107.283
21
-138.364
0
LINE
8
BLACK
6
CONTINUOUS
10
107.283
20
-138.364
11
107.188
21
-138.174
0
LINE
8
BLACK
6
CONTINUOUS
10
107.188
20
-138.174
11
107.093
21
-137.793
0
LINE
8
BLACK
6
CONTINUOUS
10
107.093
20
-137.793
11
107.093
21
-137.317
0
LINE
8
BLACK
6
CONTINUOUS
10
107.093
20
-137.317
11
107.188
21
-136.936
0
LINE
8
BLACK
6
CONTINUOUS
10
107.188
20
-136.936
11
107.283
21
-136.745
0
LINE
8
BLACK
6
CONTINUOUS
10
107.283
20
-136.745
11
107.379
21
-136.65
0
LINE
8
BLACK
6
CONTINUOUS
10
107.379
20
-136.65
11
107.569
21
-136.555
0
LINE
8
BLACK
6
CONTINUOUS
10
109.474
20
-136.555
11
109.664
21
-136.555
0
LINE
8
BLACK
6
CONTINUOUS
10
109.664
20
-136.555
11
109.855
21
-136.65
0
LINE
8
BLACK
6
CONTINUOUS
10
109.855
20
-136.65
11
109.95
21
-136.745
0
LINE
8
BLACK
6
CONTINUOUS
10
109.95
20
-136.745
11
110.045
21
-136.936
0
LINE
8
BLACK
6
CONTINUOUS
10
110.045
20
-136.936
11
110.14
21
-137.317
0
LINE
8
BLACK
6
CONTINUOUS
10
110.14
20
-137.317
11
110.14
21
-137.793
0
LINE
8
BLACK
6
CONTINUOUS
10
110.14
20
-137.793
11
110.045
21
-138.174
0
LINE
8
BLACK
6
CONTINUOUS
10
110.045
20
-138.174
11
109.95
21
-138.364
0
LINE
8
BLACK
6
CONTINUOUS
10
109.95
20
-138.364
11
109.855
21
-138.46
0
LINE
8
BLACK
6
CONTINUOUS
10
109.855
20
-138.46
11
109.664
21
-138.555
0
LINE
8
BLACK
6
CONTINUOUS
10
109.664
20
-138.555
11
109.474
21
-138.555
0
LINE
8
BLACK
6
CONTINUOUS
10
109.474
20
-138.555
11
109.283
21
-138.46
0
LINE
8
BLACK
6
CONTINUOUS
10
109.283
20
-138.46
11
109.188
21
-138.364
0
LINE
8
BLACK
6
CONTINUOUS
10
109.188
20
-138.364
11
109.093
21
-138.174
0
LINE
8
BLACK
6
CONTINUOUS
10
109.093
20
-138.174
11
108.998
21
-137.793
0
LINE
8
BLACK
6
CONTINUOUS
10
108.998
20
-137.793
11
108.998
21
-137.317
0
LINE
8
BLACK
6
CONTINUOUS
10
108.998
20
-137.317
11
109.093
21
-136.936
0
LINE
8
BLACK
6
CONTINUOUS
10
109.093
20
-136.936
11
109.188
21
-136.745
0
LINE
8
BLACK
6
CONTINUOUS
10
109.188
20
-136.745
11
109.283
21
-136.65
0
LINE
8
BLACK
6
CONTINUOUS
10
109.283
20
-136.65
11
109.474
21
-136.555
0
LINE
8
BLACK
6
CONTINUOUS
10
110.998
20
-138.555
11
110.998
21
-137.221
0
LINE
8
BLACK
6
CONTINUOUS
10
110.998
20
-137.412
11
111.093
21
-137.317
0
LINE
8
BLACK
6
CONTINUOUS
10
111.093
20
-137.317
11
111.283
21
-137.221
0
LINE
8
BLACK
6
CONTINUOUS
10
111.283
20
-137.221
11
111.569
21
-137.221
0
LINE
8
BLACK
6
CONTINUOUS
10
111.569
20
-137.221
11
111.76
21
-137.317
0
LINE
8
BLACK
6
CONTINUOUS
10
111.76
20
-137.317
11
111.855
21
-137.507
0
LINE
8
BLACK
6
CONTINUOUS
10
111.855
20
-137.507
11
111.855
21
-138.555
0
LINE
8
BLACK
6
CONTINUOUS
10
111.855
20
-137.507
11
111.95
21
-137.317
0
LINE
8
BLACK
6
CONTINUOUS
10
111.95
20
-137.317
11
112.14
21
-137.221
0
LINE
8
BLACK
6
CONTINUOUS
10
112.14
20
-137.221
11
112.426
21
-137.221
0
LINE
8
BLACK
6
CONTINUOUS
10
112.426
20
-137.221
11
112.617
21
-137.317
0
LINE
8
BLACK
6
CONTINUOUS
10
112.617
20
-137.317
11
112.712
21
-137.507
0
LINE
8
BLACK
6
CONTINUOUS
10
112.712
20
-137.507
11
112.712
21
-138.555
0
LINE
8
BLACK
6
CONTINUOUS
10
113.664
20
-138.555
11
113.664
21
-137.221
0
LINE
8
BLACK
6
CONTINUOUS
10
113.664
20
-137.412
11
113.76
21
-137.317
0
LINE
8
BLACK
6
CONTINUOUS
10
113.76
20
-137.317
11
113.95
21
-137.221
0
LINE
8
BLACK
6
CONTINUOUS
10
113.95
20
-137.221
11
114.236
21
-137.221
0
LINE
8
BLACK
6
CONTINUOUS
10
114.236
20
-137.221
11
114.426
21
-137.317
0
LINE
8
BLACK
6
CONTINUOUS
10
114.426
20
-137.317
11
114.521
21
-137.507
0
LINE
8
BLACK
6
CONTINUOUS
10
114.521
20
-137.507
11
114.521
21
-138.555
0
LINE
8
BLACK
6
CONTINUOUS
10
114.521
20
-137.507
11
114.617
21
-137.317
0
LINE
8
BLACK
6
CONTINUOUS
10
114.617
20
-137.317
11
114.807
21
-137.221
0
LINE
8
BLACK
6
CONTINUOUS
10
114.807
20
-137.221
11
115.093
21
-137.221
0
LINE
8
BLACK
6
CONTINUOUS
10
115.093
20
-137.221
11
115.283
21
-137.317
0
LINE
8
BLACK
6
CONTINUOUS
10
115.283
20
-137.317
11
115.379
21
-137.507
0
LINE
8
BLACK
6
CONTINUOUS
10
115.379
20
-137.507
11
115.379
21
-138.555
0
LINE
8
BLACK
6
CONTINUOUS
10
119.283
20
-136.46
11
117.569
21
-139.031
0
LINE
8
BLACK
6
CONTINUOUS
10
121.855
20
-136.555
11
122.045
21
-136.555
0
LINE
8
BLACK
6
CONTINUOUS
10
122.045
20
-136.555
11
122.236
21
-136.65
0
LINE
8
BLACK
6
CONTINUOUS
10
122.236
20
-136.65
11
122.331
21
-136.745
0
LINE
8
BLACK
6
CONTINUOUS
10
122.331
20
-136.745
11
122.426
21
-136.936
0
LINE
8
BLACK
6
CONTINUOUS
10
122.426
20
-136.936
11
122.521
21
-137.317
0
LINE
8
BLACK
6
CONTINUOUS
10
122.521
20
-137.317
11
122.521
21
-137.793
0
LINE
8
BLACK
6
CONTINUOUS
10
122.521
20
-137.793
11
122.426
21
-138.174
0
LINE
8
BLACK
6
CONTINUOUS
10
122.426
20
-138.174
11
122.331
21
-138.364
0
LINE
8
BLACK
6
CONTINUOUS
10
122.331
20
-138.364
11
122.236
21
-138.46
0
LINE
8
BLACK
6
CONTINUOUS
10
122.236
20
-138.46
11
122.045
21
-138.555
0
LINE
8
BLACK
6
CONTINUOUS
10
122.045
20
-138.555
11
121.855
21
-138.555
0
LINE
8
BLACK
6
CONTINUOUS
10
121.855
20
-138.555
11
121.664
21
-138.46
0
LINE
8
BLACK
6
CONTINUOUS
10
121.664
20
-138.46
11
121.569
21
-138.364
0
LINE
8
BLACK
6
CONTINUOUS
10
121.569
20
-138.364
11
121.474
21
-138.174
0
LINE
8
BLACK
6
CONTINUOUS
10
121.474
20
-138.174
11
121.379
21
-137.793
0
LINE
8
BLACK
6
CONTINUOUS
10
121.379
20
-137.793
11
121.379
21
-137.317
0
LINE
8
BLACK
6
CONTINUOUS
10
121.379
20
-137.317
11
121.474
21
-136.936
0
LINE
8
BLACK
6
CONTINUOUS
10
121.474
20
-136.936
11
121.569
21
-136.745
0
LINE
8
BLACK
6
CONTINUOUS
10
121.569
20
-136.745
11
121.664
21
-136.65
0
LINE
8
BLACK
6
CONTINUOUS
10
121.664
20
-136.65
11
121.855
21
-136.555
0
LINE
8
BLACK
6
CONTINUOUS
10
123.379
20
-138.364
11
123.474
21
-138.46
0
LINE
8
BLACK
6
CONTINUOUS
10
123.474
20
-138.46
11
123.379
21
-138.555
0
LINE
8
BLACK
6
CONTINUOUS
10
123.379
20
-138.555
11
123.283
21
-138.46
0
LINE
8
BLACK
6
CONTINUOUS
10
123.283
20
-138.46
11
123.379
21
-138.364
0
LINE
8
BLACK
6
CONTINUOUS
10
123.379
20
-138.364
11
123.379
21
-138.555
0
LINE
8
BLACK
6
CONTINUOUS
10
124.712
20
-136.555
11
124.902
21
-136.555
0
LINE
8
BLACK
6
CONTINUOUS
10
124.902
20
-136.555
11
125.093
21
-136.65
0
LINE
8
BLACK
6
CONTINUOUS
10
125.093
20
-136.65
11
125.188
21
-136.745
0
LINE
8
BLACK
6
CONTINUOUS
10
125.188
20
-136.745
11
125.283
21
-136.936
0
LINE
8
BLACK
6
CONTINUOUS
10
125.283
20
-136.936
11
125.379
21
-137.317
0
LINE
8
BLACK
6
CONTINUOUS
10
125.379
20
-137.317
11
125.379
21
-137.793
0
LINE
8
BLACK
6
CONTINUOUS
10
125.379
20
-137.793
11
125.283
21
-138.174
0
LINE
8
BLACK
6
CONTINUOUS
10
125.283
20
-138.174
11
125.188
21
-138.364
0
LINE
8
BLACK
6
CONTINUOUS
10
125.188
20
-138.364
11
125.093
21
-138.46
0
LINE
8
BLACK
6
CONTINUOUS
10
125.093
20
-138.46
11
124.902
21
-138.555
0
LINE
8
BLACK
6
CONTINUOUS
10
124.902
20
-138.555
11
124.712
21
-138.555
0
LINE
8
BLACK
6
CONTINUOUS
10
124.712
20
-138.555
11
124.521
21
-138.46
0
LINE
8
BLACK
6
CONTINUOUS
10
124.521
20
-138.46
11
124.426
21
-138.364
0
LINE
8
BLACK
6
CONTINUOUS
10
124.426
20
-138.364
11
124.331
21
-138.174
0
LINE
8
BLACK
6
CONTINUOUS
10
124.331
20
-138.174
11
124.236
21
-137.793
0
LINE
8
BLACK
6
CONTINUOUS
10
124.236
20
-137.793
11
124.236
21
-137.317
0
LINE
8
BLACK
6
CONTINUOUS
10
124.236
20
-137.317
11
124.331
21
-136.936
0
LINE
8
BLACK
6
CONTINUOUS
10
124.331
20
-136.936
11
124.426
21
-136.745
0
LINE
8
BLACK
6
CONTINUOUS
10
124.426
20
-136.745
11
124.521
21
-136.65
0
LINE
8
BLACK
6
CONTINUOUS
10
124.521
20
-136.65
11
124.712
21
-136.555
0
LINE
8
BLACK
6
CONTINUOUS
10
127.188
20
-136.555
11
126.236
21
-136.555
0
LINE
8
BLACK
6
CONTINUOUS
10
126.236
20
-136.555
11
126.14
21
-137.507
0
LINE
8
BLACK
6
CONTINUOUS
10
126.14
20
-137.507
11
126.236
21
-137.412
0
LINE
8
BLACK
6
CONTINUOUS
10
126.236
20
-137.412
11
126.426
21
-137.317
0
LINE
8
BLACK
6
CONTINUOUS
10
126.426
20
-137.317
11
126.902
21
-137.317
0
LINE
8
BLACK
6
CONTINUOUS
10
126.902
20
-137.317
11
127.093
21
-137.412
0
LINE
8
BLACK
6
CONTINUOUS
10
127.093
20
-137.412
11
127.188
21
-137.507
0
LINE
8
BLACK
6
CONTINUOUS
10
127.188
20
-137.507
11
127.283
21
-137.698
0
LINE
8
BLACK
6
CONTINUOUS
10
127.283
20
-137.698
11
127.283
21
-138.174
0
LINE
8
BLACK
6
CONTINUOUS
10
127.283
20
-138.174
11
127.188
21
-138.364
0
LINE
8
BLACK
6
CONTINUOUS
10
127.188
20
-138.364
11
127.093
21
-138.46
0
LINE
8
BLACK
6
CONTINUOUS
10
127.093
20
-138.46
11
126.902
21
-138.555
0
LINE
8
BLACK
6
CONTINUOUS
10
126.902
20
-138.555
11
126.426
21
-138.555
0
LINE
8
BLACK
6
CONTINUOUS
10
126.426
20
-138.555
11
126.236
21
-138.46
0
LINE
8
BLACK
6
CONTINUOUS
10
126.236
20
-138.46
11
126.14
21
-138.364
0
LINE
8
BLACK
6
CONTINUOUS
10
129.188
20
-138.555
11
128.045
21
-138.555
0
LINE
8
BLACK
6
CONTINUOUS
10
128.617
20
-138.555
11
128.617
21
-136.555
0
LINE
8
BLACK
6
CONTINUOUS
10
128.617
20
-136.555
11
128.426
21
-136.84
0
LINE
8
BLACK
6
CONTINUOUS
10
128.426
20
-136.84
11
128.236
21
-137.031
0
LINE
8
BLACK
6
CONTINUOUS
10
128.236
20
-137.031
11
128.045
21
-137.126
0
LINE
8
BLACK
6
CONTINUOUS
10
129.95
20
-136.745
11
130.045
21
-136.65
0
LINE
8
BLACK
6
CONTINUOUS
10
130.045
20
-136.65
11
130.236
21
-136.555
0
LINE
8
BLACK
6
CONTINUOUS
10
130.236
20
-136.555
11
130.712
21
-136.555
0
LINE
8
BLACK
6
CONTINUOUS
10
130.712
20
-136.555
11
130.902
21
-136.65
0
LINE
8
BLACK
6
CONTINUOUS
10
130.902
20
-136.65
11
130.998
21
-136.745
0
LINE
8
BLACK
6
CONTINUOUS
10
130.998
20
-136.745
11
131.093
21
-136.936
0
LINE
8
BLACK
6
CONTINUOUS
10
131.093
20
-136.936
11
131.093
21
-137.126
0
LINE
8
BLACK
6
CONTINUOUS
10
131.093
20
-137.126
11
130.998
21
-137.412
0
LINE
8
BLACK
6
CONTINUOUS
10
130.998
20
-137.412
11
129.855
21
-138.555
0
LINE
8
BLACK
6
CONTINUOUS
10
129.855
20
-138.555
11
131.093
21
-138.555
0
LINE
8
BLACK
6
CONTINUOUS
10
131.855
20
-136.555
11
131.855
21
-136.936
0
LINE
8
BLACK
6
CONTINUOUS
10
132.617
20
-136.555
11
132.617
21
-136.936
0
LINE
8
BLACK
6
CONTINUOUS
10
135.569
20
-139.317
11
135.474
21
-139.221
0
LINE
8
BLACK
6
CONTINUOUS
10
135.474
20
-139.221
11
135.283
21
-138.936
0
LINE
8
BLACK
6
CONTINUOUS
10
135.283
20
-138.936
11
135.188
21
-138.745
0
LINE
8
BLACK
6
CONTINUOUS
10
135.188
20
-138.745
11
135.093
21
-138.46
0
LINE
8
BLACK
6
CONTINUOUS
10
135.093
20
-138.46
11
134.998
21
-137.983
0
LINE
8
BLACK
6
CONTINUOUS
10
134.998
20
-137.983
11
134.998
21
-137.602
0
LINE
8
BLACK
6
CONTINUOUS
10
134.998
20
-137.602
11
135.093
21
-137.126
0
LINE
8
BLACK
6
CONTINUOUS
10
135.093
20
-137.126
11
135.188
21
-136.84
0
LINE
8
BLACK
6
CONTINUOUS
10
135.188
20
-136.84
11
135.283
21
-136.65
0
LINE
8
BLACK
6
CONTINUOUS
10
135.283
20
-136.65
11
135.474
21
-136.364
0
LINE
8
BLACK
6
CONTINUOUS
10
135.474
20
-136.364
11
135.569
21
-136.269
0
LINE
8
BLACK
6
CONTINUOUS
10
136.712
20
-136.555
11
136.902
21
-136.555
0
LINE
8
BLACK
6
CONTINUOUS
10
136.902
20
-136.555
11
137.093
21
-136.65
0
LINE
8
BLACK
6
CONTINUOUS
10
137.093
20
-136.65
11
137.188
21
-136.745
0
LINE
8
BLACK
6
CONTINUOUS
10
137.188
20
-136.745
11
137.283
21
-136.936
0
LINE
8
BLACK
6
CONTINUOUS
10
137.283
20
-136.936
11
137.379
21
-137.317
0
LINE
8
BLACK
6
CONTINUOUS
10
137.379
20
-137.317
11
137.379
21
-137.793
0
LINE
8
BLACK
6
CONTINUOUS
10
137.379
20
-137.793
11
137.283
21
-138.174
0
LINE
8
BLACK
6
CONTINUOUS
10
137.283
20
-138.174
11
137.188
21
-138.364
0
LINE
8
BLACK
6
CONTINUOUS
10
137.188
20
-138.364
11
137.093
21
-138.46
0
LINE
8
BLACK
6
CONTINUOUS
10
137.093
20
-138.46
11
136.902
21
-138.555
0
LINE
8
BLACK
6
CONTINUOUS
10
136.902
20
-138.555
11
136.712
21
-138.555
0
LINE
8
BLACK
6
CONTINUOUS
10
136.712
20
-138.555
11
136.521
21
-138.46
0
LINE
8
BLACK
6
CONTINUOUS
10
136.521
20
-138.46
11
136.426
21
-138.364
0
LINE
8
BLACK
6
CONTINUOUS
10
136.426
20
-138.364
11
136.331
21
-138.174
0
LINE
8
BLACK
6
CONTINUOUS
10
136.331
20
-138.174
11
136.236
21
-137.793
0
LINE
8
BLACK
6
CONTINUOUS
10
136.236
20
-137.793
11
136.236
21
-137.317
0
LINE
8
BLACK
6
CONTINUOUS
10
136.236
20
-137.317
11
136.331
21
-136.936
0
LINE
8
BLACK
6
CONTINUOUS
10
136.331
20
-136.936
11
136.426
21
-136.745
0
LINE
8
BLACK
6
CONTINUOUS
10
136.426
20
-136.745
11
136.521
21
-136.65
0
LINE
8
BLACK
6
CONTINUOUS
10
136.521
20
-136.65
11
136.712
21
-136.555
0
LINE
8
BLACK
6
CONTINUOUS
10
139.76
20
-138.555
11
139.76
21
-136.555
0
LINE
8
BLACK
6
CONTINUOUS
10
140.617
20
-138.555
11
140.617
21
-137.507
0
LINE
8
BLACK
6
CONTINUOUS
10
140.617
20
-137.507
11
140.521
21
-137.317
0
LINE
8
BLACK
6
CONTINUOUS
10
140.521
20
-137.317
11
140.331
21
-137.221
0
LINE
8
BLACK
6
CONTINUOUS
10
140.331
20
-137.221
11
140.045
21
-137.221
0
LINE
8
BLACK
6
CONTINUOUS
10
140.045
20
-137.221
11
139.855
21
-137.317
0
LINE
8
BLACK
6
CONTINUOUS
10
139.855
20
-137.317
11
139.76
21
-137.412
0
LINE
8
BLACK
6
CONTINUOUS
10
141.855
20
-138.555
11
141.664
21
-138.46
0
LINE
8
BLACK
6
CONTINUOUS
10
141.664
20
-138.46
11
141.569
21
-138.364
0
LINE
8
BLACK
6
CONTINUOUS
10
141.569
20
-138.364
11
141.474
21
-138.174
0
LINE
8
BLACK
6
CONTINUOUS
10
141.474
20
-138.174
11
141.474
21
-137.602
0
LINE
8
BLACK
6
CONTINUOUS
10
141.474
20
-137.602
11
141.569
21
-137.412
0
LINE
8
BLACK
6
CONTINUOUS
10
141.569
20
-137.412
11
141.664
21
-137.317
0
LINE
8
BLACK
6
CONTINUOUS
10
141.664
20
-137.317
11
141.855
21
-137.221
0
LINE
8
BLACK
6
CONTINUOUS
10
141.855
20
-137.221
11
142.14
21
-137.221
0
LINE
8
BLACK
6
CONTINUOUS
10
142.14
20
-137.221
11
142.331
21
-137.317
0
LINE
8
BLACK
6
CONTINUOUS
10
142.331
20
-137.317
11
142.426
21
-137.412
0
LINE
8
BLACK
6
CONTINUOUS
10
142.426
20
-137.412
11
142.521
21
-137.602
0
LINE
8
BLACK
6
CONTINUOUS
10
142.521
20
-137.602
11
142.521
21
-138.174
0
LINE
8
BLACK
6
CONTINUOUS
10
142.521
20
-138.174
11
142.426
21
-138.364
0
LINE
8
BLACK
6
CONTINUOUS
10
142.426
20
-138.364
11
142.331
21
-138.46
0
LINE
8
BLACK
6
CONTINUOUS
10
142.331
20
-138.46
11
142.14
21
-138.555
0
LINE
8
BLACK
6
CONTINUOUS
10
142.14
20
-138.555
11
141.855
21
-138.555
0
LINE
8
BLACK
6
CONTINUOUS
10
143.664
20
-138.555
11
143.474
21
-138.46
0
LINE
8
BLACK
6
CONTINUOUS
10
143.474
20
-138.46
11
143.379
21
-138.269
0
LINE
8
BLACK
6
CONTINUOUS
10
143.379
20
-138.269
11
143.379
21
-136.555
0
LINE
8
BLACK
6
CONTINUOUS
10
145.188
20
-138.46
11
144.998
21
-138.555
0
LINE
8
BLACK
6
CONTINUOUS
10
144.998
20
-138.555
11
144.617
21
-138.555
0
LINE
8
BLACK
6
CONTINUOUS
10
144.617
20
-138.555
11
144.426
21
-138.46
0
LINE
8
BLACK
6
CONTINUOUS
10
144.426
20
-138.46
11
144.331
21
-138.269
0
LINE
8
BLACK
6
CONTINUOUS
10
144.331
20
-138.269
11
144.331
21
-137.507
0
LINE
8
BLACK
6
CONTINUOUS
10
144.331
20
-137.507
11
144.426
21
-137.317
0
LINE
8
BLACK
6
CONTINUOUS
10
144.426
20
-137.317
11
144.617
21
-137.221
0
LINE
8
BLACK
6
CONTINUOUS
10
144.617
20
-137.221
11
144.998
21
-137.221
0
LINE
8
BLACK
6
CONTINUOUS
10
144.998
20
-137.221
11
145.188
21
-137.317
0
LINE
8
BLACK
6
CONTINUOUS
10
145.188
20
-137.317
11
145.283
21
-137.507
0
LINE
8
BLACK
6
CONTINUOUS
10
145.283
20
-137.507
11
145.283
21
-137.698
0
LINE
8
BLACK
6
CONTINUOUS
10
145.283
20
-137.698
11
144.331
21
-137.888
0
LINE
8
BLACK
6
CONTINUOUS
10
146.045
20
-138.46
11
146.236
21
-138.555
0
LINE
8
BLACK
6
CONTINUOUS
10
146.236
20
-138.555
11
146.617
21
-138.555
0
LINE
8
BLACK
6
CONTINUOUS
10
146.617
20
-138.555
11
146.807
21
-138.46
0
LINE
8
BLACK
6
CONTINUOUS
10
146.807
20
-138.46
11
146.902
21
-138.269
0
LINE
8
BLACK
6
CONTINUOUS
10
146.902
20
-138.269
11
146.902
21
-138.174
0
LINE
8
BLACK
6
CONTINUOUS
10
146.902
20
-138.174
11
146.807
21
-137.983
0
LINE
8
BLACK
6
CONTINUOUS
10
146.807
20
-137.983
11
146.617
21
-137.888
0
LINE
8
BLACK
6
CONTINUOUS
10
146.617
20
-137.888
11
146.331
21
-137.888
0
LINE
8
BLACK
6
CONTINUOUS
10
146.331
20
-137.888
11
146.14
21
-137.793
0
LINE
8
BLACK
6
CONTINUOUS
10
146.14
20
-137.793
11
146.045
21
-137.602
0
LINE
8
BLACK
6
CONTINUOUS
10
146.045
20
-137.602
11
146.045
21
-137.507
0
LINE
8
BLACK
6
CONTINUOUS
10
146.045
20
-137.507
11
146.14
21
-137.317
0
LINE
8
BLACK
6
CONTINUOUS
10
146.14
20
-137.317
11
146.331
21
-137.221
0
LINE
8
BLACK
6
CONTINUOUS
10
146.331
20
-137.221
11
146.617
21
-137.221
0
LINE
8
BLACK
6
CONTINUOUS
10
146.617
20
-137.221
11
146.807
21
-137.317
0
LINE
8
BLACK
6
CONTINUOUS
10
149.283
20
-137.793
11
150.807
21
-137.793
0
LINE
8
BLACK
6
CONTINUOUS
10
150.045
20
-138.555
11
150.045
21
-137.031
0
LINE
8
BLACK
6
CONTINUOUS
10
153.569
20
-137.412
11
153.379
21
-137.317
0
LINE
8
BLACK
6
CONTINUOUS
10
153.379
20
-137.317
11
153.283
21
-137.221
0
LINE
8
BLACK
6
CONTINUOUS
10
153.283
20
-137.221
11
153.188
21
-137.031
0
LINE
8
BLACK
6
CONTINUOUS
10
153.188
20
-137.031
11
153.188
21
-136.936
0
LINE
8
BLACK
6
CONTINUOUS
10
153.188
20
-136.936
11
153.283
21
-136.745
0
LINE
8
BLACK
6
CONTINUOUS
10
153.283
20
-136.745
11
153.379
21
-136.65
0
LINE
8
BLACK
6
CONTINUOUS
10
153.379
20
-136.65
11
153.569
21
-136.555
0
LINE
8
BLACK
6
CONTINUOUS
10
153.569
20
-136.555
11
153.95
21
-136.555
0
LINE
8
BLACK
6
CONTINUOUS
10
153.95
20
-136.555
11
154.14
21
-136.65
0
LINE
8
BLACK
6
CONTINUOUS
10
154.14
20
-136.65
11
154.236
21
-136.745
0
LINE
8
BLACK
6
CONTINUOUS
10
154.236
20
-136.745
11
154.331
21
-136.936
0
LINE
8
BLACK
6
CONTINUOUS
10
154.331
20
-136.936
11
154.331
21
-137.031
0
LINE
8
BLACK
6
CONTINUOUS
10
154.331
20
-137.031
11
154.236
21
-137.221
0
LINE
8
BLACK
6
CONTINUOUS
10
154.236
20
-137.221
11
154.14
21
-137.317
0
LINE
8
BLACK
6
CONTINUOUS
10
154.14
20
-137.317
11
153.95
21
-137.412
0
LINE
8
BLACK
6
CONTINUOUS
10
153.95
20
-137.412
11
153.569
21
-137.412
0
LINE
8
BLACK
6
CONTINUOUS
10
153.569
20
-137.412
11
153.379
21
-137.507
0
LINE
8
BLACK
6
CONTINUOUS
10
153.379
20
-137.507
11
153.283
21
-137.602
0
LINE
8
BLACK
6
CONTINUOUS
10
153.283
20
-137.602
11
153.188
21
-137.793
0
LINE
8
BLACK
6
CONTINUOUS
10
153.188
20
-137.793
11
153.188
21
-138.174
0
LINE
8
BLACK
6
CONTINUOUS
10
153.188
20
-138.174
11
153.283
21
-138.364
0
LINE
8
BLACK
6
CONTINUOUS
10
153.283
20
-138.364
11
153.379
21
-138.46
0
LINE
8
BLACK
6
CONTINUOUS
10
153.379
20
-138.46
11
153.569
21
-138.555
0
LINE
8
BLACK
6
CONTINUOUS
10
153.569
20
-138.555
11
153.95
21
-138.555
0
LINE
8
BLACK
6
CONTINUOUS
10
153.95
20
-138.555
11
154.14
21
-138.46
0
LINE
8
BLACK
6
CONTINUOUS
10
154.14
20
-138.46
11
154.236
21
-138.364
0
LINE
8
BLACK
6
CONTINUOUS
10
154.236
20
-138.364
11
154.331
21
-138.174
0
LINE
8
BLACK
6
CONTINUOUS
10
154.331
20
-138.174
11
154.331
21
-137.793
0
LINE
8
BLACK
6
CONTINUOUS
10
154.331
20
-137.793
11
154.236
21
-137.602
0
LINE
8
BLACK
6
CONTINUOUS
10
154.236
20
-137.602
11
154.14
21
-137.507
0
LINE
8
BLACK
6
CONTINUOUS
10
154.14
20
-137.507
11
153.95
21
-137.412
0
LINE
8
BLACK
6
CONTINUOUS
10
156.617
20
-138.46
11
156.807
21
-138.555
0
LINE
8
BLACK
6
CONTINUOUS
10
156.807
20
-138.555
11
157.188
21
-138.555
0
LINE
8
BLACK
6
CONTINUOUS
10
157.188
20
-138.555
11
157.379
21
-138.46
0
LINE
8
BLACK
6
CONTINUOUS
10
157.379
20
-138.46
11
157.474
21
-138.269
0
LINE
8
BLACK
6
CONTINUOUS
10
157.474
20
-138.269
11
157.474
21
-138.174
0
LINE
8
BLACK
6
CONTINUOUS
10
157.474
20
-138.174
11
157.379
21
-137.983
0
LINE
8
BLACK
6
CONTINUOUS
10
157.379
20
-137.983
11
157.188
21
-137.888
0
LINE
8
BLACK
6
CONTINUOUS
10
157.188
20
-137.888
11
156.902
21
-137.888
0
LINE
8
BLACK
6
CONTINUOUS
10
156.902
20
-137.888
11
156.712
21
-137.793
0
LINE
8
BLACK
6
CONTINUOUS
10
156.712
20
-137.793
11
156.617
21
-137.602
0
LINE
8
BLACK
6
CONTINUOUS
10
156.617
20
-137.602
11
156.617
21
-137.507
0
LINE
8
BLACK
6
CONTINUOUS
10
156.617
20
-137.507
11
156.712
21
-137.317
0
LINE
8
BLACK
6
CONTINUOUS
10
156.712
20
-137.317
11
156.902
21
-137.221
0
LINE
8
BLACK
6
CONTINUOUS
10
156.902
20
-137.221
11
157.188
21
-137.221
0
LINE
8
BLACK
6
CONTINUOUS
10
157.188
20
-137.221
11
157.379
21
-137.317
0
LINE
8
BLACK
6
CONTINUOUS
10
158.617
20
-138.555
11
158.426
21
-138.46
0
LINE
8
BLACK
6
CONTINUOUS
10
158.426
20
-138.46
11
158.331
21
-138.269
0
LINE
8
BLACK
6
CONTINUOUS
10
158.331
20
-138.269
11
158.331
21
-136.555
0
LINE
8
BLACK
6
CONTINUOUS
10
159.664
20
-138.555
11
159.474
21
-138.46
0
LINE
8
BLACK
6
CONTINUOUS
10
159.474
20
-138.46
11
159.379
21
-138.364
0
LINE
8
BLACK
6
CONTINUOUS
10
159.379
20
-138.364
11
159.283
21
-138.174
0
LINE
8
BLACK
6
CONTINUOUS
10
159.283
20
-138.174
11
159.283
21
-137.602
0
LINE
8
BLACK
6
CONTINUOUS
10
159.283
20
-137.602
11
159.379
21
-137.412
0
LINE
8
BLACK
6
CONTINUOUS
10
159.379
20
-137.412
11
159.474
21
-137.317
0
LINE
8
BLACK
6
CONTINUOUS
10
159.474
20
-137.317
11
159.664
21
-137.221
0
LINE
8
BLACK
6
CONTINUOUS
10
159.664
20
-137.221
11
159.95
21
-137.221
0
LINE
8
BLACK
6
CONTINUOUS
10
159.95
20
-137.221
11
160.14
21
-137.317
0
LINE
8
BLACK
6
CONTINUOUS
10
160.14
20
-137.317
11
160.236
21
-137.412
0
LINE
8
BLACK
6
CONTINUOUS
10
160.236
20
-137.412
11
160.331
21
-137.602
0
LINE
8
BLACK
6
CONTINUOUS
10
160.331
20
-137.602
11
160.331
21
-138.174
0
LINE
8
BLACK
6
CONTINUOUS
10
160.331
20
-138.174
11
160.236
21
-138.364
0
LINE
8
BLACK
6
CONTINUOUS
10
160.236
20
-138.364
11
160.14
21
-138.46
0
LINE
8
BLACK
6
CONTINUOUS
10
160.14
20
-138.46
11
159.95
21
-138.555
0
LINE
8
BLACK
6
CONTINUOUS
10
159.95
20
-138.555
11
159.664
21
-138.555
0
LINE
8
BLACK
6
CONTINUOUS
10
160.902
20
-137.221
11
161.664
21
-137.221
0
LINE
8
BLACK
6
CONTINUOUS
10
161.188
20
-136.555
11
161.188
21
-138.269
0
LINE
8
BLACK
6
CONTINUOUS
10
161.188
20
-138.269
11
161.283
21
-138.46
0
LINE
8
BLACK
6
CONTINUOUS
10
161.283
20
-138.46
11
161.474
21
-138.555
0
LINE
8
BLACK
6
CONTINUOUS
10
161.474
20
-138.555
11
161.664
21
-138.555
0
LINE
8
BLACK
6
CONTINUOUS
10
162.236
20
-138.46
11
162.426
21
-138.555
0
LINE
8
BLACK
6
CONTINUOUS
10
162.426
20
-138.555
11
162.807
21
-138.555
0
LINE
8
BLACK
6
CONTINUOUS
10
162.807
20
-138.555
11
162.998
21
-138.46
0
LINE
8
BLACK
6
CONTINUOUS
10
162.998
20
-138.46
11
163.093
21
-138.269
0
LINE
8
BLACK
6
CONTINUOUS
10
163.093
20
-138.269
11
163.093
21
-138.174
0
LINE
8
BLACK
6
CONTINUOUS
10
163.093
20
-138.174
11
162.998
21
-137.983
0
LINE
8
BLACK
6
CONTINUOUS
10
162.998
20
-137.983
11
162.807
21
-137.888
0
LINE
8
BLACK
6
CONTINUOUS
10
162.807
20
-137.888
11
162.521
21
-137.888
0
LINE
8
BLACK
6
CONTINUOUS
10
162.521
20
-137.888
11
162.331
21
-137.793
0
LINE
8
BLACK
6
CONTINUOUS
10
162.331
20
-137.793
11
162.236
21
-137.602
0
LINE
8
BLACK
6
CONTINUOUS
10
162.236
20
-137.602
11
162.236
21
-137.507
0
LINE
8
BLACK
6
CONTINUOUS
10
162.236
20
-137.507
11
162.331
21
-137.317
0
LINE
8
BLACK
6
CONTINUOUS
10
162.331
20
-137.317
11
162.521
21
-137.221
0
LINE
8
BLACK
6
CONTINUOUS
10
162.521
20
-137.221
11
162.807
21
-137.221
0
LINE
8
BLACK
6
CONTINUOUS
10
162.807
20
-137.221
11
162.998
21
-137.317
0
LINE
8
BLACK
6
CONTINUOUS
10
163.76
20
-139.317
11
163.855
21
-139.221
0
LINE
8
BLACK
6
CONTINUOUS
10
163.855
20
-139.221
11
164.045
21
-138.936
0
LINE
8
BLACK
6
CONTINUOUS
10
164.045
20
-138.936
11
164.14
21
-138.745
0
LINE
8
BLACK
6
CONTINUOUS
10
164.14
20
-138.745
11
164.236
21
-138.46
0
LINE
8
BLACK
6
CONTINUOUS
10
164.236
20
-138.46
11
164.331
21
-137.983
0
LINE
8
BLACK
6
CONTINUOUS
10
164.331
20
-137.983
11
164.331
21
-137.602
0
LINE
8
BLACK
6
CONTINUOUS
10
164.331
20
-137.602
11
164.236
21
-137.126
0
LINE
8
BLACK
6
CONTINUOUS
10
164.236
20
-137.126
11
164.14
21
-136.84
0
LINE
8
BLACK
6
CONTINUOUS
10
164.14
20
-136.84
11
164.045
21
-136.65
0
LINE
8
BLACK
6
CONTINUOUS
10
164.045
20
-136.65
11
163.855
21
-136.364
0
LINE
8
BLACK
6
CONTINUOUS
10
163.855
20
-136.364
11
163.76
21
-136.269
0
LINE
8
BLACK
6
CONTINUOUS
10
97.85
20
-139.29
11
99.85
21
-141.29
0
LINE
8
BLACK
6
CONTINUOUS
10
99.85
20
-139.29
11
97.85
21
-141.29
0
LINE
8
BLACK
6
CONTINUOUS
10
98.85
20
-139.29
11
98.85
21
-141.29
0
LINE
8
BLACK
6
CONTINUOUS
10
97.85
20
-140.29
11
99.85
21
-140.29
0
LINE
8
BLACK
6
CONTINUOUS
10
102.236
20
-139.195
11
103.474
21
-139.195
0
LINE
8
BLACK
6
CONTINUOUS
10
103.474
20
-139.195
11
102.807
21
-139.957
0
LINE
8
BLACK
6
CONTINUOUS
10
102.807
20
-139.957
11
103.093
21
-139.957
0
LINE
8
BLACK
6
CONTINUOUS
10
103.093
20
-139.957
11
103.283
21
-140.052
0
LINE
8
BLACK
6
CONTINUOUS
10
103.283
20
-140.052
11
103.379
21
-140.147
0
LINE
8
BLACK
6
CONTINUOUS
10
103.379
20
-140.147
11
103.474
21
-140.338
0
LINE
8
BLACK
6
CONTINUOUS
10
103.474
20
-140.338
11
103.474
21
-140.814
0
LINE
8
BLACK
6
CONTINUOUS
10
103.474
20
-140.814
11
103.379
21
-141.004
0
LINE
8
BLACK
6
CONTINUOUS
10
103.379
20
-141.004
11
103.283
21
-141.1
0
LINE
8
BLACK
6
CONTINUOUS
10
103.283
20
-141.1
11
103.093
21
-141.195
0
LINE
8
BLACK
6
CONTINUOUS
10
103.093
20
-141.195
11
102.521
21
-141.195
0
LINE
8
BLACK
6
CONTINUOUS
10
102.521
20
-141.195
11
102.331
21
-141.1
0
LINE
8
BLACK
6
CONTINUOUS
10
102.331
20
-141.1
11
102.236
21
-141.004
0
LINE
8
BLACK
6
CONTINUOUS
10
104.331
20
-141.004
11
104.426
21
-141.1
0
LINE
8
BLACK
6
CONTINUOUS
10
104.426
20
-141.1
11
104.331
21
-141.195
0
LINE
8
BLACK
6
CONTINUOUS
10
104.331
20
-141.195
11
104.236
21
-141.1
0
LINE
8
BLACK
6
CONTINUOUS
10
104.236
20
-141.1
11
104.331
21
-141.004
0
LINE
8
BLACK
6
CONTINUOUS
10
104.331
20
-141.004
11
104.331
21
-141.195
0
LINE
8
BLACK
6
CONTINUOUS
10
105.188
20
-139.385
11
105.283
21
-139.29
0
LINE
8
BLACK
6
CONTINUOUS
10
105.283
20
-139.29
11
105.474
21
-139.195
0
LINE
8
BLACK
6
CONTINUOUS
10
105.474
20
-139.195
11
105.95
21
-139.195
0
LINE
8
BLACK
6
CONTINUOUS
10
105.95
20
-139.195
11
106.14
21
-139.29
0
LINE
8
BLACK
6
CONTINUOUS
10
106.14
20
-139.29
11
106.236
21
-139.385
0
LINE
8
BLACK
6
CONTINUOUS
10
106.236
20
-139.385
11
106.331
21
-139.576
0
LINE
8
BLACK
6
CONTINUOUS
10
106.331
20
-139.576
11
106.331
21
-139.766
0
LINE
8
BLACK
6
CONTINUOUS
10
106.331
20
-139.766
11
106.236
21
-140.052
0
LINE
8
BLACK
6
CONTINUOUS
10
106.236
20
-140.052
11
105.093
21
-141.195
0
LINE
8
BLACK
6
CONTINUOUS
10
105.093
20
-141.195
11
106.331
21
-141.195
0
LINE
8
BLACK
6
CONTINUOUS
10
107.569
20
-139.195
11
107.76
21
-139.195
0
LINE
8
BLACK
6
CONTINUOUS
10
107.76
20
-139.195
11
107.95
21
-139.29
0
LINE
8
BLACK
6
CONTINUOUS
10
107.95
20
-139.29
11
108.045
21
-139.385
0
LINE
8
BLACK
6
CONTINUOUS
10
108.045
20
-139.385
11
108.14
21
-139.576
0
LINE
8
BLACK
6
CONTINUOUS
10
108.14
20
-139.576
11
108.236
21
-139.957
0
LINE
8
BLACK
6
CONTINUOUS
10
108.236
20
-139.957
11
108.236
21
-140.433
0
LINE
8
BLACK
6
CONTINUOUS
10
108.236
20
-140.433
11
108.14
21
-140.814
0
LINE
8
BLACK
6
CONTINUOUS
10
108.14
20
-140.814
11
108.045
21
-141.004
0
LINE
8
BLACK
6
CONTINUOUS
10
108.045
20
-141.004
11
107.95
21
-141.1
0
LINE
8
BLACK
6
CONTINUOUS
10
107.95
20
-141.1
11
107.76
21
-141.195
0
LINE
8
BLACK
6
CONTINUOUS
10
107.76
20
-141.195
11
107.569
21
-141.195
0
LINE
8
BLACK
6
CONTINUOUS
10
107.569
20
-141.195
11
107.379
21
-141.1
0
LINE
8
BLACK
6
CONTINUOUS
10
107.379
20
-141.1
11
107.283
21
-141.004
0
LINE
8
BLACK
6
CONTINUOUS
10
107.283
20
-141.004
11
107.188
21
-140.814
0
LINE
8
BLACK
6
CONTINUOUS
10
107.188
20
-140.814
11
107.093
21
-140.433
0
LINE
8
BLACK
6
CONTINUOUS
10
107.093
20
-140.433
11
107.093
21
-139.957
0
LINE
8
BLACK
6
CONTINUOUS
10
107.093
20
-139.957
11
107.188
21
-139.576
0
LINE
8
BLACK
6
CONTINUOUS
10
107.188
20
-139.576
11
107.283
21
-139.385
0
LINE
8
BLACK
6
CONTINUOUS
10
107.283
20
-139.385
11
107.379
21
-139.29
0
LINE
8
BLACK
6
CONTINUOUS
10
107.379
20
-139.29
11
107.569
21
-139.195
0
LINE
8
BLACK
6
CONTINUOUS
10
109.474
20
-139.195
11
109.664
21
-139.195
0
LINE
8
BLACK
6
CONTINUOUS
10
109.664
20
-139.195
11
109.855
21
-139.29
0
LINE
8
BLACK
6
CONTINUOUS
10
109.855
20
-139.29
11
109.95
21
-139.385
0
LINE
8
BLACK
6
CONTINUOUS
10
109.95
20
-139.385
11
110.045
21
-139.576
0
LINE
8
BLACK
6
CONTINUOUS
10
110.045
20
-139.576
11
110.14
21
-139.957
0
LINE
8
BLACK
6
CONTINUOUS
10
110.14
20
-139.957
11
110.14
21
-140.433
0
LINE
8
BLACK
6
CONTINUOUS
10
110.14
20
-140.433
11
110.045
21
-140.814
0
LINE
8
BLACK
6
CONTINUOUS
10
110.045
20
-140.814
11
109.95
21
-141.004
0
LINE
8
BLACK
6
CONTINUOUS
10
109.95
20
-141.004
11
109.855
21
-141.1
0
LINE
8
BLACK
6
CONTINUOUS
10
109.855
20
-141.1
11
109.664
21
-141.195
0
LINE
8
BLACK
6
CONTINUOUS
10
109.664
20
-141.195
11
109.474
21
-141.195
0
LINE
8
BLACK
6
CONTINUOUS
10
109.474
20
-141.195
11
109.283
21
-141.1
0
LINE
8
BLACK
6
CONTINUOUS
10
109.283
20
-141.1
11
109.188
21
-141.004
0
LINE
8
BLACK
6
CONTINUOUS
10
109.188
20
-141.004
11
109.093
21
-140.814
0
LINE
8
BLACK
6
CONTINUOUS
10
109.093
20
-140.814
11
108.998
21
-140.433
0
LINE
8
BLACK
6
CONTINUOUS
10
108.998
20
-140.433
11
108.998
21
-139.957
0
LINE
8
BLACK
6
CONTINUOUS
10
108.998
20
-139.957
11
109.093
21
-139.576
0
LINE
8
BLACK
6
CONTINUOUS
10
109.093
20
-139.576
11
109.188
21
-139.385
0
LINE
8
BLACK
6
CONTINUOUS
10
109.188
20
-139.385
11
109.283
21
-139.29
0
LINE
8
BLACK
6
CONTINUOUS
10
109.283
20
-139.29
11
109.474
21
-139.195
0
LINE
8
BLACK
6
CONTINUOUS
10
110.998
20
-141.195
11
110.998
21
-139.861
0
LINE
8
BLACK
6
CONTINUOUS
10
110.998
20
-140.052
11
111.093
21
-139.957
0
LINE
8
BLACK
6
CONTINUOUS
10
111.093
20
-139.957
11
111.283
21
-139.861
0
LINE
8
BLACK
6
CONTINUOUS
10
111.283
20
-139.861
11
111.569
21
-139.861
0
LINE
8
BLACK
6
CONTINUOUS
10
111.569
20
-139.861
11
111.76
21
-139.957
0
LINE
8
BLACK
6
CONTINUOUS
10
111.76
20
-139.957
11
111.855
21
-140.147
0
LINE
8
BLACK
6
CONTINUOUS
10
111.855
20
-140.147
11
111.855
21
-141.195
0
LINE
8
BLACK
6
CONTINUOUS
10
111.855
20
-140.147
11
111.95
21
-139.957
0
LINE
8
BLACK
6
CONTINUOUS
10
111.95
20
-139.957
11
112.14
21
-139.861
0
LINE
8
BLACK
6
CONTINUOUS
10
112.14
20
-139.861
11
112.426
21
-139.861
0
LINE
8
BLACK
6
CONTINUOUS
10
112.426
20
-139.861
11
112.617
21
-139.957
0
LINE
8
BLACK
6
CONTINUOUS
10
112.617
20
-139.957
11
112.712
21
-140.147
0
LINE
8
BLACK
6
CONTINUOUS
10
112.712
20
-140.147
11
112.712
21
-141.195
0
LINE
8
BLACK
6
CONTINUOUS
10
113.664
20
-141.195
11
113.664
21
-139.861
0
LINE
8
BLACK
6
CONTINUOUS
10
113.664
20
-140.052
11
113.76
21
-139.957
0
LINE
8
BLACK
6
CONTINUOUS
10
113.76
20
-139.957
11
113.95
21
-139.861
0
LINE
8
BLACK
6
CONTINUOUS
10
113.95
20
-139.861
11
114.236
21
-139.861
0
LINE
8
BLACK
6
CONTINUOUS
10
114.236
20
-139.861
11
114.426
21
-139.957
0
LINE
8
BLACK
6
CONTINUOUS
10
114.426
20
-139.957
11
114.521
21
-140.147
0
LINE
8
BLACK
6
CONTINUOUS
10
114.521
20
-140.147
11
114.521
21
-141.195
0
LINE
8
BLACK
6
CONTINUOUS
10
114.521
20
-140.147
11
114.617
21
-139.957
0
LINE
8
BLACK
6
CONTINUOUS
10
114.617
20
-139.957
11
114.807
21
-139.861
0
LINE
8
BLACK
6
CONTINUOUS
10
114.807
20
-139.861
11
115.093
21
-139.861
0
LINE
8
BLACK
6
CONTINUOUS
10
115.093
20
-139.861
11
115.283
21
-139.957
0
LINE
8
BLACK
6
CONTINUOUS
10
115.283
20
-139.957
11
115.379
21
-140.147
0
LINE
8
BLACK
6
CONTINUOUS
10
115.379
20
-140.147
11
115.379
21
-141.195
0
LINE
8
BLACK
6
CONTINUOUS
10
119.283
20
-139.1
11
117.569
21
-141.671
0
LINE
8
BLACK
6
CONTINUOUS
10
121.855
20
-139.195
11
122.045
21
-139.195
0
LINE
8
BLACK
6
CONTINUOUS
10
122.045
20
-139.195
11
122.236
21
-139.29
0
LINE
8
BLACK
6
CONTINUOUS
10
122.236
20
-139.29
11
122.331
21
-139.385
0
LINE
8
BLACK
6
CONTINUOUS
10
122.331
20
-139.385
11
122.426
21
-139.576
0
LINE
8
BLACK
6
CONTINUOUS
10
122.426
20
-139.576
11
122.521
21
-139.957
0
LINE
8
BLACK
6
CONTINUOUS
10
122.521
20
-139.957
11
122.521
21
-140.433
0
LINE
8
BLACK
6
CONTINUOUS
10
122.521
20
-140.433
11
122.426
21
-140.814
0
LINE
8
BLACK
6
CONTINUOUS
10
122.426
20
-140.814
11
122.331
21
-141.004
0
LINE
8
BLACK
6
CONTINUOUS
10
122.331
20
-141.004
11
122.236
21
-141.1
0
LINE
8
BLACK
6
CONTINUOUS
10
122.236
20
-141.1
11
122.045
21
-141.195
0
LINE
8
BLACK
6
CONTINUOUS
10
122.045
20
-141.195
11
121.855
21
-141.195
0
LINE
8
BLACK
6
CONTINUOUS
10
121.855
20
-141.195
11
121.664
21
-141.1
0
LINE
8
BLACK
6
CONTINUOUS
10
121.664
20
-141.1
11
121.569
21
-141.004
0
LINE
8
BLACK
6
CONTINUOUS
10
121.569
20
-141.004
11
121.474
21
-140.814
0
LINE
8
BLACK
6
CONTINUOUS
10
121.474
20
-140.814
11
121.379
21
-140.433
0
LINE
8
BLACK
6
CONTINUOUS
10
121.379
20
-140.433
11
121.379
21
-139.957
0
LINE
8
BLACK
6
CONTINUOUS
10
121.379
20
-139.957
11
121.474
21
-139.576
0
LINE
8
BLACK
6
CONTINUOUS
10
121.474
20
-139.576
11
121.569
21
-139.385
0
LINE
8
BLACK
6
CONTINUOUS
10
121.569
20
-139.385
11
121.664
21
-139.29
0
LINE
8
BLACK
6
CONTINUOUS
10
121.664
20
-139.29
11
121.855
21
-139.195
0
LINE
8
BLACK
6
CONTINUOUS
10
123.379
20
-141.004
11
123.474
21
-141.1
0
LINE
8
BLACK
6
CONTINUOUS
10
123.474
20
-141.1
11
123.379
21
-141.195
0
LINE
8
BLACK
6
CONTINUOUS
10
123.379
20
-141.195
11
123.283
21
-141.1
0
LINE
8
BLACK
6
CONTINUOUS
10
123.283
20
-141.1
11
123.379
21
-141.004
0
LINE
8
BLACK
6
CONTINUOUS
10
123.379
20
-141.004
11
123.379
21
-141.195
0
LINE
8
BLACK
6
CONTINUOUS
10
125.379
20
-141.195
11
124.236
21
-141.195
0
LINE
8
BLACK
6
CONTINUOUS
10
124.807
20
-141.195
11
124.807
21
-139.195
0
LINE
8
BLACK
6
CONTINUOUS
10
124.807
20
-139.195
11
124.617
21
-139.48
0
LINE
8
BLACK
6
CONTINUOUS
10
124.617
20
-139.48
11
124.426
21
-139.671
0
LINE
8
BLACK
6
CONTINUOUS
10
124.426
20
-139.671
11
124.236
21
-139.766
0
LINE
8
BLACK
6
CONTINUOUS
10
126.14
20
-139.385
11
126.236
21
-139.29
0
LINE
8
BLACK
6
CONTINUOUS
10
126.236
20
-139.29
11
126.426
21
-139.195
0
LINE
8
BLACK
6
CONTINUOUS
10
126.426
20
-139.195
11
126.902
21
-139.195
0
LINE
8
BLACK
6
CONTINUOUS
10
126.902
20
-139.195
11
127.093
21
-139.29
0
LINE
8
BLACK
6
CONTINUOUS
10
127.093
20
-139.29
11
127.188
21
-139.385
0
LINE
8
BLACK
6
CONTINUOUS
10
127.188
20
-139.385
11
127.283
21
-139.576
0
LINE
8
BLACK
6
CONTINUOUS
10
127.283
20
-139.576
11
127.283
21
-139.766
0
LINE
8
BLACK
6
CONTINUOUS
10
127.283
20
-139.766
11
127.188
21
-140.052
0
LINE
8
BLACK
6
CONTINUOUS
10
127.188
20
-140.052
11
126.045
21
-141.195
0
LINE
8
BLACK
6
CONTINUOUS
10
126.045
20
-141.195
11
127.283
21
-141.195
0
LINE
8
BLACK
6
CONTINUOUS
10
128.998
20
-139.195
11
128.617
21
-139.195
0
LINE
8
BLACK
6
CONTINUOUS
10
128.617
20
-139.195
11
128.426
21
-139.29
0
LINE
8
BLACK
6
CONTINUOUS
10
128.426
20
-139.29
11
128.331
21
-139.385
0
LINE
8
BLACK
6
CONTINUOUS
10
128.331
20
-139.385
11
128.14
21
-139.671
0
LINE
8
BLACK
6
CONTINUOUS
10
128.14
20
-139.671
11
128.045
21
-140.052
0
LINE
8
BLACK
6
CONTINUOUS
10
128.045
20
-140.052
11
128.045
21
-140.814
0
LINE
8
BLACK
6
CONTINUOUS
10
128.045
20
-140.814
11
128.14
21
-141.004
0
LINE
8
BLACK
6
CONTINUOUS
10
128.14
20
-141.004
11
128.236
21
-141.1
0
LINE
8
BLACK
6
CONTINUOUS
10
128.236
20
-141.1
11
128.426
21
-141.195
0
LINE
8
BLACK
6
CONTINUOUS
10
128.426
20
-141.195
11
128.807
21
-141.195
0
LINE
8
BLACK
6
CONTINUOUS
10
128.807
20
-141.195
11
128.998
21
-141.1
0
LINE
8
BLACK
6
CONTINUOUS
10
128.998
20
-141.1
11
129.093
21
-141.004
0
LINE
8
BLACK
6
CONTINUOUS
10
129.093
20
-141.004
11
129.188
21
-140.814
0
LINE
8
BLACK
6
CONTINUOUS
10
129.188
20
-140.814
11
129.188
21
-140.338
0
LINE
8
BLACK
6
CONTINUOUS
10
129.188
20
-140.338
11
129.093
21
-140.147
0
LINE
8
BLACK
6
CONTINUOUS
10
129.093
20
-140.147
11
128.998
21
-140.052
0
LINE
8
BLACK
6
CONTINUOUS
10
128.998
20
-140.052
11
128.807
21
-139.957
0
LINE
8
BLACK
6
CONTINUOUS
10
128.807
20
-139.957
11
128.426
21
-139.957
0
LINE
8
BLACK
6
CONTINUOUS
10
128.426
20
-139.957
11
128.236
21
-140.052
0
LINE
8
BLACK
6
CONTINUOUS
10
128.236
20
-140.052
11
128.14
21
-140.147
0
LINE
8
BLACK
6
CONTINUOUS
10
128.14
20
-140.147
11
128.045
21
-140.338
0
LINE
8
BLACK
6
CONTINUOUS
10
130.426
20
-139.195
11
130.617
21
-139.195
0
LINE
8
BLACK
6
CONTINUOUS
10
130.617
20
-139.195
11
130.807
21
-139.29
0
LINE
8
BLACK
6
CONTINUOUS
10
130.807
20
-139.29
11
130.902
21
-139.385
0
LINE
8
BLACK
6
CONTINUOUS
10
130.902
20
-139.385
11
130.998
21
-139.576
0
LINE
8
BLACK
6
CONTINUOUS
10
130.998
20
-139.576
11
131.093
21
-139.957
0
LINE
8
BLACK
6
CONTINUOUS
10
131.093
20
-139.957
11
131.093
21
-140.433
0
LINE
8
BLACK
6
CONTINUOUS
10
131.093
20
-140.433
11
130.998
21
-140.814
0
LINE
8
BLACK
6
CONTINUOUS
10
130.998
20
-140.814
11
130.902
21
-141.004
0
LINE
8
BLACK
6
CONTINUOUS
10
130.902
20
-141.004
11
130.807
21
-141.1
0
LINE
8
BLACK
6
CONTINUOUS
10
130.807
20
-141.1
11
130.617
21
-141.195
0
LINE
8
BLACK
6
CONTINUOUS
10
130.617
20
-141.195
11
130.426
21
-141.195
0
LINE
8
BLACK
6
CONTINUOUS
10
130.426
20
-141.195
11
130.236
21
-141.1
0
LINE
8
BLACK
6
CONTINUOUS
10
130.236
20
-141.1
11
130.14
21
-141.004
0
LINE
8
BLACK
6
CONTINUOUS
10
130.14
20
-141.004
11
130.045
21
-140.814
0
LINE
8
BLACK
6
CONTINUOUS
10
130.045
20
-140.814
11
129.95
21
-140.433
0
LINE
8
BLACK
6
CONTINUOUS
10
129.95
20
-140.433
11
129.95
21
-139.957
0
LINE
8
BLACK
6
CONTINUOUS
10
129.95
20
-139.957
11
130.045
21
-139.576
0
LINE
8
BLACK
6
CONTINUOUS
10
130.045
20
-139.576
11
130.14
21
-139.385
0
LINE
8
BLACK
6
CONTINUOUS
10
130.14
20
-139.385
11
130.236
21
-139.29
0
LINE
8
BLACK
6
CONTINUOUS
10
130.236
20
-139.29
11
130.426
21
-139.195
0
LINE
8
BLACK
6
CONTINUOUS
10
131.855
20
-139.195
11
131.855
21
-139.576
0
LINE
8
BLACK
6
CONTINUOUS
10
132.617
20
-139.195
11
132.617
21
-139.576
0
LINE
8
BLACK
6
CONTINUOUS
10
135.569
20
-141.957
11
135.474
21
-141.861
0
LINE
8
BLACK
6
CONTINUOUS
10
135.474
20
-141.861
11
135.283
21
-141.576
0
LINE
8
BLACK
6
CONTINUOUS
10
135.283
20
-141.576
11
135.188
21
-141.385
0
LINE
8
BLACK
6
CONTINUOUS
10
135.188
20
-141.385
11
135.093
21
-141.1
0
LINE
8
BLACK
6
CONTINUOUS
10
135.093
20
-141.1
11
134.998
21
-140.623
0
LINE
8
BLACK
6
CONTINUOUS
10
134.998
20
-140.623
11
134.998
21
-140.242
0
LINE
8
BLACK
6
CONTINUOUS
10
134.998
20
-140.242
11
135.093
21
-139.766
0
LINE
8
BLACK
6
CONTINUOUS
10
135.093
20
-139.766
11
135.188
21
-139.48
0
LINE
8
BLACK
6
CONTINUOUS
10
135.188
20
-139.48
11
135.283
21
-139.29
0
LINE
8
BLACK
6
CONTINUOUS
10
135.283
20
-139.29
11
135.474
21
-139.004
0
LINE
8
BLACK
6
CONTINUOUS
10
135.474
20
-139.004
11
135.569
21
-138.909
0
LINE
8
BLACK
6
CONTINUOUS
10
137.188
20
-139.861
11
137.188
21
-141.195
0
LINE
8
BLACK
6
CONTINUOUS
10
136.712
20
-139.1
11
136.236
21
-140.528
0
LINE
8
BLACK
6
CONTINUOUS
10
136.236
20
-140.528
11
137.474
21
-140.528
0
LINE
8
BLACK
6
CONTINUOUS
10
139.76
20
-141.195
11
139.76
21
-139.195
0
LINE
8
BLACK
6
CONTINUOUS
10
140.617
20
-141.195
11
140.617
21
-140.147
0
LINE
8
BLACK
6
CONTINUOUS
10
140.617
20
-140.147
11
140.521
21
-139.957
0
LINE
8
BLACK
6
CONTINUOUS
10
140.521
20
-139.957
11
140.331
21
-139.861
0
LINE
8
BLACK
6
CONTINUOUS
10
140.331
20
-139.861
11
140.045
21
-139.861
0
LINE
8
BLACK
6
CONTINUOUS
10
140.045
20
-139.861
11
139.855
21
-139.957
0
LINE
8
BLACK
6
CONTINUOUS
10
139.855
20
-139.957
11
139.76
21
-140.052
0
LINE
8
BLACK
6
CONTINUOUS
10
141.855
20
-141.195
11
141.664
21
-141.1
0
LINE
8
BLACK
6
CONTINUOUS
10
141.664
20
-141.1
11
141.569
21
-141.004
0
LINE
8
BLACK
6
CONTINUOUS
10
141.569
20
-141.004
11
141.474
21
-140.814
0
LINE
8
BLACK
6
CONTINUOUS
10
141.474
20
-140.814
11
141.474
21
-140.242
0
LINE
8
BLACK
6
CONTINUOUS
10
141.474
20
-140.242
11
141.569
21
-140.052
0
LINE
8
BLACK
6
CONTINUOUS
10
141.569
20
-140.052
11
141.664
21
-139.957
0
LINE
8
BLACK
6
CONTINUOUS
10
141.664
20
-139.957
11
141.855
21
-139.861
0
LINE
8
BLACK
6
CONTINUOUS
10
141.855
20
-139.861
11
142.14
21
-139.861
0
LINE
8
BLACK
6
CONTINUOUS
10
142.14
20
-139.861
11
142.331
21
-139.957
0
LINE
8
BLACK
6
CONTINUOUS
10
142.331
20
-139.957
11
142.426
21
-140.052
0
LINE
8
BLACK
6
CONTINUOUS
10
142.426
20
-140.052
11
142.521
21
-140.242
0
LINE
8
BLACK
6
CONTINUOUS
10
142.521
20
-140.242
11
142.521
21
-140.814
0
LINE
8
BLACK
6
CONTINUOUS
10
142.521
20
-140.814
11
142.426
21
-141.004
0
LINE
8
BLACK
6
CONTINUOUS
10
142.426
20
-141.004
11
142.331
21
-141.1
0
LINE
8
BLACK
6
CONTINUOUS
10
142.331
20
-141.1
11
142.14
21
-141.195
0
LINE
8
BLACK
6
CONTINUOUS
10
142.14
20
-141.195
11
141.855
21
-141.195
0
LINE
8
BLACK
6
CONTINUOUS
10
143.664
20
-141.195
11
143.474
21
-141.1
0
LINE
8
BLACK
6
CONTINUOUS
10
143.474
20
-141.1
11
143.379
21
-140.909
0
LINE
8
BLACK
6
CONTINUOUS
10
143.379
20
-140.909
11
143.379
21
-139.195
0
LINE
8
BLACK
6
CONTINUOUS
10
145.188
20
-141.1
11
144.998
21
-141.195
0
LINE
8
BLACK
6
CONTINUOUS
10
144.998
20
-141.195
11
144.617
21
-141.195
0
LINE
8
BLACK
6
CONTINUOUS
10
144.617
20
-141.195
11
144.426
21
-141.1
0
LINE
8
BLACK
6
CONTINUOUS
10
144.426
20
-141.1
11
144.331
21
-140.909
0
LINE
8
BLACK
6
CONTINUOUS
10
144.331
20
-140.909
11
144.331
21
-140.147
0
LINE
8
BLACK
6
CONTINUOUS
10
144.331
20
-140.147
11
144.426
21
-139.957
0
LINE
8
BLACK
6
CONTINUOUS
10
144.426
20
-139.957
11
144.617
21
-139.861
0
LINE
8
BLACK
6
CONTINUOUS
10
144.617
20
-139.861
11
144.998
21
-139.861
0
LINE
8
BLACK
6
CONTINUOUS
10
144.998
20
-139.861
11
145.188
21
-139.957
0
LINE
8
BLACK
6
CONTINUOUS
10
145.188
20
-139.957
11
145.283
21
-140.147
0
LINE
8
BLACK
6
CONTINUOUS
10
145.283
20
-140.147
11
145.283
21
-140.338
0
LINE
8
BLACK
6
CONTINUOUS
10
145.283
20
-140.338
11
144.331
21
-140.528
0
LINE
8
BLACK
6
CONTINUOUS
10
146.045
20
-141.1
11
146.236
21
-141.195
0
LINE
8
BLACK
6
CONTINUOUS
10
146.236
20
-141.195
11
146.617
21
-141.195
0
LINE
8
BLACK
6
CONTINUOUS
10
146.617
20
-141.195
11
146.807
21
-141.1
0
LINE
8
BLACK
6
CONTINUOUS
10
146.807
20
-141.1
11
146.902
21
-140.909
0
LINE
8
BLACK
6
CONTINUOUS
10
146.902
20
-140.909
11
146.902
21
-140.814
0
LINE
8
BLACK
6
CONTINUOUS
10
146.902
20
-140.814
11
146.807
21
-140.623
0
LINE
8
BLACK
6
CONTINUOUS
10
146.807
20
-140.623
11
146.617
21
-140.528
0
LINE
8
BLACK
6
CONTINUOUS
10
146.617
20
-140.528
11
146.331
21
-140.528
0
LINE
8
BLACK
6
CONTINUOUS
10
146.331
20
-140.528
11
146.14
21
-140.433
0
LINE
8
BLACK
6
CONTINUOUS
10
146.14
20
-140.433
11
146.045
21
-140.242
0
LINE
8
BLACK
6
CONTINUOUS
10
146.045
20
-140.242
11
146.045
21
-140.147
0
LINE
8
BLACK
6
CONTINUOUS
10
146.045
20
-140.147
11
146.14
21
-139.957
0
LINE
8
BLACK
6
CONTINUOUS
10
146.14
20
-139.957
11
146.331
21
-139.861
0
LINE
8
BLACK
6
CONTINUOUS
10
146.331
20
-139.861
11
146.617
21
-139.861
0
LINE
8
BLACK
6
CONTINUOUS
10
146.617
20
-139.861
11
146.807
21
-139.957
0
LINE
8
BLACK
6
CONTINUOUS
10
147.569
20
-141.957
11
147.664
21
-141.861
0
LINE
8
BLACK
6
CONTINUOUS
10
147.664
20
-141.861
11
147.855
21
-141.576
0
LINE
8
BLACK
6
CONTINUOUS
10
147.855
20
-141.576
11
147.95
21
-141.385
0
LINE
8
BLACK
6
CONTINUOUS
10
147.95
20
-141.385
11
148.045
21
-141.1
0
LINE
8
BLACK
6
CONTINUOUS
10
148.045
20
-141.1
11
148.14
21
-140.623
0
LINE
8
BLACK
6
CONTINUOUS
10
148.14
20
-140.623
11
148.14
21
-140.242
0
LINE
8
BLACK
6
CONTINUOUS
10
148.14
20
-140.242
11
148.045
21
-139.766
0
LINE
8
BLACK
6
CONTINUOUS
10
148.045
20
-139.766
11
147.95
21
-139.48
0
LINE
8
BLACK
6
CONTINUOUS
10
147.95
20
-139.48
11
147.855
21
-139.29
0
LINE
8
BLACK
6
CONTINUOUS
10
147.855
20
-139.29
11
147.664
21
-139.004
0
LINE
8
BLACK
6
CONTINUOUS
10
147.664
20
-139.004
11
147.569
21
-138.909
  0
ENDSEC
  0
EOF
