  0
SECTION
  2
HEADER
  9
$ANGBASE
  50
0.0
  9
$ANGDIR
  70
1
  9
$MEASUREMENT
  70
1
  0
ENDSEC
  0
SECTION
  2
TABLES
  0
TABLE
  2
LTYPE
  70
4
  0
LTYPE
  5
40F
  2
CONTINUOUS
  70
0
  3
Solid line
  72
65
  73
0
  40
0.0
  0
LTYPE
  5
410
  2
DASHDOT
 70
0
  3
Dash Dot ____ _ ____ _
 72
65
 73
4
 40
2.0
 49
1.25
 49
-0.25
 49
0.25
 49
-0.25
  0
LTYPE
  5
411
  2
DASHED
 70
0
  3
Dashed __ __ __ __ __
 72
65
 73
2
 40
0.75
 49
0.5
 49
-0.25
  0
LTYPE
  5
43B
  2
DOTTED
 70
0
  3
Dotted .  .  .  .
 72
65
 73
2
 40
0.2
 49
0.0
 49
-0.2
  0
ENDTAB
  0
TABLE
  2
STYLE
  70
4
  0
STYLE
  2
KICAD
  70
0
  40
0
  41
1
  42
1
  50
0
  71
0
  3
isocp.shx
  0
STYLE
  2
KICADB
  70
0
  40
0
  41
1
  42
1
  50
0
  71
0
  3
isocp.shx
  0
STYLE
  2
KICADI
  70
0
  40
0
  41
1
  42
1
  50
15
  71
0
  3
isocp.shx
  0
STYLE
  2
KICADBI
  70
0
  40
0
  41
1
  42
1
  50
15
  71
0
  3
isocp.shx
  0
ENDTAB
  0
TABLE
  2
LAYER
  70
1
  0
LAYER
  2
BLACK
  70
0
  62
7
  6
CONTINUOUS
  0
ENDTAB
  0
ENDSEC
  0
SECTION
  2
ENTITIES
0
LINE
8
BLACK
6
CONTINUOUS
10
185.5
20
-118
11
102.9
21
-118
0
ARC
8
BLACK
10
102.9
20
-115
40
3
50
-180
51
-90
0
ARC
8
BLACK
10
102.9
20
-70.4
40
3
50
90
51
180
0
LINE
8
BLACK
6
CONTINUOUS
10
102.9
20
-67.4
11
185.5
21
-67.4
0
LINE
8
BLACK
6
CONTINUOUS
10
188.5
20
-70.4
11
188.5
21
-115
0
ARC
8
BLACK
10
185.5
20
-115
40
3
50
-90
51
-0
0
ARC
8
BLACK
10
185.5
20
-70.4
40
3
50
-0
51
90
0
LINE
8
BLACK
6
CONTINUOUS
10
99.9
20
-115
11
99.9
21
-70.4
0
LINE
8
BLACK
6
CONTINUOUS
10
102.426
20
-121.155
11
102.426
21
-119.155
0
LINE
8
BLACK
6
CONTINUOUS
10
102.426
20
-119.155
11
102.902
21
-119.155
0
LINE
8
BLACK
6
CONTINUOUS
10
102.902
20
-119.155
11
103.188
21
-119.25
0
LINE
8
BLACK
6
CONTINUOUS
10
103.188
20
-119.25
11
103.379
21
-119.44
0
LINE
8
BLACK
6
CONTINUOUS
10
103.379
20
-119.44
11
103.474
21
-119.631
0
LINE
8
BLACK
6
CONTINUOUS
10
103.474
20
-119.631
11
103.569
21
-120.012
0
LINE
8
BLACK
6
CONTINUOUS
10
103.569
20
-120.012
11
103.569
21
-120.298
0
LINE
8
BLACK
6
CONTINUOUS
10
103.569
20
-120.298
11
103.474
21
-120.679
0
LINE
8
BLACK
6
CONTINUOUS
10
103.474
20
-120.679
11
103.379
21
-120.869
0
LINE
8
BLACK
6
CONTINUOUS
10
103.379
20
-120.869
11
103.188
21
-121.06
0
LINE
8
BLACK
6
CONTINUOUS
10
103.188
20
-121.06
11
102.902
21
-121.155
0
LINE
8
BLACK
6
CONTINUOUS
10
102.902
20
-121.155
11
102.426
21
-121.155
0
LINE
8
BLACK
6
CONTINUOUS
10
104.426
20
-121.155
11
104.426
21
-119.821
0
LINE
8
BLACK
6
CONTINUOUS
10
104.426
20
-120.202
11
104.521
21
-120.012
0
LINE
8
BLACK
6
CONTINUOUS
10
104.521
20
-120.012
11
104.617
21
-119.917
0
LINE
8
BLACK
6
CONTINUOUS
10
104.617
20
-119.917
11
104.807
21
-119.821
0
LINE
8
BLACK
6
CONTINUOUS
10
104.807
20
-119.821
11
104.998
21
-119.821
0
LINE
8
BLACK
6
CONTINUOUS
10
105.664
20
-121.155
11
105.664
21
-119.821
0
LINE
8
BLACK
6
CONTINUOUS
10
105.664
20
-119.155
11
105.569
21
-119.25
0
LINE
8
BLACK
6
CONTINUOUS
10
105.569
20
-119.25
11
105.664
21
-119.345
0
LINE
8
BLACK
6
CONTINUOUS
10
105.664
20
-119.345
11
105.76
21
-119.25
0
LINE
8
BLACK
6
CONTINUOUS
10
105.76
20
-119.25
11
105.664
21
-119.155
0
LINE
8
BLACK
6
CONTINUOUS
10
105.664
20
-119.155
11
105.664
21
-119.345
0
LINE
8
BLACK
6
CONTINUOUS
10
106.902
20
-121.155
11
106.712
21
-121.06
0
LINE
8
BLACK
6
CONTINUOUS
10
106.712
20
-121.06
11
106.617
21
-120.869
0
LINE
8
BLACK
6
CONTINUOUS
10
106.617
20
-120.869
11
106.617
21
-119.155
0
LINE
8
BLACK
6
CONTINUOUS
10
107.95
20
-121.155
11
107.76
21
-121.06
0
LINE
8
BLACK
6
CONTINUOUS
10
107.76
20
-121.06
11
107.664
21
-120.869
0
LINE
8
BLACK
6
CONTINUOUS
10
107.664
20
-120.869
11
107.664
21
-119.155
0
LINE
8
BLACK
6
CONTINUOUS
10
110.236
20
-121.155
11
110.236
21
-119.155
0
LINE
8
BLACK
6
CONTINUOUS
10
110.236
20
-119.155
11
110.902
21
-120.583
0
LINE
8
BLACK
6
CONTINUOUS
10
110.902
20
-120.583
11
111.569
21
-119.155
0
LINE
8
BLACK
6
CONTINUOUS
10
111.569
20
-119.155
11
111.569
21
-121.155
0
LINE
8
BLACK
6
CONTINUOUS
10
113.379
20
-121.155
11
113.379
21
-120.107
0
LINE
8
BLACK
6
CONTINUOUS
10
113.379
20
-120.107
11
113.283
21
-119.917
0
LINE
8
BLACK
6
CONTINUOUS
10
113.283
20
-119.917
11
113.093
21
-119.821
0
LINE
8
BLACK
6
CONTINUOUS
10
113.093
20
-119.821
11
112.712
21
-119.821
0
LINE
8
BLACK
6
CONTINUOUS
10
112.712
20
-119.821
11
112.521
21
-119.917
0
LINE
8
BLACK
6
CONTINUOUS
10
113.379
20
-121.06
11
113.188
21
-121.155
0
LINE
8
BLACK
6
CONTINUOUS
10
113.188
20
-121.155
11
112.712
21
-121.155
0
LINE
8
BLACK
6
CONTINUOUS
10
112.712
20
-121.155
11
112.521
21
-121.06
0
LINE
8
BLACK
6
CONTINUOUS
10
112.521
20
-121.06
11
112.426
21
-120.869
0
LINE
8
BLACK
6
CONTINUOUS
10
112.426
20
-120.869
11
112.426
21
-120.679
0
LINE
8
BLACK
6
CONTINUOUS
10
112.426
20
-120.679
11
112.521
21
-120.488
0
LINE
8
BLACK
6
CONTINUOUS
10
112.521
20
-120.488
11
112.712
21
-120.393
0
LINE
8
BLACK
6
CONTINUOUS
10
112.712
20
-120.393
11
113.188
21
-120.393
0
LINE
8
BLACK
6
CONTINUOUS
10
113.188
20
-120.393
11
113.379
21
-120.298
0
LINE
8
BLACK
6
CONTINUOUS
10
114.331
20
-119.821
11
114.331
21
-121.821
0
LINE
8
BLACK
6
CONTINUOUS
10
114.331
20
-119.917
11
114.521
21
-119.821
0
LINE
8
BLACK
6
CONTINUOUS
10
114.521
20
-119.821
11
114.902
21
-119.821
0
LINE
8
BLACK
6
CONTINUOUS
10
114.902
20
-119.821
11
115.093
21
-119.917
0
LINE
8
BLACK
6
CONTINUOUS
10
115.093
20
-119.917
11
115.188
21
-120.012
0
LINE
8
BLACK
6
CONTINUOUS
10
115.188
20
-120.012
11
115.283
21
-120.202
0
LINE
8
BLACK
6
CONTINUOUS
10
115.283
20
-120.202
11
115.283
21
-120.774
0
LINE
8
BLACK
6
CONTINUOUS
10
115.283
20
-120.774
11
115.188
21
-120.964
0
LINE
8
BLACK
6
CONTINUOUS
10
115.188
20
-120.964
11
115.093
21
-121.06
0
LINE
8
BLACK
6
CONTINUOUS
10
115.093
20
-121.06
11
114.902
21
-121.155
0
LINE
8
BLACK
6
CONTINUOUS
10
114.902
20
-121.155
11
114.521
21
-121.155
0
LINE
8
BLACK
6
CONTINUOUS
10
114.521
20
-121.155
11
114.331
21
-121.06
0
LINE
8
BLACK
6
CONTINUOUS
10
116.14
20
-120.964
11
116.236
21
-121.06
0
LINE
8
BLACK
6
CONTINUOUS
10
116.236
20
-121.06
11
116.14
21
-121.155
0
LINE
8
BLACK
6
CONTINUOUS
10
116.14
20
-121.155
11
116.045
21
-121.06
0
LINE
8
BLACK
6
CONTINUOUS
10
116.045
20
-121.06
11
116.14
21
-120.964
0
LINE
8
BLACK
6
CONTINUOUS
10
116.14
20
-120.964
11
116.14
21
-121.155
0
LINE
8
BLACK
6
CONTINUOUS
10
116.14
20
-119.917
11
116.236
21
-120.012
0
LINE
8
BLACK
6
CONTINUOUS
10
116.236
20
-120.012
11
116.14
21
-120.107
0
LINE
8
BLACK
6
CONTINUOUS
10
116.14
20
-120.107
11
116.045
21
-120.012
0
LINE
8
BLACK
6
CONTINUOUS
10
116.045
20
-120.012
11
116.14
21
-119.917
0
LINE
8
BLACK
6
CONTINUOUS
10
116.14
20
-119.917
11
116.14
21
-120.107
  0
ENDSEC
  0
EOF
