%TF.GenerationSoftware,KiCad,Pcbnew,(6.0.7-1)-1*%
%TF.CreationDate,2023-01-19T18:06:37-06:00*%
%TF.ProjectId,sc_karltron,73635f6b-6172-46c7-9472-6f6e2e6b6963,rev?*%
%TF.SameCoordinates,Original*%
%TF.FileFunction,Soldermask,Bot*%
%TF.FilePolarity,Negative*%
%FSLAX46Y46*%
G04 Gerber Fmt 4.6, Leading zero omitted, Abs format (unit mm)*
G04 Created by KiCad (PCBNEW (6.0.7-1)-1) date 2023-01-19 18:06:37*
%MOMM*%
%LPD*%
G01*
G04 APERTURE LIST*
%ADD10O,2.720000X3.240000*%
%ADD11R,1.800000X1.800000*%
%ADD12C,1.800000*%
%ADD13C,1.600000*%
%ADD14O,1.700000X1.700000*%
%ADD15R,1.700000X1.700000*%
%ADD16O,1.600000X1.600000*%
%ADD17C,4.200000*%
%ADD18R,1.600000X1.600000*%
%ADD19C,1.400000*%
%ADD20O,1.400000X1.400000*%
G04 APERTURE END LIST*
D10*
%TO.C,RV8*%
X180300000Y-105575000D03*
X170700000Y-105575000D03*
D11*
X178000000Y-98075000D03*
D12*
X175500000Y-98075000D03*
X175500000Y-103075000D03*
X173000000Y-98075000D03*
%TD*%
D13*
%TO.C,C5*%
X117400000Y-111700000D03*
X112400000Y-111700000D03*
%TD*%
D14*
%TO.C,J9*%
X128860000Y-69300000D03*
D15*
X131400000Y-69300000D03*
%TD*%
D13*
%TO.C,R14*%
X166580000Y-88400000D03*
D16*
X156420000Y-88400000D03*
%TD*%
D17*
%TO.C,H4*%
X102900002Y-114999997D03*
%TD*%
D10*
%TO.C,RV6*%
X165825000Y-77575000D03*
X156225000Y-77575000D03*
D11*
X163525000Y-70075000D03*
D12*
X161025000Y-75075000D03*
X161025000Y-70075000D03*
X158525000Y-70075000D03*
%TD*%
D13*
%TO.C,R15*%
X152800000Y-107680000D03*
D16*
X152800000Y-97520000D03*
%TD*%
D13*
%TO.C,R7*%
X156420000Y-92200000D03*
D16*
X166580000Y-92200000D03*
%TD*%
D11*
%TO.C,D1*%
X107225000Y-73250000D03*
D12*
X109765000Y-73250000D03*
%TD*%
D14*
%TO.C,J5*%
X185500000Y-86500000D03*
D15*
X185500000Y-83960000D03*
%TD*%
D13*
%TO.C,R23*%
X125475000Y-84080000D03*
D16*
X125475000Y-73920000D03*
%TD*%
D13*
%TO.C,R12*%
X113000000Y-104480000D03*
D16*
X113000000Y-94320000D03*
%TD*%
D13*
%TO.C,R25*%
X138800000Y-97520000D03*
D16*
X138800000Y-107680000D03*
%TD*%
D13*
%TO.C,R17*%
X148100000Y-107780000D03*
D16*
X148100000Y-97620000D03*
%TD*%
D13*
%TO.C,R1*%
X180680000Y-85600000D03*
D16*
X170520000Y-85600000D03*
%TD*%
D18*
%TO.C,C6*%
X145600000Y-114105113D03*
D13*
X145600000Y-111605113D03*
%TD*%
D18*
%TO.C,U1*%
X121400000Y-95975000D03*
D16*
X121400000Y-98515000D03*
X121400000Y-101055000D03*
X121400000Y-103595000D03*
X121400000Y-106135000D03*
X121400000Y-108675000D03*
X121400000Y-111215000D03*
X129020000Y-111215000D03*
X129020000Y-108675000D03*
X129020000Y-106135000D03*
X129020000Y-103595000D03*
X129020000Y-101055000D03*
X129020000Y-98515000D03*
X129020000Y-95975000D03*
%TD*%
D13*
%TO.C,R10*%
X117100000Y-104480000D03*
D16*
X117100000Y-94320000D03*
%TD*%
D18*
%TO.C,C3*%
X149100000Y-93800000D03*
D13*
X151600000Y-93800000D03*
%TD*%
D10*
%TO.C,RV7*%
X172500000Y-77575000D03*
X182100000Y-77575000D03*
D11*
X179800000Y-70075000D03*
D12*
X177300000Y-70075000D03*
X177300000Y-75075000D03*
X174800000Y-70075000D03*
%TD*%
D19*
%TO.C,R11*%
X105960000Y-90900000D03*
D20*
X111040000Y-90900000D03*
%TD*%
D13*
%TO.C,R3*%
X180680000Y-93800000D03*
D16*
X170520000Y-93800000D03*
%TD*%
D13*
%TO.C,R16*%
X108900000Y-104480000D03*
D16*
X108900000Y-94320000D03*
%TD*%
D13*
%TO.C,R22*%
X114625000Y-84080000D03*
D16*
X114625000Y-73920000D03*
%TD*%
D19*
%TO.C,R9*%
X127585000Y-90900000D03*
D20*
X132665000Y-90900000D03*
%TD*%
D14*
%TO.C,J4*%
X185500000Y-78940000D03*
D15*
X185500000Y-76400000D03*
%TD*%
D13*
%TO.C,R8*%
X169200000Y-81880000D03*
D16*
X169200000Y-71720000D03*
%TD*%
D17*
%TO.C,H2*%
X185500000Y-70400000D03*
%TD*%
D13*
%TO.C,R20*%
X131620000Y-111300000D03*
D16*
X141780000Y-111300000D03*
%TD*%
D10*
%TO.C,RV5*%
X149500000Y-77575000D03*
X139900000Y-77575000D03*
D11*
X147200000Y-70075000D03*
D12*
X144700000Y-70075000D03*
X144700000Y-75075000D03*
X142200000Y-70075000D03*
%TD*%
D18*
%TO.C,U2*%
X158000000Y-95975000D03*
D16*
X158000000Y-98515000D03*
X158000000Y-101055000D03*
X158000000Y-103595000D03*
X158000000Y-106135000D03*
X158000000Y-108675000D03*
X158000000Y-111215000D03*
X165620000Y-111215000D03*
X165620000Y-108675000D03*
X165620000Y-106135000D03*
X165620000Y-103595000D03*
X165620000Y-101055000D03*
X165620000Y-98515000D03*
X165620000Y-95975000D03*
%TD*%
D18*
%TO.C,C1*%
X116305113Y-107600000D03*
D13*
X113805113Y-107600000D03*
%TD*%
D18*
%TO.C,C2*%
X139700000Y-93800000D03*
D13*
X142200000Y-93800000D03*
%TD*%
%TO.C,R19*%
X104900000Y-104480000D03*
D16*
X104900000Y-94320000D03*
%TD*%
D13*
%TO.C,R5*%
X153000000Y-81880000D03*
D16*
X153000000Y-71720000D03*
%TD*%
D13*
%TO.C,R21*%
X103900000Y-84080000D03*
D16*
X103900000Y-73920000D03*
%TD*%
D17*
%TO.C,H1*%
X102900000Y-70400000D03*
%TD*%
D15*
%TO.C,J8*%
X185500000Y-99260000D03*
D14*
X185500000Y-101800000D03*
%TD*%
D15*
%TO.C,J2*%
X184500000Y-107460000D03*
D14*
X184500000Y-110000000D03*
%TD*%
D15*
%TO.C,J7*%
X185500000Y-91600000D03*
D14*
X185500000Y-94140000D03*
%TD*%
D13*
%TO.C,R18*%
X143400000Y-107680000D03*
D16*
X143400000Y-97520000D03*
%TD*%
D13*
%TO.C,R26*%
X168420000Y-112400000D03*
D16*
X178580000Y-112400000D03*
%TD*%
D17*
%TO.C,H3*%
X185500000Y-115000000D03*
%TD*%
D13*
%TO.C,R13*%
X134200000Y-107680000D03*
D16*
X134200000Y-97520000D03*
%TD*%
D13*
%TO.C,R2*%
X180680000Y-89800000D03*
D16*
X170520000Y-89800000D03*
%TD*%
D15*
%TO.C,J3*%
X110175000Y-69300000D03*
D14*
X107635000Y-69300000D03*
%TD*%
D13*
%TO.C,R4*%
X136600000Y-81880000D03*
D16*
X136600000Y-71720000D03*
%TD*%
D13*
%TO.C,C4*%
X154500000Y-111300000D03*
X149500000Y-111300000D03*
%TD*%
D14*
%TO.C,J6*%
X117860000Y-69300000D03*
D15*
X120400000Y-69300000D03*
%TD*%
D11*
%TO.C,D3*%
X128850000Y-73250000D03*
D12*
X131390000Y-73250000D03*
%TD*%
D13*
%TO.C,R24*%
X166680000Y-84900000D03*
D16*
X156520000Y-84900000D03*
%TD*%
D19*
%TO.C,R6*%
X116685000Y-90900000D03*
D20*
X121765000Y-90900000D03*
%TD*%
D11*
%TO.C,D2*%
X117950000Y-73350000D03*
D12*
X120490000Y-73350000D03*
%TD*%
D15*
%TO.C,J1*%
X103900000Y-107460000D03*
D14*
X103900000Y-110000000D03*
%TD*%
M02*
