M48
; DRILL file {KiCad (6.0.7-1)-1} date Thursday, January 19, 2023 at 06:06:29 PM
; FORMAT={-:-/ absolute / metric / decimal}
; #@! TF.CreationDate,2023-01-19T18:06:29-06:00
; #@! TF.GenerationSoftware,Kicad,Pcbnew,(6.0.7-1)-1
; #@! TF.FileFunction,Plated,1,2,PTH
FMAT,2
METRIC
; #@! TA.AperFunction,Plated,PTH,ViaDrill
T1C0.400
; #@! TA.AperFunction,Plated,PTH,ComponentDrill
T2C0.700
; #@! TA.AperFunction,Plated,PTH,ComponentDrill
T3C0.800
; #@! TA.AperFunction,Plated,PTH,ComponentDrill
T4C0.900
; #@! TA.AperFunction,Plated,PTH,ComponentDrill
T5C1.000
; #@! TA.AperFunction,Plated,PTH,ComponentDrill
T6C1.300
; #@! TA.AperFunction,Plated,PTH,ComponentDrill
T7C3.200
%
G90
G05
T1
X108.9Y-97.0
X110.6Y-88.9
X114.8Y-98.7
X119.2Y-91.0
X121.4Y-93.5
X126.3Y-108.2
X126.4Y-99.8
X126.9Y-111.9
X130.3Y-91.0
X131.8Y-109.3
X131.9Y-98.8
X133.2Y-85.7
X136.6Y-91.2
X137.1Y-96.0
X138.3Y-84.2
X138.6Y-87.2
X139.7Y-70.2
X145.7Y-101.4
X145.7Y-107.8
X145.9Y-95.7
X150.3Y-82.1
X150.5Y-107.5
X150.6Y-98.2
X160.2Y-95.4
X160.4Y-104.0
X163.7Y-92.2
X165.3Y-86.7
X167.5Y-109.9
X168.6Y-85.2
X169.3Y-95.4
X170.0Y-98.6
X171.5Y-112.4
X173.4Y-91.3
X175.5Y-95.8
X180.6Y-87.7
T2
X105.96Y-90.9
X111.04Y-90.9
X116.685Y-90.9
X121.765Y-90.9
X127.585Y-90.9
X132.665Y-90.9
T3
X103.9Y-73.92
X103.9Y-84.08
X104.9Y-94.32
X104.9Y-104.48
X108.9Y-94.32
X108.9Y-104.48
X112.4Y-111.7
X113.0Y-94.32
X113.0Y-104.48
X113.805Y-107.6
X114.625Y-73.92
X114.625Y-84.08
X116.305Y-107.6
X117.1Y-94.32
X117.1Y-104.48
X117.4Y-111.7
X121.4Y-95.975
X121.4Y-98.515
X121.4Y-101.055
X121.4Y-103.595
X121.4Y-106.135
X121.4Y-108.675
X121.4Y-111.215
X125.475Y-73.92
X125.475Y-84.08
X129.02Y-95.975
X129.02Y-98.515
X129.02Y-101.055
X129.02Y-103.595
X129.02Y-106.135
X129.02Y-108.675
X129.02Y-111.215
X131.62Y-111.3
X134.2Y-97.52
X134.2Y-107.68
X136.6Y-71.72
X136.6Y-81.88
X138.8Y-97.52
X138.8Y-107.68
X139.7Y-93.8
X141.78Y-111.3
X142.2Y-93.8
X143.4Y-97.52
X143.4Y-107.68
X145.6Y-111.605
X145.6Y-114.105
X148.1Y-97.62
X148.1Y-107.78
X149.1Y-93.8
X149.5Y-111.3
X151.6Y-93.8
X152.8Y-97.52
X152.8Y-107.68
X153.0Y-71.72
X153.0Y-81.88
X154.5Y-111.3
X156.42Y-88.4
X156.42Y-92.2
X156.52Y-84.9
X158.0Y-95.975
X158.0Y-98.515
X158.0Y-101.055
X158.0Y-103.595
X158.0Y-106.135
X158.0Y-108.675
X158.0Y-111.215
X165.62Y-95.975
X165.62Y-98.515
X165.62Y-101.055
X165.62Y-103.595
X165.62Y-106.135
X165.62Y-108.675
X165.62Y-111.215
X166.58Y-88.4
X166.58Y-92.2
X166.68Y-84.9
X168.42Y-112.4
X169.2Y-71.72
X169.2Y-81.88
X170.52Y-85.6
X170.52Y-89.8
X170.52Y-93.8
X178.58Y-112.4
X180.68Y-85.6
X180.68Y-89.8
X180.68Y-93.8
T4
X107.225Y-73.25
X109.765Y-73.25
X117.95Y-73.35
X120.49Y-73.35
X128.85Y-73.25
X131.39Y-73.25
T5
X103.9Y-107.46
X103.9Y-110.0
X107.635Y-69.3
X110.175Y-69.3
X117.86Y-69.3
X120.4Y-69.3
X128.86Y-69.3
X131.4Y-69.3
X142.2Y-70.075
X144.7Y-70.075
X144.7Y-75.075
X147.2Y-70.075
X158.525Y-70.075
X161.025Y-70.075
X161.025Y-75.075
X163.525Y-70.075
X173.0Y-98.075
X174.8Y-70.075
X175.5Y-98.075
X175.5Y-103.075
X177.3Y-70.075
X177.3Y-75.075
X178.0Y-98.075
X179.8Y-70.075
X184.5Y-107.46
X184.5Y-110.0
X185.5Y-76.4
X185.5Y-78.94
X185.5Y-83.96
X185.5Y-86.5
X185.5Y-91.6
X185.5Y-94.14
X185.5Y-99.26
X185.5Y-101.8
T7
X102.9Y-70.4
X102.9Y-115.0
X185.5Y-70.4
X185.5Y-115.0
T6
G00X139.9Y-77.325
M15
G01X139.9Y-77.825
M16
G05
G00X149.5Y-77.325
M15
G01X149.5Y-77.825
M16
G05
G00X156.225Y-77.325
M15
G01X156.225Y-77.825
M16
G05
G00X165.825Y-77.325
M15
G01X165.825Y-77.825
M16
G05
G00X170.7Y-105.325
M15
G01X170.7Y-105.825
M16
G05
G00X172.5Y-77.325
M15
G01X172.5Y-77.825
M16
G05
G00X180.3Y-105.325
M15
G01X180.3Y-105.825
M16
G05
G00X182.1Y-77.325
M15
G01X182.1Y-77.825
M16
G05
T0
M30
